<?xml version="1.0" encoding="utf-8"?>
<!-- Generator: Adobe Illustrator 21.0.2, SVG Export Plug-In . SVG Version: 6.00 Build 0)  -->
<svg version="1.1" id="Layer_1" xmlns="http://www.w3.org/2000/svg" xmlns:xlink="http://www.w3.org/1999/xlink" x="0px" y="0px"
	 viewBox="0 0 125.2 111.3" style="enable-background:new 0 0 125.2 111.3;" xml:space="preserve">
<style type="text/css">
	.st0{fill:#047448;}
	.st1{fill:#FFFFFF;}
	.st2{fill:#C5C7C9;}
	.st3{fill:#2C6A7D;}
</style>
<g>
	<path class="st0" d="M122.4,33c-0.3-1.8-1.1-3.5-2.3-4.8c-1-1.3-4.1-4.9-8.3-7.7c-0.2-1.6-0.8-3-1.7-4.1c-0.3-0.4-0.9-1-1.6-1.7
		l-0.6-0.5c-1.5-1.4-3.4-2.9-5.1-3.8c-0.2-0.1-0.6-0.4-0.9-0.7c-1.9-1.3-5-3.5-8.8-4.4c-3.1-0.7-6.4-1-8.2-1.1
		C82.6,3.4,78,1.8,73.8,1c-3.5-0.7-10.4-1.2-13.3-0.9c-5.3,0.5-13.4,2.9-20,7c-2.5-0.7-6.2-1.3-11-1.3c-1.2,0-4.3-0.3-5.9-0.7
		C19.3,4.3,15.8,5,13.1,7c-0.5,0.4-0.9,0.7-1.2,1.1l-1.2,1.6c-1.6,2.5-1.8,5.1-1.9,6.3l0,0.1c-0.6,5-0.1,9.7,1.2,13.8
		c0.4,1.2,0.9,2.3,1.4,3.4C8.5,35.9,5,39.5,1.4,44.2l-1.3,1.7L0,48.8c0,0.3,0,0.6,0,0.9c0,0.3,0,0.5,0,0.8l0.3,5
		c0.4,4.5,1.4,9,2.8,13.4c0.1,0.2,0.2,0.5,0.2,0.7l0,0.1c0.5,1.3,1,2.7,1.5,4l0.3,0.8c0.1,0.2,0.2,0.4,0.3,0.7l0,0.1
		c0.5,1,1,2,1.5,3.1c0.1,0.2,0.3,0.5,0.4,0.7l0.1,0.1c0.1,0.2,0.2,0.4,0.4,0.6l0.5,0.8c0.3,0.5,0.6,1.1,0.9,1.5l0.5,0.7l2.2,3.2
		c0.4,0.5,0.7,0.9,1.1,1.4l2.2,2.6c0.6,0.6,1.1,1.3,1.7,1.9l1.7,1.7c0.2,0.2,0.4,0.3,0.6,0.5c0.2,0.2,0.4,0.3,0.6,0.5l0.6,0.5
		c0.3,0.3,0.6,0.5,0.9,0.8l6.7,5c0.2,0.1,0.3,0.2,0.4,0.3l0.7,0.5c0.2,0.1,0.4,0.2,0.6,0.3l0.7,0.4c0.2,0.1,0.4,0.2,0.5,0.3l4,2.1
		c0,0,0,0,0.1,0l0.1,0.1c0.6,0.3,1.2,0.6,1.8,0.8l0.1,0.1c0.6,0.3,1.2,0.5,1.8,0.8l2,0.8l0.8,0.3l0.5,0.1c0.3,0.1,0.6,0.2,0.9,0.3
		c0.3,0.1,0.6,0.2,0.9,0.3l0.1,0c0.5,0.2,1.1,0.3,1.6,0.4l0.8,0.3h0.3c0.5,0.1,0.9,0.2,1.4,0.3l4.5,0.8c0.3,0,0.6,0.1,0.9,0.1
		l5.3,0.4l3.5,0.5l7.7-1.2c5.6-0.8,11.1-2.5,16.2-4.8l1-0.5c3.1-1.5,6.2-3.3,9-5.3l4.3-3l-2-4.8c-2.1-5-6.5-7.6-10.5-10
		c-1.1-0.7-2.1-1.3-3-1.9c-0.3-0.3-0.6-0.5-0.9-0.8c3,1.1,6.2,1.7,9.6,1.7c0.3,0,0.6,0,0.9,0c3.8-0.1,7.4-0.9,10.7-2.3l0,0.4l0,0v0
		l0.3-0.5c3.2-1.4,6.1-3.5,8.3-6c5.6-6.2,6.9-11.8,6.8-15.8c0,0,0-0.1,0.1-0.1l0.1-0.2c0.3-0.6,1-1.7,1.8-3.3l0.3-0.6
		c0.7-1.4,1.3-3.2,1.8-5C125.9,41.9,125.1,37,122.4,33z"/>
	<g>
		<path class="st1" d="M115.9,35.4c0,0,0.4-1.8-0.8-2.9c0,0-4.3-5.8-10.1-8.3c0,0,0.7-2.8-0.1-3.8c-0.8-0.9-3.6-3.6-5.1-4.3
			c-1.5-0.7-4.6-3.6-8.3-4.5c-3.7-0.9-7.9-1-7.9-1s-6.1-2.2-11.1-3.3c-3-0.6-9.3-1-11.3-0.8c-4.8,0.5-13.4,3-19.6,7.7
			c0,0-3.8-2-12.1-2c-1.9,0-5.4-0.4-7.1-0.8c-7-1.3-7,3.7-7.1,5.3c-1,8.9,1.9,14.6,4.9,17.6c0,0-6.5,4.6-13.5,13.7
			c0,0.2,0,0.4,0,0.6c0,0,0,0,0,0c0,0.1,0,0.1,0,0.2c0,0.3,0,0.5,0,0.8c0,0.2,0,0.5,0,0.7c0,0.1,0,0.1,0,0.2c0,0,0,0,0,0.1
			c0,0.1,0,0.1,0,0.2c0,0.1,0,0.2,0,0.3c0,0.1,0,0.1,0,0.2c0,0.2,0,0.3,0,0.5l0,0l0,0c0,0,0,0,0,0.1c0,0,0,0.1,0,0.1
			c0,0.2,0,0.4,0,0.6c0,0,0,0.1,0,0.1c0,0.2,0,0.4,0,0.6c0,0,0,0.1,0,0.1c0,0.2,0,0.4,0,0.7c0,0,0,0,0,0c0,0.2,0,0.5,0.1,0.7
			c0,0,0,0,0,0c0.4,4.1,1.2,8.1,2.5,11.9c0,0,0,0,0,0c0.1,0.2,0.2,0.5,0.2,0.7c0,0,0,0,0,0c0.4,1.2,0.9,2.4,1.4,3.5c0,0,0,0,0,0
			c0.1,0.2,0.2,0.4,0.3,0.7c0,0,0,0,0,0c0.1,0.2,0.2,0.4,0.3,0.7c0,0,0,0,0,0c0.4,0.9,0.9,1.8,1.3,2.7c0,0,0,0,0,0
			c0.1,0.2,0.2,0.4,0.3,0.6c0,0,0,0,0,0.1c0.1,0.2,0.2,0.4,0.3,0.6c0,0,0,0.1,0,0.1c0.1,0.2,0.2,0.4,0.3,0.6c0,0,0,0,0,0.1
			c0.3,0.5,0.6,1,0.9,1.4c0,0,0,0,0,0c0.1,0.2,0.2,0.4,0.4,0.6c0,0,0,0,0,0c0.1,0.2,0.2,0.3,0.3,0.5c0,0,0,0.1,0.1,0.1l0,0
			c0,0,0,0,0,0c0.1,0.2,0.2,0.3,0.3,0.5c0,0,0.1,0.1,0.1,0.1c0.1,0.2,0.2,0.3,0.3,0.5c0,0,0.1,0.1,0.1,0.1c0.1,0.2,0.2,0.3,0.3,0.5
			c0,0,0,0,0,0c0,0,0,0.1,0.1,0.1c0.1,0.2,0.2,0.3,0.3,0.5c0,0,0,0,0,0c0.3,0.4,0.6,0.9,1,1.3c0,0,0,0.1,0.1,0.1
			c0.1,0.2,0.3,0.3,0.4,0.5c0,0,0.1,0.1,0.1,0.1c0.1,0.1,0.2,0.3,0.4,0.4c0,0,0.1,0.1,0.1,0.1c0.1,0.1,0.2,0.3,0.4,0.4
			c0,0,0.1,0.1,0.1,0.1c0.1,0.2,0.3,0.3,0.4,0.5c0,0,0,0.1,0.1,0.1c0.5,0.6,1,1.1,1.5,1.7l0,0c0.2,0.2,0.3,0.3,0.5,0.5c0,0,0,0,0,0
			c0.2,0.2,0.3,0.3,0.5,0.5c0,0,0,0,0,0c0.2,0.2,0.3,0.3,0.5,0.5c0,0,0,0,0,0c0.2,0.2,0.3,0.3,0.5,0.4c0,0,0,0,0,0
			c0.2,0.2,0.3,0.3,0.5,0.4c0,0,0,0,0,0c0.2,0.2,0.3,0.3,0.5,0.5c0,0,0,0,0,0c1.1,1,2.2,1.9,3.3,2.7c0,0,0.1,0,0.1,0.1
			c0.2,0.2,0.4,0.3,0.7,0.5c0,0,0,0,0.1,0c0.2,0.2,0.5,0.4,0.7,0.5c0,0,0,0,0.1,0c0.2,0.2,0.5,0.3,0.7,0.5c0,0,0.1,0,0.1,0.1
			c0.1,0.1,0.2,0.2,0.3,0.2l0,0c0.2,0.1,0.4,0.3,0.6,0.4c0,0,0,0,0,0c0.2,0.1,0.4,0.2,0.6,0.4c0,0,0.1,0,0.1,0.1
			c0.2,0.1,0.3,0.2,0.5,0.3c0,0,0,0,0,0c0.2,0.1,0.4,0.2,0.6,0.4c0,0,0,0,0,0c0.1,0.1,0.3,0.2,0.4,0.2c0,0,0.1,0,0.1,0.1
			c0.2,0.1,0.5,0.3,0.8,0.4c0,0,0,0,0,0c0.3,0.1,0.5,0.3,0.8,0.4c0,0,0.1,0,0.1,0.1c0.2,0.1,0.5,0.3,0.7,0.4c0,0,0.1,0,0.1,0
			c0.3,0.1,0.5,0.3,0.8,0.4c0,0,0,0,0.1,0c0.2,0.1,0.5,0.2,0.7,0.4c0,0,0.1,0,0.1,0.1c0.5,0.3,1.1,0.5,1.6,0.7c0,0,0.1,0,0.1,0.1
			c0.5,0.2,1.1,0.5,1.6,0.7c0,0,0.1,0,0.1,0.1c0.2,0.1,0.4,0.1,0.6,0.2c0,0,0,0,0,0c0.1,0,0.1,0.1,0.2,0.1c0,0,0,0,0,0
			c0.1,0,0.3,0.1,0.4,0.1c0,0,0,0,0,0c0.1,0.1,0.3,0.1,0.4,0.2c0,0,0.1,0,0.1,0c0,0,0.1,0,0.1,0c0,0,0,0,0,0
			c0.2,0.1,0.4,0.2,0.7,0.2l0,0l0,0c0,0,0,0,0,0c0,0,0.1,0,0.1,0c0.3,0.1,0.6,0.2,0.9,0.3c0,0,0.1,0,0.1,0c0.3,0.1,0.5,0.2,0.8,0.2
			c0,0,0.1,0,0.1,0c0.5,0.2,1.1,0.3,1.7,0.5l0,0l0,0c0,0,0.1,0,0.1,0c0.1,0,0.1,0,0.2,0c0.6,0.1,1.1,0.3,1.7,0.4c0,0,0,0,0.1,0
			c0,0,0.1,0,0.1,0c0.2,0,0.3,0.1,0.5,0.1c0,0,0.1,0,0.1,0c0.1,0,0.1,0,0.2,0c0,0,0,0,0.1,0c0.1,0,0.2,0,0.3,0.1c0,0,0.1,0,0.1,0
			c0.1,0,0.3,0,0.4,0.1c0,0,0.1,0,0.1,0c0,0,0,0,0,0c0,0,0.1,0,0.1,0c0.2,0,0.4,0.1,0.6,0.1c0,0,0,0,0,0c0,0,0.1,0,0.1,0
			c0.2,0,0.4,0.1,0.7,0.1c0,0,0,0,0.1,0c0.1,0,0.1,0,0.2,0c0,0,0.1,0,0.1,0c0.3,0,0.5,0.1,0.8,0.1c0.1,0,0.1,0,0.2,0
			c0.1,0,0.2,0,0.2,0c0,0,0,0,0,0c0.2,0,0.4,0,0.5,0.1c0,0,0,0,0,0c0,0,0.1,0,0.1,0l0,0l0,0c0,0,0,0,0,0c0.1,0,0.1,0,0.2,0
			c0.1,0,0.2,0,0.3,0c0,0,0,0,0.1,0c0.1,0,0.1,0,0.2,0c0.1,0,0.2,0,0.2,0c0.1,0,0.1,0,0.2,0c0,0,0,0,0.1,0c0.1,0,0.1,0,0.2,0
			c0.1,0,0.2,0,0.3,0c0,0,0.1,0,0.1,0c0,0,0.1,0,0.1,0c0.1,0,0.2,0,0.2,0c0.1,0,0.2,0,0.3,0c0,0,0,0,0,0c0,0,0.1,0,0.1,0
			c0.1,0,0.2,0,0.3,0c0.1,0,0.2,0,0.3,0c0,0,0.1,0,0.1,0c0.1,0,0.2,0,0.3,0c0.1,0,0.2,0,0.3,0c0,0,0.1,0,0.1,0c0.1,0,0.3,0,0.4,0
			c0.1,0,0.2,0,0.2,0c0,0,0,0,0,0c0.2,0,0.5,0,0.7,0c0.3,0,0.5,0,0.8,0c0.1,0,0.2,0,0.3,0c0.1,0,0.3,0,0.4,0c0.1,0,0.3,0,0.4,0
			c0.1,0,0.2,0,0.3,0c0.2,0,0.3,0,0.5,0c0,0,0,0,0,0c1.8-0.1,3.6-0.3,5.4-0.5c0,0,0,0,0,0c8.6-1.3,16.6-4.6,23.4-9.4
			c-1.7-4.1-7.5-6.3-11.6-9.3c-0.4-0.4-0.9-0.8-1.5-1.3c-0.2-0.2-0.4-0.4-0.6-0.5c-0.1-0.1-0.3-0.3-0.4-0.4
			C74.7,78.4,79,70.8,80.1,69c7.4,7.4,21.8,6.6,28.8-1.1c5.2-5.8,5.5-10.5,4.9-13.2c0.3-0.4,0.8-1,1.2-1.7
			C116,51.4,122.1,41.9,115.9,35.4z"/>
		<path class="st1" d="M114.3,36.1l-0.2-0.2l0-0.2c0,0,0.3-1.6-0.6-2.5l0,0l0,0c-2.5-3-7.1-6.9-11.2-8.6c0-0.9,0-2.8-0.6-3.5
			c-0.7-0.9-3.8-3.6-5.3-4.3c-0.5-0.2-1.1-0.7-2-1.3c-1.7-1.3-3.4-2.1-5.9-2.7c-3.7-0.9-6.4-0.5-6.6-0.6l-3.9-1.8l0,0
			c-0.1,0-9.5-2.9-14.9-2.9c-0.2,0-0.4,0-0.6,0c-4.5,0.3-15.9,4.6-22.1,8.6c0,0-5.4-2.3-12.8-2.8c-2.1-0.1-5.6-0.8-7.3-0.6
			c-3.2,0.3-2.6-0.2-4,0.5c-1.3,0.6-1.2,3-1.2,3.5c-0.9,4.9-0.1,7.6,0.6,10c0.7,2.7,1.6,4.9,2.8,6.2l2.4,1.8l-2.5,1.4
			c-0.1,0-4.7,3.1-13.3,13.5c0,0,0,0.1-0.1,0.1c0,0.1,0,0.2,0,0.3c-0.1,30,24.2,54.4,54.2,54.4c1,0,2,0,2.9-0.1
			c0.2-0.1,0.3-0.2,0.5-0.3c5.7-4.3,8.5-9.8,13.8-11c-0.5-0.4-3.1-5.1-3.6-5.7c-1.4-1.7-1.5-7.9-0.3-13.2c0.7-3.1,2.7-5.2,6-6.3
			c0.9-0.3,1.6-0.5,2.3-0.5c1.7,0,2.1,1,2.1,1l0.1,0.1l0,0.1c0,0-0.3,1.3,0.7,3.4c0.5-0.2,1.1,0,2.1-0.4l0.3-0.1l0.2,0.2
			c0.1,0.1,2.1,0.5,1.7,2c1.4-0.1,3.6,0.5,5.9-0.5c3.4-1.5,6.6-3.6,6.6-3.6l0.6-0.4l0,0.8c0,0,0,0.9-0.2,2c1.1-0.5,3.1-1.4,4.3-2.8
			c1.9-2.1,2.5-3,2.8-5l0.1-0.5l0.5,0.2c0.1,0.1,0.9-1.1,1.5-0.3c0.8-1.7,2.8-4.4,1.2-7.6l-0.1-0.3l0.2-0.2c0,0,0.9-0.9,1.8-2.4
			c0-0.1,0.1-0.1,0.1-0.2C117.8,45.7,118,40,114.3,36.1z"/>
		<path d="M112.8,52c0,0,4.6,6.4-3.9,15.8s-28,8.5-32.5-4.8c-4.4-13.3,2.7-2.5,2.9-2.4"/>
		<path class="st2" d="M91.1,43.7c-4.9-0.6-10-0.5-14.9-0.1c-5.8,0.5-11.6,1.5-17.1,3.2c0,0,14-5.8,33.3-4.2L91.1,43.7z"/>
		<path class="st2" d="M99.2,38.2c-11-4.5-23.1-6.4-34.9-5.3c-1.8,0.2-3.6,0.4-5.3,0.8c0,0,21.8-6.6,41.9,4.1L99.2,38.2z"/>
		<path class="st2" d="M97.2,41.5c-5.6-1.3-11.4-2-17.1-2.3c-7-0.4-14.1-0.1-21,1.1c-3.9,0.7-7.8,1.7-11.6,3.1c0,0,4.2-2.3,11.3-3.9
			c10-2.3,26.6-3,38.6,1.4L97.2,41.5z"/>
		<path class="st0" d="M79.6,23c-2.4,0.3-4.7,1.1-6.8,2.4c2.1,1.5,4.7,1.9,7.2,2.1c0.5,0,1.1,0,1.4-0.4c0.1-0.2,0.2-0.5,0.2-0.7
			c0.1-0.6,0.2-1.3,0-1.9c-0.1-0.6-0.5-1.4-1.1-1.5L79.6,23z"/>
		<path class="st0" d="M89.3,33.4c1.2,0.3,2.9,1,4.1,1.5c2.1-0.4,3.7-0.3,5-0.1C98.4,34.7,94.2,32.6,89.3,33.4z"/>
		<path class="st2" d="M99.6,16.9c1.5,1.2,3,2.8,3.1,4.8c0.1,1-0.2,2-1,2.7c-0.7,0.7-2,1-2.8,0.5L98.4,25c1.1-0.5,2.5-1.9,1.7-4
			c-0.1-0.3-2.1-1.9-4.3-3.5c-0.6-0.5-1.2-0.5-1.9-0.9c-1.2-0.8-2.7-1.6-3.8-1.9c-1.3-0.4-1.9-0.5-3.3-0.8c-1.3-0.3-2.5-0.1-3.2-1.3
			C89.3,11.8,95.2,13.4,99.6,16.9z"/>
		<path class="st2" d="M37.8,17.2c-0.9,0.3-0.9,1.8-1.1,2.7c-2.7-0.7-4.5-1.8-6-3c-0.2,1.1,0.4,1.6,1,2.3c-3.5-1.1-7.4-2.4-9.5-4.3
			c2.3,0.7,2.9,0.5,5.7,0.6C33.3,15.8,35.6,16.5,37.8,17.2z"/>
		<path class="st2" d="M41,22.9c0,0,5.7-10.1,19.4-12C70,9.5,80,13.1,80,13.1s-12.5-3.3-25,1.1C50.3,16,45.5,18.7,41,22.9z"/>
		<path d="M73.2,21c1,0.2,2.4,0.4,4.1,1.2c-3.8-0.2-6.9,2.8-7.1,3.1c0.5,0.9,1.5,1.6,2.7,1.8c-0.1,0-2.1,1.1-2.7,1.4
			c6.1-0.9,13.6-0.8,19.7,1.7c-1.4-1.4-3.1-2.4-5.4-3.2c2.6-0.2,9.2,0.6,15.9,5.3c0,0-4.1-4.7-8.7-6.5c0.9-0.6,2-1.8,1.5-3.7
			c0,0-0.4,0.9-1.4,1.4c-0.8,0.4-2.1,0.6-3.1,0.2c-0.6-0.2-3.4-1.5-5.4-2.5c-2.2-1.1-4.1-1.9-8.5-3.1c-4.1-1.1-10.2,3.9-10.2,3.9
			S69.7,20.2,73.2,21z M78.9,25.6c0.3,0.7,0.7,0.3,0.8,0.1c0.4-0.7,0.6-1.2,0.4-1.7c0.5,0.2,0.8,0.6,0.8,1.2c0,0.6-0.2,0.9-0.4,1
			c-0.7,0.4-3.9,0.2-5.4-0.4c-0.9-0.4-0.9-0.7-0.3-1c1.2-0.6,1.6-0.7,2.7-0.8C78,24.1,78.5,24.8,78.9,25.6z"/>
		<path class="st1" d="M116.3,41.5c-0.4-3.1-2.2-5.7-2.2-5.7s-0.4-2-1.2-3.4c-0.6-1.1-7.2-5.7-9.8-7.5c-0.7-0.2-1.5-0.4-2.3-0.6
			l0.2,0.9c0,0,0.6-1.1,5.4,3.1c3.8,3.4,4.2,5.3,4.2,5.3s-2-0.3-4.5-0.2c-4.4,0.2-4.6,1.5-4.6,1.5s-4.2-1.1-8.9-0.9
			c-4.7,0.2-7.9,1.6-8.9,4.6c-1,2.9-1.3,8-1.3,8S82,46.8,81.3,47c1.9,0,3.8,0,4.6,1c7.2,9.3,20.9,3,21.5,2.5s0.6,1.2,0.8,1.3
			c0.2,0.1,0.1-0.6,2.4,3.2c0.5,0.8,0.5,3.3,0.1,6.7c0.2-0.4,0.9-1.7,0.9-3.3c0-1.9,0.1-3.6,0.1-3.6s2.5-1.7,3.3-3.9
			C115.7,48.7,116.8,44.5,116.3,41.5z"/>
		<path class="st2" d="M89.8,36.8c4.7-0.2,8.9,0.9,8.9,0.9s0.2-1.2,4.6-1.5c2.5-0.1,4.5,0.2,4.5,0.2s-0.2-1.1-1.8-3
			c-4.3,0.2-4.5,1.5-4.5,1.5s-4.2-1.1-8.9-0.9c-4.4,0.2-7.4,1.5-8.6,4C85.4,37.3,87.4,36.9,89.8,36.8z"/>
		<path class="st2" d="M116.3,41.5c-0.4-3.1-2.2-5.7-2.2-5.7s-0.4-2-1.2-3.4c-0.6-1.1-7.2-5.7-9.8-7.5c-0.7-0.2-1.5-0.4-2.3-0.6
			l0.2,0.9c0,0,0.6-1.1,5.4,3.1c3.8,3.4,4.2,5.3,4.2,5.3s-0.9-0.1-2.3-0.2c0.9,0.7,1.6,1.4,1.8,1.7c0.8,1.4,1.2,3.4,1.2,3.4
			s1.8,2.7,2.2,5.7c0.4,3.1-0.7,7.3-1.4,9.4c-0.3,0.8-0.8,1.5-1.3,2.1c0.2,1.2,0.1,3.2-0.1,5.9c0.2-0.4,0.9-1.7,0.9-3.3
			c0-1.9,0.1-3.6,0.1-3.6s2.5-1.7,3.3-3.9C115.7,48.7,116.8,44.5,116.3,41.5z"/>
		<path class="st2" d="M6.6,49.8c0,2,0.1,4,0.3,5.9c3.2-6.9,7.5-13.2,13-17.1l-1.5-1.2c0,0-5.6,3-11.7,11.3
			C6.6,49.1,6.6,49.4,6.6,49.8z"/>
		<path class="st2" d="M115.1,35.4c0,0-0.4-2-1.2-3.4c-0.6-1.1-7.2-5.7-9.7-7.4c-0.7-0.2-1.5-0.4-2.2-0.6l0.2,0.9
			c0,0,0.6-1.1,5.4,3.1c3.8,3.4,4.2,5.3,4.2,5.3s-2-0.3-4.5-0.2c-4.4,0.2-4.6,1.5-4.6,1.5s-4.2-1.1-8.9-0.9c-3.7,0.1-6.5,1.1-7.9,3
			c10.1,3.2,19,9.7-10.3,20.6c-38.6,14.4-37.4-12-36.1-20.5c-1.5,1.7-3.8,5-5.6,10.1c-3.8,10.6,7.6,20.3,8,21.2
			c0.4,0.9,28.6,2.3,28.9,1.8c0.2-0.5,9.6-5.3,11.8-5.9c2.3-0.5,5.6,2.3,5.9,3s1.7,2.5,3.6,2.6c1.9,0.1,6.1,0.3,8-0.2
			c1.9-0.5,3.5-1.2,4.6-1.2c1,0,2.4-0.3,2.8-0.8c0.4-0.5,3.1-4.9,3.2-5.5c0.1-0.6,1.1-0.5,1.1-0.5s1-1.5,1-3.4
			c0-1.9,0.1-3.6,0.1-3.6s2.5-1.7,3.2-3.8c0.7-2.2,1.8-6.4,1.4-9.4C116.9,38,115.1,35.4,115.1,35.4z"/>
		<path d="M21.9,19.8c-0.2,3.4,1.6,12.5,10,12c0.9,0.4,1.3,0.7,1.8,1.5c0.2-1,0.9-2.5,1.3-3.4c-0.5,0.5-1.5,0.3-2.8-0.4
			c1.4-0.4,2-0.2,3.3-1.3c-2.1,0.4-3.8-0.5-4.8-2.1c1.2,0.2,4.8,0.7,5.9-0.8c-1.5-0.4-2-1.2-3.5-1.6c2.8-0.2,1.5-0.6,3.3-2
			c-1.9-0.2-3.4-0.6-5.6-1.2C24.3,19.1,22,16,21.9,19.8z M31.5,31.4l-0.8-0.2C31,31.2,31.3,31.3,31.5,31.4z"/>
		<path d="M61.1,104.2c2,0,4.1-0.1,6.1-0.4c0.4-1.5,0.8-3,1.2-4.8c0.5-2.4,0.5-4.8,0.6-7.2C67.3,96.5,64.6,100.8,61.1,104.2z"/>
		<path d="M115.9,35.4c0,0,0.4-1.8-0.8-2.9c0,0-4.3-5.8-10.1-8.3c0,0,0.7-2.8-0.1-3.8c-0.8-0.9-3.6-3.6-5.1-4.3
			c-1.5-0.7-4.6-3.6-8.3-4.5c-3.7-0.9-7.9-1-7.9-1s-6.1-2.2-11.1-3.3c-3-0.6-9.3-1-11.3-0.8c-4.8,0.5-13.4,3-19.6,7.7
			c0,0-3.8-2-12.1-2c-1.9,0-5.4-0.4-7.1-0.8c-7-1.3-7,3.7-7.1,5.3c-1,8.9,1.9,14.6,4.9,17.6c0,0-6.5,4.6-13.5,13.7c0,0.5,0,1,0,1.5
			c0,0.7,0,1.4,0,2.2c3.1-5,6.8-9.6,11.3-12.9c5.2,0.3,9.1,0.2,12.4-3c1.7-0.5,2.6-1.1,2.6-1.1c-1.8-0.2-10.3-0.1-13.4-8.7
			c-1.1-3.1-2.9-12,1-12.2c2.8-0.2,4.1,0.4,5.5,0.4C36.9,14.3,40,16.7,40,16.8c-1.5,1.5-2,4.2-2.1,5.7c1.6-2,5-5.3,10.2-8.7
			c3.6-2.3,6.9-3.6,13.9-4.3c9-0.3,17.9,1.7,22.4,3.9c1.3,0.6,7.9,3.7,7.9,3.7c-0.6-0.5-2.7-3.2-5.2-4c-0.6-0.2,1-0.3,3.3,0.2
			c3.7,0.8,6.1,3,6.8,3.6c0.7,0.5,2.6,1.9,3.7,2.8c0.8,0.7,0.7,0.7,0.9,1.1c-0.1,1.3-1,2.8-2.3,2.6c0.3-0.5,0-2.1-1.3-3.1
			c0.3,1.8-1.2,4.3-2.9,4.8c1.6-0.2,3-0.4,4.3-0.2c2,0.5,3.1,1.7,7.2,5.1c0,0,0-0.7-1-2.1c-1-1.4-1.9-2.2-1.9-2.2l0.5,0
			c1,0.6,2.2,1.5,3.6,2.6c3.9,3.2,4.3,4.2,4.3,4.2s-0.6,0.3-2,0.3c-1.9,0-4.6-1.4-7.1-0.7c-1.1,0.2-1.7,1.1-1.9,1.9
			c-1-0.9-3.3-1.7-5.5-2.1c-1.9-0.3-5.2-0.1-6.7,0.8c2.4,0.2,3.9,0.7,4.4,1.5c2.4-0.5,6.2,0,7.9,1.2c0,0,0,0,0,0c0,0,0,0,0,0
			c0,0,0,0,0,0c0,0,0,0,0,0c0.3,0,1.3,0.2,3.9,0.5c0.7,0.1,2.7,0.5,2.8,0.6c-1.6,0.4-2.8,0.3-3.3,0.5c-0.6,0.2,3.2,0.8,4.7,3.8
			c0,0,3.3-1.4,4-3.4c0,0,0.6,0,1.3,2.1c0.9,2.8,0.4,9.9-4.2,13.4c-0.9-1-1.3-1.6-1.3-1.6c-0.1-0.4-0.4-1.4-0.3-1.7
			c0.9-2.1,0.8-5,0.6-6.4c-0.1-0.7-0.1-1.1-0.1-1.1s-0.3,4.5-2.4,7.1c-0.6,0.7-2.6,2-3.2,2c-0.2,0-4.4,0.8-7.6,1.1
			c-8,0.6-12-2-15-0.7c-2.9,1.3-2,4.4-1.1,4.7c0.1,0.1,13.4-2.2,16.6-2.5c4.9-0.4,9.3-0.5,9.3-0.5c1.3,0,3,1.8,3,1.8
			c1,1.5,1.1,3.4,0.6,4.5l-1.9-1.3c0,0,0.2,3-0.3,4.1c-1.9,3.8-3.3,4.3-3.3,4.3s0.7-2.8-0.8-3.2c-0.2,1.3-1.7,2.6-2.6,3
			c-4.4,2.3-7.6,2-9.7,1.4c0,0,1.5-4.9-4.5-6.7c-7-1.7-9.7,0.4-11.2-4.4c-0.1-0.3-0.6-0.4-0.6-0.1c-0.3,1-0.3,2.4,0,3.5
			c0.7,1.2,1.2,2.1,1.2,2.1s-2.8,1.5-6.7,3.2c-3.9,1.7-7.7,1.5-7.7,1.5l2.7,0.8c0,0-20.4,2.3-27.4-9.2c-5.6-9.3-1.6-18.4,0.2-21.6
			c-9.9,9.1-9.9,24-7,37.2c-2-3.9-3.3-8.3-3.6-12.8c-1,6.8-1.5,11.5-0.9,17c0.6,5.5,1.8,12,5.3,16.3c-1.8-0.8-4-4-5.2-6.2
			c0.2,0.9,0.6,2.1,1.1,3.5c7.9,6.2,17.5,10.3,28.1,11.4c1-9.3,4.5-21.7,15.3-30.5c0,0-6.8,7.2-6.4,18c0,0,1.7-5.7,6.3-10.2
			c0,0,3.1,12.5-1.5,22.4c8.6-1.3,16.6-4.6,23.4-9.4c-2.4-5.8-12.7-7.7-15.4-13.4c-1,3,0.9,8.8,1.2,9.7c-3.9-4.5-4.6-10.8-3.9-14.3
			c0.2-1.8,2.7-7.2,5.9-8.4c3.3-1.2,3.9,0.3,3.9,0.3s-0.5,1.5,0.8,3.9c0,0,1.1,0.1,2.6-0.4c0,0,2.4,0.2,1.4,1.7c0,0,3.6,1.2,6.6-0.2
			c3.5-1.5,6.7-3.6,6.7-3.6s0,1.3-0.3,2.6c0,0,3.3-1.2,5.2-3.2c1.8-2.1,2.6-3,2.9-5.3c0,0,1.3-1.4,1.5-0.3c0,0,3.8-3.9,1.7-8.1
			c0,0,0.9-0.9,1.8-2.4C116,51.4,122.1,41.9,115.9,35.4z"/>
		<path d="M9.1,66.1c2.4,7.8,6.6,14.9,12,20.7c-3.4-6.6-5.8-15.1-2.4-23.2c0,0-2.1,0.4-3.5,1.5c0,0,1.8-16.8,12.6-22.9
			C18.6,46.4,12.7,56.1,9.1,66.1z"/>
		<path d="M80.1,39.2c-7-0.4-14.1-0.1-21,1.1c-3.9,0.7-7.8,1.7-11.6,3.1c6.9-2.2,14.4-2.9,21.6-3.1c4.3-0.1,8.7,0,13,0.3
			c-0.2,0.6-0.3,1.2-0.5,1.9c1.6-0.1,3.1,0,4.6-0.3c1.5-0.3,3-0.4,4.5-0.4c0.9,0,1.8,0,2.7,0.2c0.9,0.1,3.7,0.7,4.7,0.4
			c0.2,0,1.4-0.5,1.2-0.6C93.7,40.5,85.8,39.5,80.1,39.2z"/>
		<path d="M85.9,35.1c-1.1,0.7-1.9,1.8-2.6,2.9c0.8,0.1,1.5,0.1,2.3,0.2c0.3,0,1.8,0.2,2,0.1c0.7-0.4,1.3-1.2,7.1-0.5
			c1,0.1,2-0.1,2.9-0.1c-9.5-3.9-19.3-6.2-31.4-5c-1.6,0.2-3.1,0.3-4.6,0.7C69.7,32.5,78,33.2,85.9,35.1z"/>
		<path d="M76.5,43.6c-5.8,0.6-11.8,1.5-17.4,3.3c7.3-1.4,14.9-2.3,22.3-2.3c0,0.3,0.1,1.3,0,1.5c0,0.1-0.3,0-0.3,0.1
			c-0.5,0.2-1,0.2-1.5,0.5c-1.6,0.7-2.9,2-3.6,3.6c-0.2,0.5-0.4,1.2-0.4,1.7c0,0.5,0,0.7,0.4,0.4c0.4-0.3,0.6-0.9,1-1.2
			c1.3-1.4,3-2.5,4.9-2.9c1.5-0.3,2.9,0,4.4,0.3c0.3,0.1,3.4,0.9,3.5,0.6c0-0.2-2.5-1.4-2.8-1.6c-0.4-0.3-0.7-0.4-0.6-0.9
			c0.1-0.5,0.5-0.8,0.9-1c0.8-0.6,4.9-0.5,5.8-0.9c0.2-0.1,0.9-0.6,1-0.6C89.2,43.4,82.3,43,76.5,43.6z"/>
		<path class="st3" d="M12.5,23.7"/>
		<path d="M89.5,70.6c0,0,12.6-2.3,14.5-5.9c2-3.6,4-8.4,4.2-8.7c0.1-0.3,0.8-1.3,1.2-1.4c0.4-0.1,0.9-0.5,1.3,0.2
			c0.4,0.7,1.1,2,1.1,2.5s2.2-0.6,0,2.4c-2.2,3-2.6,4.7-4.5,6.4c-1.9,1.7-1.9,1.7-1.9,1.7s-1,1.1-2.3,1.2c-1.2,0.1-5.4,1.7-5.4,1.7"
			/>
		<path class="st2" d="M60.8,104.2c1.8,0,3.6-0.1,5.4-0.3c1.6-1.9,2.6-3.3,2.6-3.3c-7.9-7-3-26.1-2.4-28.5c0.1-0.1,0.2-0.1,0.2-0.2
			c0,0-0.1,0-0.2,0c0-0.1,0-0.1,0-0.1c-0.1,0-0.1,0.1-0.1,0.1c-2.7,0.4-20.7,3.6-27.4-4.7c-0.4,0.3-0.7,7.2,9.6,35.6
			C52.6,103.7,56.6,104.2,60.8,104.2z"/>
		<path d="M80.4,68.6c-0.2,0.1-7,10.7-1.1,15c5.9,4.4,3.3,7.8,3.3,7.8l-5.6,3c0,0-3.1-1.2-3.6-2.7c-0.5-1.6-0.8-5.4-1.2-8.7
			c-0.4-3.3,0.4-7.9,0.3-8.5c-0.1-0.6,0.7-3.1,0.7-3.1s1.5-2.6,2.1-3.8c0.6-1.2,1.4-2.3,2.8-2.3c1.4-0.1,1.7,0,2.1,0.1"/>
		<path class="st2" d="M89.5,57.6c0,0-3.8,1.9,0,5.5c3.7,3.6,0.5,6.8,0.5,6.8c9.9-0.5,16.5-2.6,18.5-8.7c2.1-6.1-2.2-7.4-2.2-7.4
			L89.5,57.6z"/>
		<path d="M103.4,53.8c0,0,4.8-0.3,5.5,2.5c0.7,2.8-1.7,11.7-12.2,12.2c-10.5,0.4-10.6-5.5-15.7-6.8c-5.2-1.2,3.9,8.4,4.3,9.4
			s2.7,2.5,5.8,2.1c3.1-0.4,11.1-1.7,11.1-1.7s3.1-1.2,4.6-2.7s3.2-2.8,3.5-4.5c0.3-1.6,0.9-2.2,0.9-3.8s0.6-2.6,0.1-3.8
			c-0.5-1.2-0.2-1.5-1-2.2c-0.8-0.7-0.7-1.2-2.1-1.6c-1.5-0.4-2.3-0.9-3-0.5"/>
		<path class="st2" d="M79,60.8c0,0,6.1,0.4,7.1,2c1,1.7,1.7,5.5,7.8,5.7c6.2,0.2,12.6-6.9,12-7.5s-2.2-1.5-3.5-2.2"/>
		<path d="M83,26.2l-4.4-2.4c0,0-1.3,0-1.5,1C77,25.8,78.4,27.2,83,26.2z"/>
		<path class="st2" d="M43.8,101.5c-7.2-18.2-16.9-48.9-7.3-63.9c-0.6,0-12.4,4.6-12.4,4.6l-4.6,5.7c-0.4,0.1-5.4,7-8,24.8
			C17.8,86.1,29.5,96.7,43.8,101.5z"/>
		<path d="M49.8,103.1c-1.9-11.1-2.1-25.9,8-31.6c0,0-11.9-1.2-17.9-4.6c-6.1-3.4-4.8-2.3-5.2-2.1c-0.3,0.1,7.3,22.2,12.7,37.7
			C48.2,102.7,49,102.9,49.8,103.1z"/>
		<path class="st1" d="M38.9,36.3c-0.4,0.3-23.9,20-17.2,53.6l-11-17.1c0,0,3.9-25.4,14.6-32.2"/>
		<path d="M82.6,23.9l-4.5-0.8L74.5,24l-0.8,2.6l3.6,0.7c0,0,0.5,1.6,2.6,0.2s1.6-1.1,1.6-1.1"/>
		<path d="M64.4,107.1l0.1-0.2c-0.3,0-0.6,0-0.9,0l0,0c-0.2,0-0.4,0-0.5,0c-0.1,0-0.2,0-0.3,0c-0.1,0-0.3,0-0.4,0
			c-0.2,0-0.3,0-0.5,0l-0.1,0c-0.1,0-0.2,0-0.2,0c-0.5,0-1,0-1.5,0l-0.1,0c-0.1,0-0.1,0-0.2,0l-0.2,0c-0.1,0-0.2,0-0.3,0l-0.1,0
			c-0.1,0-0.2,0-0.2,0l-0.2,0c-0.1,0-0.2,0-0.3,0l-0.1,0c-0.1,0-0.2,0-0.3,0l-0.2,0c-0.1,0-0.1,0-0.2,0l-0.2,0c-0.1,0-0.2,0-0.3,0
			l-0.1,0c-0.1,0-0.1,0-0.2,0l-1.5-0.1c-0.1,0-0.2,0-0.3,0l-0.3,0l0,0l-0.1,0c-0.2,0-0.4,0-0.6-0.1l-0.4-0.1c-0.3,0-0.6-0.1-0.9-0.1
			l-0.3,0c-0.2,0-0.5-0.1-0.7-0.1l-0.1,0l0,0l0,0c-0.2,0-0.4-0.1-0.6-0.1l-0.3-0.1c-0.1,0-0.3-0.1-0.4-0.1l-0.2,0
			c-0.1,0-0.2,0-0.3-0.1l-0.4-0.1c-0.2,0-0.4-0.1-0.5-0.1l-0.2,0c-0.6-0.1-1.1-0.3-1.7-0.4l-0.1,0l-0.3-0.1
			c-0.6-0.1-1.1-0.3-1.6-0.4l-0.1,0c-0.3-0.1-0.5-0.2-0.8-0.2l-0.1,0c-0.3-0.1-0.6-0.2-0.9-0.3l0,0l-0.2,0l-0.1,0
			c-0.2-0.1-0.3-0.1-0.5-0.2l-0.2-0.1c-0.2-0.1-0.3-0.1-0.5-0.2l-0.1,0c-0.1,0-0.2-0.1-0.3-0.1l-0.3-0.1c-0.2-0.1-0.4-0.1-0.6-0.2
			l-0.1-0.1c-0.6-0.2-1.2-0.5-1.7-0.7l-0.1-0.1c-0.6-0.2-1.1-0.5-1.7-0.8l-0.1-0.1c-0.3-0.1-0.5-0.2-0.8-0.4l-0.1,0
			c-0.3-0.1-0.6-0.3-0.8-0.4l-0.1,0c-0.3-0.1-0.5-0.3-0.8-0.4l-0.1-0.1c-0.3-0.2-0.6-0.3-0.8-0.5c0,0,0,0,0,0
			c-0.3-0.1-0.5-0.3-0.8-0.4L32,99.1c-0.1-0.1-0.3-0.2-0.4-0.3l0,0c-0.2-0.1-0.4-0.2-0.6-0.4l0,0c-0.2-0.1-0.3-0.2-0.5-0.3l-0.1-0.1
			c-0.2-0.1-0.4-0.2-0.6-0.4l0,0c-0.2-0.1-0.3-0.2-0.5-0.3l0,0l-0.1-0.1c-0.1-0.1-0.2-0.2-0.4-0.2L28.6,97c-0.2-0.2-0.5-0.3-0.7-0.5
			l-0.1,0c-0.2-0.2-0.5-0.4-0.8-0.5l-0.1,0c-0.2-0.2-0.5-0.3-0.7-0.5l-0.1-0.1c-1.2-0.9-2.4-1.9-3.5-2.9l-0.1-0.1
			c-0.2-0.1-0.3-0.3-0.5-0.4l0,0c-0.2-0.2-0.3-0.3-0.5-0.5l0,0c-0.2-0.2-0.3-0.3-0.5-0.5l0,0c-0.2-0.2-0.3-0.3-0.5-0.5l0,0
			c-0.2-0.2-0.3-0.3-0.5-0.5l0,0c-0.1-0.1-0.2-0.2-0.3-0.3l0,0l-0.2-0.2c-0.6-0.6-1.1-1.2-1.6-1.8L18,87.5c-0.1-0.2-0.3-0.3-0.4-0.5
			l-0.1-0.1c-0.1-0.1-0.3-0.3-0.4-0.4l-0.1-0.1c-0.1-0.2-0.2-0.3-0.4-0.5l-0.1-0.1c-0.1-0.2-0.3-0.3-0.4-0.5L16,85.1
			c-0.3-0.4-0.7-0.9-1-1.3l0,0c0,0,0,0,0,0l0,0c-0.1-0.2-0.2-0.3-0.3-0.5l-0.1-0.1c-0.1-0.2-0.2-0.3-0.4-0.5l-0.1-0.1
			c-0.1-0.2-0.2-0.3-0.4-0.5l-0.1-0.1c-0.1-0.1-0.1-0.2-0.2-0.3l0,0l-0.2-0.3c-0.1-0.2-0.2-0.3-0.3-0.5l0,0
			c-0.1-0.2-0.3-0.4-0.4-0.6l0,0c-0.3-0.5-0.6-1-0.9-1.5l0-0.1c-0.1-0.2-0.2-0.4-0.4-0.6l0-0.1c-0.1-0.2-0.2-0.4-0.3-0.6l0-0.1
			c-0.1-0.2-0.2-0.4-0.3-0.6l0,0c-0.5-0.9-1-1.9-1.4-2.8l0,0l0,0c-0.1-0.2-0.2-0.5-0.3-0.7l0-0.1c-0.1-0.2-0.2-0.4-0.3-0.7l0,0
			c-0.5-1.2-1-2.5-1.4-3.7l0-0.1c-0.1-0.2-0.2-0.5-0.2-0.7l0,0C5.3,63.7,4.4,59.5,4,55.2l0,0C4,55,4,54.7,4,54.5l0,0
			c0-0.2,0-0.5-0.1-0.7l0-0.1c0-0.2,0-0.4,0-0.7l0-0.1c0-0.2,0-0.4,0-0.6l0-0.2c0-0.2,0-0.4,0-0.5l0-0.2c0-0.1,0-0.2,0-0.2l0-0.5
			c0-0.3,0-0.5,0-0.8c0-0.3,0-0.6,0-0.9l0,0c0,0,0-0.1,0-0.1l0-0.8l0,0l0-0.7l0.5-0.7c4.7-6.1,9.2-10.3,11.8-12.5
			c-1.1-1.6-2-3.4-2.6-5.3c-1.2-3.6-1.6-7.7-1.1-12.2c0-0.1,0-0.2,0-0.3c0.1-1.3,0.4-4.3,2.9-6.2c1.8-1.4,4.4-1.8,7.5-1.2
			c1.7,0.3,5,0.7,6.6,0.7c5.8,0,9.7,1,11.7,1.7c6.2-4.3,14.4-6.8,19.7-7.4c2.5-0.2,9.1,0.2,12.2,0.9c4.4,0.9,9.6,2.7,11.1,3.2
			c1.2,0.1,4.8,0.3,8,1c3.1,0.7,5.8,2.6,7.5,3.8c0.5,0.4,1.1,0.8,1.4,0.9c2.1,1,5.2,4,6,5c0.9,1.1,1.1,2.6,1,3.9
			c4.9,2.7,8.4,7.1,9.1,8c1.1,1.1,1.5,2.5,1.5,3.8c2.5,3.2,3.3,7.3,2.2,11.9c-0.9,3.7-2.8,6.8-3.4,7.8l-0.1,0.1
			c-0.2,0.4-0.4,0.7-0.7,1c0.4,3.5-0.6,8.5-5.8,14.3c-3.9,4.4-10,7-16.6,7.2c-0.3,0-0.5,0-0.8,0c-4.7,0-9.1-1.3-12.6-3.6
			c-1.2,2.7-2,6-0.6,7.6c0.1,0.1,0.2,0.2,0.2,0.3c0.1,0.1,0.2,0.2,0.3,0.3c0.6,0.4,1.2,0.9,1.7,1.4c1,0.7,2.2,1.4,3.5,2.2
			c3.6,2.1,7.3,4.4,8.9,8.2l0.9,2L94,96.5c-7.3,5.2-15.8,8.6-24.6,9.9L64.4,107.1z M60.1,101.4c0.5,0,0.9,0,1.4,0l0.3,0
			c0.1,0,0.3,0,0.4,0c0.1,0,0.3,0,0.4,0c0.1,0,0.2,0,0.3,0c0.2,0,0.3,0,0.5,0l0,0c1.7-0.1,3.5-0.3,5.2-0.5l0.5-0.1
			c6.9-1.1,13.5-3.6,19.4-7.3c-1.3-1.3-3.4-2.5-5.3-3.7c-1.3-0.8-2.7-1.6-4-2.5L79,87.1l-0.1-0.1c-0.4-0.3-0.8-0.7-1.3-1.1
			c-0.3-0.2-0.6-0.5-0.9-0.8l0,0c-0.2-0.2-0.3-0.4-0.5-0.5l0-0.1c-2.6-3.2-2.2-7.4-1.3-10.3c1-3.3,2.7-6.1,3-6.6l1.9-2.9l2.4,2.4
			c2.9,2.9,7.3,4.4,12.1,4.3c5-0.1,9.7-2.1,12.6-5.3c4.4-4.9,4.8-8.5,4.3-10.8l-0.3-1.3l0.8-1c0.4-0.4,0.7-0.9,1-1.4l0.1-0.2
			c0.5-0.8,2.1-3.3,2.7-6.2c0.8-3.2,0.2-5.8-1.6-7.7l-1.1-1.1l0.4-1.4c0-0.1,0-0.3,0-0.4l-0.1-0.1l-0.2-0.2c0,0-4-5.2-8.9-7.4
			l-2.2-0.9l0.5-2.3c0.1-0.5,0.2-1.2,0.2-1.6c-0.9-0.9-3-2.8-3.9-3.3c-0.7-0.3-1.4-0.8-2.2-1.4c-1.5-1-3.5-2.5-5.6-3
			c-3.4-0.8-7.3-0.9-7.4-0.9l-0.5,0l-0.4-0.2c-0.1,0-6-2.2-10.7-3.2c-2.7-0.6-8.7-0.9-10.5-0.8c-4.1,0.4-12.3,2.6-18.2,7.2l-1.4,1.1
			l-1.5-0.8c-0.2-0.1-3.7-1.7-10.9-1.7c-2.1,0-5.8-0.5-7.6-0.8c-2.1-0.4-2.9,0-3.1,0.2c-0.5,0.4-0.6,1.6-0.7,2.2c0,0.2,0,0.3,0,0.4
			c-1,8.8,2.2,13.4,4.1,15.4l2.3,2.3l-2.7,1.9c-0.1,0-6,4.3-12.4,12.5c0,0.2,0,0.4,0,0.6c0,0.2,0,0.5,0,0.7l0,0.5c0,0.1,0,0.1,0,0.2
			l0,0.2c0,0.2,0,0.3,0,0.5l0,0.2c0,0.2,0,0.4,0,0.6l0,0.1c0,0.2,0,0.4,0,0.6l0,0.1c0,0.2,0,0.4,0,0.6l0,0c0,0.2,0,0.4,0.1,0.7
			c0,0,0,0,0,0c0.4,3.8,1.1,7.6,2.3,11.3l0,0c0.1,0.2,0.1,0.4,0.2,0.7l0,0.1c0.4,1.1,0.8,2.2,1.3,3.3l0,0c0.1,0.2,0.2,0.4,0.3,0.6
			l0,0c0.1,0.2,0.2,0.4,0.3,0.6l0,0c0.4,0.9,0.8,1.7,1.3,2.6c0,0,0,0,0,0c0.1,0.2,0.2,0.4,0.3,0.6l0,0.1c0.1,0.2,0.2,0.4,0.3,0.5
			l0,0.1c0.1,0.2,0.2,0.4,0.3,0.5l0,0.1c0.3,0.5,0.5,0.9,0.8,1.4l0,0c0.1,0.2,0.2,0.4,0.3,0.5l0,0c0.1,0.1,0.1,0.2,0.2,0.3l0,0
			l0.2,0.3c0.1,0.1,0.2,0.3,0.3,0.4l0.1,0.1c0.1,0.2,0.2,0.3,0.3,0.5l0.1,0.1c0.1,0.2,0.2,0.3,0.3,0.5l0.1,0.1
			c0.1,0.1,0.2,0.3,0.3,0.4l0.1,0.1c0.3,0.4,0.6,0.8,0.9,1.2l0.1,0.1c0.1,0.2,0.2,0.3,0.4,0.5l0.1,0.1c0.1,0.1,0.2,0.3,0.3,0.4
			l0.1,0.1c0.1,0.1,0.2,0.3,0.3,0.4l0.1,0.1c0.1,0.1,0.3,0.3,0.4,0.4l0.1,0.1c0.4,0.5,0.9,1,1.4,1.5l0.1,0.1
			c0.1,0.2,0.3,0.3,0.4,0.5l0,0c0.1,0.1,0.3,0.3,0.4,0.4l0,0c0.1,0.1,0.3,0.3,0.4,0.4l0,0c0.1,0.1,0.3,0.3,0.4,0.4l0,0
			c0.2,0.1,0.3,0.3,0.5,0.4l0,0c0.2,0.2,0.3,0.3,0.5,0.4l0.1,0.1c1,0.9,2,1.7,3.1,2.6l0.1,0.1c0.2,0.2,0.4,0.3,0.6,0.5l0.1,0
			c0.2,0.2,0.5,0.3,0.7,0.5l0,0c0.2,0.2,0.4,0.3,0.7,0.5l0.1,0.1c0.1,0.1,0.2,0.1,0.3,0.2l0,0c0.2,0.1,0.4,0.2,0.5,0.4l0,0
			c0.2,0.1,0.3,0.2,0.5,0.3l0.1,0.1c0.2,0.1,0.3,0.2,0.5,0.3l0,0c0.2,0.1,0.4,0.2,0.5,0.3l0,0c0.1,0.1,0.3,0.2,0.4,0.2l0.1,0.1
			c0.2,0.1,0.5,0.3,0.7,0.4l0,0c0.2,0.1,0.5,0.3,0.7,0.4l0.1,0c0.2,0.1,0.5,0.2,0.7,0.4l0.1,0c0.3,0.1,0.5,0.3,0.8,0.4l0.1,0
			c0.2,0.1,0.5,0.2,0.7,0.3l0.1,0.1c0.5,0.2,1,0.5,1.5,0.7l0.1,0.1c0.5,0.2,1,0.4,1.6,0.6l0.1,0.1c0.2,0.1,0.3,0.1,0.5,0.2l0.3,0.1
			c0.1,0,0.2,0.1,0.3,0.1l0.1,0c0,0,0,0,0,0c0.1,0,0.3,0.1,0.4,0.1l0.2,0.1c0.2,0.1,0.3,0.1,0.5,0.2l0.2,0l0.1,0
			c0.2,0.1,0.5,0.2,0.7,0.2l0.1,0c0.3,0.1,0.5,0.2,0.7,0.2l0.1,0c0.4,0.1,0.8,0.2,1.2,0.3h0l0.5,0.1c0.5,0.1,1.1,0.3,1.6,0.4l0.2,0
			c0.2,0,0.3,0.1,0.5,0.1l0.4,0.1c0.1,0,0.2,0,0.3,0.1l0.2,0c0.1,0,0.3,0,0.4,0.1l0.3,0.1c0.2,0,0.4,0.1,0.6,0.1l0,0l0,0l0.1,0
			c0.2,0,0.4,0.1,0.6,0.1l0.3,0c0.3,0,0.5,0.1,0.8,0.1l0.4,0c0.2,0,0.4,0,0.5,0.1l0.4,0c0.1,0,0.2,0,0.2,0l0.9,0.1l0.7,0
			c0.1,0,0.2,0,0.3,0l0.8,0c0.1,0,0.1,0,0.2,0l0.2,0c0.1,0,0.1,0,0.2,0l0.1,0c0.1,0,0.2,0,0.3,0L60.1,101.4L60.1,101.4z"/>
		<path d="M66.4,69.8c0,0-8.3,33.3,7,32.7c12.2-0.5,7.4-17.6,7.4-17.6l-6.2-14.3"/>
	</g>
</g>
</svg>
