<?xml version="1.0" encoding="utf-8"?>
<!-- Generator: Adobe Illustrator 21.0.2, SVG Export Plug-In . SVG Version: 6.00 Build 0)  -->
<svg version="1.1" id="Layer_1" xmlns="http://www.w3.org/2000/svg" xmlns:xlink="http://www.w3.org/1999/xlink" x="0px" y="0px"
	 viewBox="0 0 266.8 168.4" style="enable-background:new 0 0 266.8 168.4;" xml:space="preserve">
<style type="text/css">
	.st0{fill:#077448;}
	.st1{fill:#FFFFFF;}
	.st2{fill:#C7C8CA;}
	.st3{stroke:#000000;stroke-width:7;stroke-miterlimit:10;}
	.st4{fill:#2B6A7D;}
	.st5{fill:#219A61;}
	.st6{fill:none;stroke:#C7C8CA;stroke-width:2;stroke-miterlimit:10;}
	.st7{fill:none;stroke:#C7C8CA;stroke-miterlimit:10;}
</style>
<g>
	<ellipse transform="matrix(3.899970e-03 -1 1 3.899970e-03 62.211 203.6562)" cx="133.3" cy="70.6" rx="66.1" ry="66"/>
	<path d="M143.6,137.3c-3.4,0.5-6.9,0.8-10.5,0.8c-18-0.1-34.9-7.2-47.6-20c-12.7-12.8-19.6-29.8-19.6-47.8c0.1-18,7.2-35,19.9-47.7
		C98.6,10,115.6,3,133.6,3.1c37.2,0.1,67.3,30.6,67.2,67.8C200.7,104.5,175.8,132.4,143.6,137.3z M123.4,6.7
		c-13.4,2.1-25.8,8.3-35.6,18c-12.3,12.2-19,28.4-19.1,45.7s6.6,33.5,18.7,45.8s28.4,19.1,45.6,19.1c35.6,0.1,64.7-28.8,64.9-64.4
		c0.1-35.7-28.7-64.8-64.4-64.9C130.1,5.9,126.7,6.2,123.4,6.7z"/>
</g>
<ellipse transform="matrix(3.899970e-03 -1 1 3.899970e-03 62.2108 203.6559)" cx="133.3" cy="70.6" rx="66.1" ry="66"/>
<ellipse transform="matrix(3.899970e-03 -1 1 3.899970e-03 62.1205 203.7142)" class="st0" cx="133.3" cy="70.7" rx="62.3" ry="62.3"/>
<path class="st1" d="M182.1,59l1.8-0.2l0.4,4l-0.8,0.1l-0.3,0.4l0.5,5.1l0.4,0.3l1.7-0.2l0.2-0.3l-0.8-7.7l1.5-1.9l3.7-0.4l2.2,1.8
	l1,9.7l-1.7,2.1l-1.8,0.2l-0.4-4l0.8-0.1l0.3-0.4l-0.5-5l-0.4-0.3l-1.6,0.2l-0.2,0.3l0.8,7.7l-1.5,1.9l-3.8,0.4l-2.2-1.8l-1-9.9
	L182.1,59z"/>
<ellipse transform="matrix(0.1552 -0.9879 0.9879 0.1552 43.3173 191.7558)" cx="133.8" cy="70.6" rx="45.2" ry="45.2"/>
<ellipse transform="matrix(0.1552 -0.9879 0.9879 0.1552 43.3173 191.7558)" class="st0" cx="133.8" cy="70.6" rx="38.1" ry="38.1"/>
<g>
	<path class="st1" d="M103.5,46.6c-0.1,0.5,2.2,8.9,2.2,8.9l-5.2,3.8c0,0-4.9,3.9-5.4,3.7c-0.5-0.3-0.2-0.6,0.4-2.2
		c0.6-1.6,1.7-3.2,1.7-3.8"/>
	<g>
		<g>
			<polyline class="st1" points="99.3,52.9 170,59 96.7,57.3 			"/>
			<polygon class="st1" points="158.6,98.7 104.1,92.8 114.6,102.7 			"/>
		</g>
		<g>
			<polyline class="st1" points="121.5,33.2 154.2,38.6 112.9,37.3 			"/>
			<polyline class="st1" points="113.2,36.6 161.5,44.3 107.4,42.2 			"/>
		</g>
		<polygon class="st1" points="163.3,94 100.2,84.4 103.7,93 		"/>
	</g>
</g>
<g>
	<path class="st1" d="M171.9,66.7c0,0,0.5-1.2-0.2-2c0,0-2.3-4.4-5.9-6.6c0,0,0.8-1.8,0.3-2.5c-0.4-0.7-2.1-2.8-3-3.4
		c-0.9-0.6-2.7-2.9-5.1-3.9c-2.4-1-5.2-1.5-5.2-1.5s-3.9-2.2-7.1-3.4c-1.9-0.7-6.2-1.7-7.6-1.7c-3.3-0.2-9.3,0.6-14,3.2
		c0,0-2.4-1.7-8-2.6c-1.3-0.2-3.6-0.9-4.7-1.3c-4.6-1.6-5.1,1.8-5.4,2.8c-1.6,5.9-0.3,10,1.5,12.4c0,0-4.9,2.4-10.6,7.9
		c0,0.1,0,0.3-0.1,0.4l0,0c0,0,0,0.1,0,0.1c0,0.2-0.1,0.4-0.1,0.5c0,0.2-0.1,0.3-0.1,0.5c0,0,0,0.1,0,0.1c0,0,0,0,0,0
		c0,0,0,0.1,0,0.1c0,0.1,0,0.1,0,0.2c0,0,0,0.1,0,0.1c0,0.1,0,0.2,0,0.3l0,0l0,0c0,0,0,0,0,0c0,0,0,0.1,0,0.1c0,0.1,0,0.3,0,0.4
		c0,0,0,0.1,0,0.1c0,0.1,0,0.3,0,0.4c0,0,0,0,0,0.1c0,0.2,0,0.3,0,0.5c0,0,0,0,0,0c0,0.2,0,0.3,0,0.5c0,0,0,0,0,0
		c-0.2,2.8,0,5.6,0.4,8.3c0,0,0,0,0,0c0,0.2,0.1,0.3,0.1,0.5c0,0,0,0,0,0c0.2,0.9,0.3,1.7,0.5,2.5c0,0,0,0,0,0
		c0,0.2,0.1,0.3,0.1,0.5c0,0,0,0,0,0c0,0.2,0.1,0.3,0.1,0.5c0,0,0,0,0,0c0.2,0.7,0.4,1.3,0.6,2c0,0,0,0,0,0c0.1,0.2,0.1,0.3,0.2,0.5
		c0,0,0,0,0,0.1c0.1,0.1,0.1,0.3,0.2,0.4c0,0,0,0,0,0.1c0.1,0.1,0.1,0.3,0.2,0.4c0,0,0,0,0,0c0.1,0.4,0.3,0.7,0.4,1.1c0,0,0,0,0,0
		c0.1,0.1,0.1,0.3,0.2,0.4c0,0,0,0,0,0c0.1,0.1,0.1,0.2,0.2,0.3c0,0,0,0,0,0.1v0c0,0,0,0,0,0c0.1,0.1,0.1,0.2,0.2,0.3
		c0,0,0,0.1,0,0.1c0.1,0.1,0.1,0.2,0.2,0.4c0,0,0,0.1,0,0.1c0.1,0.1,0.1,0.2,0.2,0.4c0,0,0,0,0,0c0,0,0,0,0,0.1
		c0.1,0.1,0.1,0.2,0.2,0.4c0,0,0,0,0,0c0.2,0.3,0.3,0.6,0.5,1c0,0,0,0,0,0.1c0.1,0.1,0.1,0.2,0.2,0.4c0,0,0,0.1,0.1,0.1
		c0.1,0.1,0.1,0.2,0.2,0.3c0,0,0,0.1,0.1,0.1c0.1,0.1,0.1,0.2,0.2,0.3c0,0,0,0.1,0.1,0.1c0.1,0.1,0.1,0.2,0.2,0.3c0,0,0,0,0,0.1
		c0.3,0.4,0.6,0.9,0.9,1.3l0,0c0.1,0.1,0.2,0.3,0.3,0.4c0,0,0,0,0,0c0.1,0.1,0.2,0.2,0.3,0.4c0,0,0,0,0,0c0.1,0.1,0.2,0.2,0.3,0.4
		c0,0,0,0,0,0c0.1,0.1,0.2,0.2,0.3,0.4c0,0,0,0,0,0c0.1,0.1,0.2,0.2,0.3,0.4c0,0,0,0,0,0c0.1,0.1,0.2,0.2,0.3,0.4l0,0
		c0.6,0.8,1.3,1.5,1.9,2.2c0,0,0,0,0.1,0.1c0.1,0.1,0.3,0.3,0.4,0.4c0,0,0,0,0,0c0.1,0.1,0.3,0.3,0.4,0.4c0,0,0,0,0,0
		c0.1,0.1,0.3,0.3,0.4,0.4c0,0,0,0,0.1,0.1c0.1,0.1,0.1,0.1,0.2,0.2l0,0c0.1,0.1,0.2,0.2,0.3,0.3c0,0,0,0,0,0
		c0.1,0.1,0.2,0.2,0.3,0.3c0,0,0,0,0.1,0.1c0.1,0.1,0.2,0.2,0.3,0.3c0,0,0,0,0,0c0.1,0.1,0.2,0.2,0.4,0.3c0,0,0,0,0,0
		c0.1,0.1,0.2,0.1,0.3,0.2c0,0,0,0,0.1,0.1c0.2,0.1,0.3,0.2,0.5,0.4c0,0,0,0,0,0c0.2,0.1,0.3,0.3,0.5,0.4c0,0,0,0,0.1,0
		c0.1,0.1,0.3,0.2,0.4,0.3c0,0,0,0,0,0c0.2,0.1,0.3,0.2,0.5,0.4c0,0,0,0,0,0c0.2,0.1,0.3,0.2,0.5,0.3c0,0,0,0,0.1,0.1
		c0.3,0.2,0.7,0.4,1,0.7c0,0,0.1,0,0.1,0.1c0.3,0.2,0.7,0.4,1,0.6c0,0,0.1,0,0.1,0c0.1,0.1,0.2,0.1,0.4,0.2c0,0,0,0,0,0
		c0,0,0.1,0.1,0.1,0.1c0,0,0,0,0,0c0.1,0,0.2,0.1,0.2,0.1c0,0,0,0,0,0c0.1,0.1,0.2,0.1,0.3,0.2c0,0,0.1,0,0.1,0c0,0,0,0,0.1,0
		c0,0,0,0,0,0c0.1,0.1,0.3,0.1,0.4,0.2l0,0l0,0c0,0,0,0,0,0c0,0,0,0,0.1,0c0.2,0.1,0.4,0.2,0.6,0.3c0,0,0,0,0.1,0
		c0.2,0.1,0.3,0.2,0.5,0.2c0,0,0.1,0,0.1,0c0.4,0.2,0.7,0.3,1.1,0.5l0,0h0c0,0,0,0,0,0c0,0,0.1,0,0.1,0c0.4,0.2,0.7,0.3,1.1,0.4
		c0,0,0,0,0,0c0,0,0.1,0,0.1,0c0.1,0,0.2,0.1,0.3,0.1c0,0,0.1,0,0.1,0c0,0,0.1,0,0.1,0c0,0,0,0,0,0c0.1,0,0.2,0.1,0.2,0.1
		c0,0,0.1,0,0.1,0c0.1,0,0.2,0.1,0.3,0.1c0,0,0.1,0,0.1,0c0,0,0,0,0,0c0,0,0.1,0,0.1,0c0.1,0,0.3,0.1,0.4,0.1c0,0,0,0,0,0
		c0,0,0,0,0.1,0c0.1,0,0.3,0.1,0.4,0.1c0,0,0,0,0,0c0,0,0.1,0,0.1,0c0,0,0,0,0.1,0c0.2,0.1,0.4,0.1,0.5,0.2c0,0,0.1,0,0.1,0
		c0.1,0,0.1,0,0.2,0c0,0,0,0,0,0c0.1,0,0.2,0.1,0.4,0.1c0,0,0,0,0,0c0,0,0,0,0.1,0l0,0l0,0c0,0,0,0,0,0c0,0,0.1,0,0.1,0
		c0.1,0,0.1,0,0.2,0.1c0,0,0,0,0,0c0,0,0.1,0,0.1,0c0.1,0,0.1,0,0.2,0c0.1,0,0.1,0,0.1,0c0,0,0,0,0,0c0,0,0.1,0,0.1,0
		c0.1,0,0.1,0,0.2,0c0,0,0.1,0,0.1,0c0,0,0,0,0.1,0c0.1,0,0.1,0,0.2,0c0.1,0,0.1,0,0.2,0c0,0,0,0,0,0c0,0,0.1,0,0.1,0
		c0.1,0,0.1,0,0.2,0s0.1,0,0.2,0c0,0,0.1,0,0.1,0c0.1,0,0.2,0,0.2,0c0.1,0,0.1,0,0.2,0c0,0,0,0,0.1,0c0.1,0,0.2,0,0.3,0.1
		c0.1,0,0.1,0,0.2,0c0,0,0,0,0,0c0.2,0,0.3,0.1,0.5,0.1c0.2,0,0.3,0.1,0.5,0.1c0.1,0,0.1,0,0.2,0c0.1,0,0.2,0,0.3,0
		c0.1,0,0.2,0,0.3,0c0.1,0,0.1,0,0.2,0c0.1,0,0.2,0,0.4,0c0,0,0,0,0,0c1.2,0.1,2.5,0.2,3.7,0.2l0,0c5.9,0,11.7-1.4,16.7-3.9
		c-0.7-3-4.4-5-6.9-7.5c-0.2-0.3-0.5-0.7-0.9-1c-0.1-0.1-0.3-0.3-0.4-0.4c-0.1-0.1-0.2-0.2-0.2-0.3c-1.9-3.2,1.8-8,2.7-9
		c4.2,5.7,14,6.8,19.5,2.2c4.1-3.4,4.8-6.5,4.7-8.4c0.3-0.2,0.6-0.6,1-1C170.3,77.5,175.4,71.7,171.9,66.7z"/>
	<path class="st1" d="M129.7,109.6l0.1-0.1c-0.2,0-0.4,0-0.6-0.1l0,0c-0.1,0-0.2,0-0.4,0c-0.1,0-0.1,0-0.2,0c-0.1,0-0.2,0-0.3,0
		c-0.1,0-0.2,0-0.3,0l-0.1,0c-0.1,0-0.1,0-0.2,0c-0.3-0.1-0.7-0.1-1-0.2l0,0c0,0-0.1,0-0.1,0l-0.1,0c-0.1,0-0.2,0-0.2,0l-0.1,0
		c0,0-0.1,0-0.2,0l-0.1,0c-0.1,0-0.1,0-0.2,0l-0.1,0c-0.1,0-0.1,0-0.2,0l-0.1,0c0,0-0.1,0-0.1,0l-0.1,0c-0.1,0-0.1,0-0.2,0l-0.1,0
		c0,0-0.1,0-0.1,0l-1-0.2c-0.1,0-0.1,0-0.2,0l-0.2-0.1l0,0l-0.1,0c-0.1,0-0.3-0.1-0.4-0.1l-0.3-0.1c-0.2-0.1-0.4-0.1-0.6-0.2
		l-0.2-0.1c-0.2,0-0.3-0.1-0.5-0.1l-0.1,0h0l0,0c-0.1,0-0.3-0.1-0.4-0.1l-0.2-0.1c-0.1,0-0.2-0.1-0.3-0.1l-0.1,0
		c-0.1,0-0.1-0.1-0.2-0.1l-0.3-0.1c-0.1,0-0.2-0.1-0.4-0.1l-0.1-0.1c-0.4-0.1-0.7-0.3-1.1-0.4l-0.1,0l-0.2-0.1
		c-0.4-0.2-0.7-0.3-1.1-0.5l-0.1,0c-0.2-0.1-0.4-0.2-0.5-0.3l-0.1,0c-0.2-0.1-0.4-0.2-0.6-0.3l0,0l-0.1-0.1l-0.1,0
		c-0.1-0.1-0.2-0.1-0.3-0.2l-0.1-0.1c-0.1-0.1-0.2-0.1-0.3-0.2l-0.1,0c-0.1,0-0.1-0.1-0.2-0.1l-0.2-0.1c-0.1-0.1-0.2-0.1-0.4-0.2
		l-0.1-0.1c-0.4-0.2-0.7-0.4-1.1-0.7l-0.1-0.1c-0.4-0.2-0.7-0.5-1.1-0.7l-0.1-0.1c-0.2-0.1-0.3-0.2-0.5-0.3l0,0
		c-0.2-0.1-0.3-0.2-0.5-0.4l-0.1,0c-0.2-0.1-0.3-0.2-0.5-0.4l-0.1,0c-0.2-0.1-0.3-0.3-0.5-0.4c0,0,0,0,0,0c-0.2-0.1-0.3-0.3-0.5-0.4
		l-0.1-0.1c-0.1-0.1-0.2-0.1-0.3-0.2l0,0c-0.1-0.1-0.2-0.2-0.4-0.3l0,0c-0.1-0.1-0.2-0.2-0.3-0.3l-0.1-0.1c-0.1-0.1-0.2-0.2-0.3-0.3
		l0,0c-0.1-0.1-0.2-0.2-0.3-0.2l0,0l-0.1-0.1c-0.1-0.1-0.1-0.1-0.2-0.2l-0.1-0.1c-0.1-0.1-0.3-0.3-0.4-0.4l0,0
		c-0.2-0.1-0.3-0.3-0.5-0.4l0,0c-0.1-0.1-0.3-0.3-0.4-0.4l-0.1-0.1c-0.7-0.7-1.4-1.5-2-2.3l0,0c-0.1-0.1-0.2-0.2-0.3-0.3l0,0
		c-0.1-0.1-0.2-0.3-0.3-0.4l0,0c-0.1-0.1-0.2-0.2-0.3-0.4l0,0c-0.1-0.1-0.2-0.2-0.3-0.4l0,0c-0.1-0.1-0.2-0.3-0.3-0.4l0,0
		c-0.1-0.1-0.1-0.1-0.2-0.2l0,0l-0.1-0.2c-0.3-0.4-0.6-0.9-0.9-1.3l0-0.1c-0.1-0.1-0.2-0.2-0.2-0.4l-0.1-0.1
		c-0.1-0.1-0.1-0.2-0.2-0.3l-0.1-0.1c-0.1-0.1-0.1-0.2-0.2-0.3l-0.1-0.1c-0.1-0.1-0.1-0.3-0.2-0.4l0-0.1c-0.2-0.3-0.4-0.7-0.5-1l0,0
		c0,0,0,0,0,0l0,0c-0.1-0.1-0.1-0.2-0.2-0.4l0-0.1c-0.1-0.1-0.1-0.3-0.2-0.4l0-0.1c-0.1-0.1-0.1-0.3-0.2-0.4l0-0.1
		c0-0.1-0.1-0.2-0.1-0.2l0,0l-0.1-0.2c-0.1-0.1-0.1-0.2-0.2-0.4l0,0c-0.1-0.1-0.1-0.3-0.2-0.4l0,0c-0.2-0.4-0.3-0.8-0.5-1.1l0,0
		c-0.1-0.2-0.1-0.3-0.2-0.4l0-0.1c-0.1-0.1-0.1-0.3-0.2-0.4l0-0.1c-0.1-0.2-0.1-0.3-0.2-0.5l0,0c-0.2-0.7-0.5-1.4-0.6-2.1l0,0l0,0
		c0-0.2-0.1-0.3-0.1-0.5l0,0c0-0.2-0.1-0.3-0.1-0.5l0,0c-0.2-0.9-0.4-1.8-0.6-2.6l0-0.1c0-0.2-0.1-0.3-0.1-0.5l0,0
		c-0.5-2.9-0.6-5.8-0.4-8.7l0,0c0-0.2,0-0.3,0-0.5l0,0c0-0.2,0-0.3,0-0.5l0-0.1c0-0.1,0-0.3,0-0.5l0-0.1c0-0.1,0-0.3,0-0.4l0-0.1
		c0-0.1,0-0.2,0-0.4l0-0.1c0-0.1,0-0.1,0-0.2l0.1-0.4c0-0.2,0.1-0.3,0.1-0.5c0-0.2,0.1-0.4,0.1-0.6l0,0c0,0,0-0.1,0-0.1l0.1-0.5l0,0
		l0.1-0.4l0.4-0.4c3.8-3.6,7.3-6,9.3-7.2c-0.6-1.2-1-2.5-1.2-3.9c-0.4-2.6-0.2-5.4,0.6-8.3c0-0.1,0-0.1,0-0.2
		c0.2-0.9,0.7-2.9,2.6-3.9c1.4-0.7,3.1-0.8,5.2,0c1.1,0.4,3.3,1,4.4,1.2c3.9,0.6,6.4,1.7,7.7,2.3c4.7-2.3,10.5-3.1,14.1-2.9
		c1.7,0.1,6.1,1.1,8.1,1.8c2.9,1.1,6.2,2.8,7.1,3.3c0.8,0.2,3.2,0.7,5.3,1.5c2,0.8,3.6,2.4,4.7,3.4c0.3,0.3,0.7,0.7,0.8,0.8
		c1.3,0.9,3.1,3.3,3.5,4c0.5,0.8,0.4,1.8,0.3,2.7c3,2.3,4.9,5.6,5.3,6.4c0.6,0.9,0.7,1.8,0.6,2.7c1.4,2.4,1.5,5.3,0.2,8.3
		c-1,2.4-2.6,4.3-3.1,4.9l-0.1,0.1c-0.2,0.2-0.4,0.4-0.6,0.6c-0.1,2.4-1.3,5.7-5.4,9.1c-3.1,2.5-7.5,3.7-11.9,3.1
		c-0.2,0-0.3,0-0.5-0.1c-3.2-0.5-6-1.8-8.1-3.8c-1.1,1.7-2,3.8-1.2,5.1c0,0.1,0.1,0.1,0.1,0.2c0.1,0.1,0.1,0.2,0.2,0.2
		c0.4,0.4,0.7,0.7,1,1.1c0.6,0.6,1.4,1.2,2.1,1.8c2.2,1.8,4.5,3.7,5.2,6.4l0.4,1.5l-1.4,0.7c-5.4,2.7-11.5,4.1-17.6,4.1L129.7,109.6
		z M127.4,105.4c0.3,0.1,0.6,0.1,1,0.1l0.2,0c0.1,0,0.2,0,0.3,0c0.1,0,0.2,0,0.3,0c0.1,0,0.1,0,0.2,0c0.1,0,0.2,0,0.3,0l0,0
		c1.2,0.1,2.4,0.2,3.5,0.2l0.4,0c4.7,0,9.5-1,13.9-2.9c-0.8-1-2-2.1-3.2-3.1c-0.8-0.7-1.7-1.4-2.4-2.1l-0.1-0.1l-0.1-0.1
		c-0.2-0.3-0.5-0.6-0.7-0.8c-0.2-0.2-0.4-0.4-0.5-0.6l0,0c-0.1-0.1-0.2-0.3-0.3-0.4l0,0c-1.4-2.4-0.7-5.2,0.2-7.1
		c1-2.2,2.5-3.8,2.7-4.2l1.6-1.8l1.4,1.9c1.6,2.2,4.5,3.8,7.7,4.2c3.4,0.4,6.8-0.4,9.1-2.3c3.5-2.8,4.1-5.3,4-6.8l0-0.9l0.7-0.6
		c0.3-0.3,0.6-0.6,0.8-0.9l0.1-0.1c0.4-0.5,1.7-2,2.5-3.9c0.9-2.1,0.8-3.9-0.3-5.4l-0.6-0.9l0.4-0.9c0-0.1,0-0.2,0-0.2l-0.1-0.1
		l-0.1-0.2c0,0-2.1-4-5.3-5.9l-1.4-0.8l0.6-1.5c0.1-0.3,0.3-0.8,0.3-1.1c-0.5-0.7-1.7-2.2-2.3-2.6c-0.4-0.3-0.8-0.7-1.3-1.2
		c-0.9-0.9-2.1-2-3.5-2.6c-2.2-0.9-4.8-1.4-4.9-1.4l-0.3-0.1l-0.3-0.2c0,0-3.8-2.1-6.9-3.2c-1.8-0.7-5.8-1.5-7-1.6
		c-2.8-0.2-8.6,0.5-13,2.9l-1.1,0.6l-0.9-0.7c-0.2-0.1-2.3-1.5-7.1-2.3c-1.4-0.2-3.9-0.9-5-1.3c-1.4-0.5-1.9-0.3-2.1-0.2
		c-0.4,0.2-0.6,1-0.7,1.4c0,0.1,0,0.2-0.1,0.3c-1.6,5.8,0.1,9.3,1.2,10.8l1.3,1.8l-2,1c0,0-4.5,2.3-9.7,7.1c0,0.1,0,0.3-0.1,0.4
		c0,0.2,0,0.3-0.1,0.5l0,0.3c0,0,0,0.1,0,0.1l0,0.1c0,0.1,0,0.2,0,0.3l0,0.1c0,0.1,0,0.3,0,0.4l0,0.1c0,0.1,0,0.3,0,0.4l0,0.1
		c0,0.1,0,0.3,0,0.4l0,0c0,0.2,0,0.3,0,0.5c0,0,0,0,0,0c-0.2,2.6,0,5.3,0.4,7.9l0,0c0,0.2,0.1,0.3,0.1,0.5l0,0
		c0.1,0.8,0.3,1.6,0.5,2.4l0,0c0,0.2,0.1,0.3,0.1,0.4l0,0c0,0.2,0.1,0.3,0.1,0.5l0,0c0.2,0.6,0.4,1.2,0.6,1.9c0,0,0,0,0,0
		c0,0.1,0.1,0.3,0.1,0.4l0,0.1c0,0.1,0.1,0.3,0.1,0.4l0,0.1c0.1,0.1,0.1,0.3,0.2,0.4l0,0c0.1,0.3,0.3,0.7,0.4,1l0,0
		c0.1,0.1,0.1,0.3,0.2,0.4l0,0c0,0.1,0.1,0.1,0.1,0.2l0,0l0.1,0.2c0,0.1,0.1,0.2,0.2,0.3l0,0.1c0.1,0.1,0.1,0.2,0.2,0.3l0,0.1
		c0.1,0.1,0.1,0.2,0.2,0.3l0,0.1c0.1,0.1,0.1,0.2,0.2,0.3l0,0.1c0.2,0.3,0.3,0.6,0.5,0.9l0,0.1c0.1,0.1,0.1,0.2,0.2,0.3l0.1,0.1
		c0.1,0.1,0.1,0.2,0.2,0.3l0.1,0.1c0.1,0.1,0.1,0.2,0.2,0.3l0.1,0.1c0.1,0.1,0.1,0.2,0.2,0.3l0,0.1c0.2,0.4,0.5,0.8,0.8,1.2l0,0.1
		c0.1,0.1,0.2,0.2,0.3,0.4l0,0c0.1,0.1,0.2,0.2,0.2,0.3l0,0c0.1,0.1,0.2,0.2,0.3,0.3l0,0c0.1,0.1,0.2,0.2,0.3,0.3l0,0
		c0.1,0.1,0.2,0.2,0.3,0.3l0,0c0.1,0.1,0.2,0.2,0.3,0.3l0,0c0.6,0.7,1.2,1.4,1.8,2l0,0.1c0.1,0.1,0.2,0.3,0.4,0.4l0,0
		c0.1,0.1,0.3,0.3,0.4,0.4l0,0c0.1,0.1,0.3,0.3,0.4,0.4l0.1,0.1c0.1,0.1,0.1,0.1,0.2,0.2l0,0c0.1,0.1,0.2,0.2,0.3,0.3l0,0
		c0.1,0.1,0.2,0.2,0.3,0.3l0.1,0.1c0.1,0.1,0.2,0.2,0.3,0.2l0,0c0.1,0.1,0.2,0.2,0.3,0.3l0,0c0.1,0.1,0.2,0.1,0.2,0.2l0.1,0.1
		c0.1,0.1,0.3,0.2,0.4,0.3l0,0c0.2,0.1,0.3,0.2,0.5,0.4l0.1,0c0.1,0.1,0.3,0.2,0.4,0.3l0,0c0.2,0.1,0.3,0.2,0.5,0.3l0,0
		c0.1,0.1,0.3,0.2,0.4,0.3l0.1,0.1c0.3,0.2,0.6,0.4,1,0.6l0.1,0c0.3,0.2,0.7,0.4,1,0.6l0.1,0c0.1,0.1,0.2,0.1,0.3,0.2l0.2,0.1
		c0.1,0,0.1,0.1,0.2,0.1l0,0c0,0,0,0,0,0c0.1,0,0.2,0.1,0.3,0.1l0.1,0.1c0.1,0.1,0.2,0.1,0.3,0.2l0.1,0.1l0.1,0
		c0.2,0.1,0.3,0.2,0.5,0.2l0,0c0.2,0.1,0.3,0.2,0.5,0.2l0.1,0c0.3,0.1,0.5,0.2,0.8,0.4l0,0l0.4,0.2c0.3,0.1,0.7,0.3,1.1,0.4l0.1,0
		c0.1,0,0.2,0.1,0.3,0.1l0.2,0.1c0.1,0,0.1,0,0.2,0.1l0.1,0c0.1,0,0.2,0.1,0.3,0.1l0.2,0.1c0.1,0,0.2,0.1,0.4,0.1l0,0l0,0l0.1,0
		c0.1,0,0.3,0.1,0.4,0.1l0.2,0.1c0.2,0.1,0.3,0.1,0.5,0.2l0.3,0.1c0.1,0,0.2,0.1,0.3,0.1l0.3,0.1c0.1,0,0.1,0,0.2,0l0.6,0.1l0.5,0.1
		c0.1,0,0.1,0,0.2,0l0.6,0.1c0,0,0.1,0,0.1,0l0.1,0c0,0,0.1,0,0.1,0l0.1,0c0.1,0,0.1,0,0.2,0L127.4,105.4L127.4,105.4z"/>
</g>
<path class="st1" d="M127.1,109.9c-5.3-0.8-10.3-2.7-14.8-5.5c-4.4-2.7-8.1-6.2-11.1-10.4c-3-4.2-5.2-8.8-6.4-13.8
	c-1.3-5.2-1.5-10.5-0.7-15.8s2.7-10.3,5.5-14.8c2.7-4.4,6.2-8.1,10.4-11.1c4.2-3,8.8-5.2,13.8-6.4c5.2-1.3,10.5-1.5,15.8-0.7
	s10.3,2.7,14.8,5.5c4.4,2.7,8.1,6.2,11.1,10.4c3,4.2,5.2,8.8,6.4,13.8c1.3,5.2,1.5,10.5,0.7,15.7s-2.7,10.3-5.5,14.8
	c-2.7,4.4-6.2,8.1-10.4,11.1c-4.2,3-8.8,5.2-13.8,6.4C137.7,110.5,132.4,110.7,127.1,109.9z M139.2,33.2c-5.1-0.8-10.1-0.6-15,0.7
	c-4.8,1.2-9.2,3.3-13.2,6.2c-4,2.9-7.3,6.5-9.9,10.6c-2.7,4.3-4.4,9.1-5.2,14.1s-0.6,10.1,0.7,15c1.2,4.8,3.3,9.2,6.2,13.2
	c2.9,4,6.5,7.3,10.6,9.9c4.3,2.7,9.1,4.4,14.1,5.2c5.1,0.8,10.1,0.6,15-0.7c4.8-1.2,9.2-3.3,13.2-6.2c4-2.9,7.3-6.5,9.9-10.6
	c2.7-4.3,4.4-9.1,5.2-14.1s0.6-10.1-0.7-15c-1.2-4.8-3.3-9.2-6.2-13.2c-2.9-4-6.5-7.3-10.6-9.9C149,35.8,144.2,34,139.2,33.2z"/>
<path class="st1" d="M171.7,66.9l-0.1-0.1l0.1-0.1c0,0,0.4-1-0.2-1.8l0,0l0,0c-1.4-2.3-4.1-5.4-6.6-7c0.1-0.6,0.3-1.9,0-2.4
	c-0.4-0.7-2.2-2.8-3.1-3.4c-0.3-0.2-0.7-0.6-1.2-1.1c-1-1-2.1-1.8-3.7-2.5c-2.4-1-4.3-1-4.4-1.1l-2.4-1.6l0,0c-0.1,0-6.1-3-9.8-3.5
	c-0.1,0-0.3,0-0.4,0c-3.1-0.3-11.2,1.5-15.8,3.5c0,0-3.4-2.1-8.4-3.2c-1.4-0.3-3.7-1.1-4.8-1.2c-2.2-0.1-1.7-0.4-2.7-0.1
	c-0.9,0.3-1.1,1.9-1.2,2.2c-1.1,3.2-0.8,5.1-0.7,6.8c0.2,1.9,0.5,3.5,1.3,4.5l1.5,1.5l-1.8,0.7c-0.1,0-3.5,1.6-10.4,7.7
	c0,0,0,0-0.1,0c0,0.1,0,0.1,0,0.2c-3.2,20.2,10.6,39.2,30.9,42.4c0.7,0.1,1.3,0.2,2,0.3c0.1-0.1,0.2-0.1,0.3-0.2
	c4.3-2.3,6.8-5.7,10.4-6c-0.3-0.3-1.5-3.7-1.8-4.2c-0.8-1.3-0.2-5.5,1.2-9c0.8-2,2.3-3.2,4.7-3.7c0.6-0.1,1.2-0.1,1.6-0.1
	c1.2,0.2,1.3,0.9,1.3,0.9l0,0.1l0,0.1c0,0-0.3,0.9,0.1,2.4c0.4-0.1,0.7,0.1,1.5-0.1l0.2,0l0.1,0.2c0,0.1,1.4,0.5,0.9,1.5
	c0.9,0.1,2.4,0.7,4,0.3c2.5-0.7,4.8-1.7,4.8-1.7l0.5-0.2l-0.1,0.5c0,0-0.1,0.6-0.3,1.3c0.8-0.2,2.2-0.6,3.2-1.5
	c1.5-1.2,2-1.7,2.4-3.1l0.1-0.3l0.3,0.2c0.1,0.1,0.7-0.6,1,0c0.7-1.1,2.3-2.7,1.6-5l-0.1-0.2l0.2-0.1c0,0,0.7-0.5,1.4-1.4
	c0,0,0.1-0.1,0.1-0.1C173,73.8,173.8,70,171.7,66.9z"/>
<path class="st2" d="M154.3,69.7c-3.3-0.9-6.7-1.3-10-1.6c-4-0.3-7.9-0.2-11.9,0.4c0,0,10.1-2.5,22.9,0.7L154.3,69.7z"/>
<path class="st2" d="M160.3,66.8c-6.9-4.2-14.9-6.7-23-7.2c-1.2-0.1-2.5-0.1-3.7,0c0,0,15.4-2.2,27.8,7.1L160.3,66.8z"/>
<path class="st2" d="M158.7,68.8c-3.6-1.5-7.5-2.5-11.3-3.3c-4.7-1-9.5-1.5-14.3-1.4c-2.7,0.1-5.5,0.3-8.1,0.9c0,0,3.1-1.1,8.1-1.5
	c7-0.5,18.3,0.8,25.9,5L158.7,68.8z"/>
<path class="st0" d="M148.7,54.5c-1.6,0-3.3,0.3-4.8,0.9c1.2,1.2,3,1.8,4.6,2.2c0.3,0.1,0.7,0.1,1-0.1c0.1-0.1,0.2-0.3,0.2-0.5
	c0.1-0.4,0.2-0.8,0.2-1.3s-0.2-1-0.6-1.1L148.7,54.5z"/>
<path class="st0" d="M154.2,62.5c0.8,0.4,1.9,1,2.6,1.4c1.5-0.1,2.6,0.2,3.4,0.5C160.2,64.4,157.6,62.5,154.2,62.5z"/>
<path class="st2" d="M162.9,52.5c0.9,1,1.7,2.2,1.6,3.5c-0.1,0.7-0.4,1.3-0.9,1.7s-1.4,0.5-1.9,0l-0.4,0c0.8-0.2,1.9-1,1.6-2.5
	c0-0.2-1.2-1.5-2.6-2.8c-0.4-0.4-0.7-0.4-1.2-0.8c-0.7-0.7-1.6-1.3-2.4-1.7c-0.8-0.4-1.3-0.5-2.1-0.9c-0.9-0.3-1.7-0.3-2-1.2
	C156.4,47.9,160.2,49.6,162.9,52.5z"/>
<path d="M144.6,52.5c0.7,0.3,1.6,0.5,2.7,1.2c-2.5-0.5-4.9,1.2-5.1,1.4c0.3,0.7,0.9,1.2,1.6,1.5c0,0-1.5,0.5-2,0.7
	c4.2,0,9.2,0.9,13.1,3.2c-0.8-1.1-1.8-1.9-3.3-2.7c1.7,0.2,6.2,1.3,10.1,5.3c0,0-2.3-3.6-5.2-5.3c0.6-0.3,1.5-1,1.4-2.4
	c0,0-0.4,0.5-1.1,0.8c-0.6,0.2-1.5,0.2-2.1-0.2c-0.4-0.2-2.1-1.3-3.4-2.2c-1.4-0.9-2.6-1.7-5.4-3c-2.7-1.2-7.3,1.6-7.3,1.6
	S142.3,51.6,144.6,52.5z M148,56.2c0.1,0.5,0.4,0.2,0.5,0.2c0.3-0.4,0.5-0.7,0.5-1.1c0.3,0.2,0.4,0.5,0.4,0.9
	c-0.1,0.4-0.2,0.6-0.4,0.6c-0.5,0.2-2.7-0.3-3.6-0.8c-0.6-0.4-0.6-0.5-0.1-0.7c0.9-0.2,1.1-0.3,1.9-0.2
	C147.5,55.1,147.8,55.6,148,56.2z"/>
<path class="st1" d="M171.6,70.8c0-2.1-0.9-4.1-0.9-4.1s-0.1-1.4-0.4-2.4c-0.3-0.8-4.3-4.6-5.8-6.1c-0.5-0.2-1-0.4-1.5-0.6l0,0.6
	c0,0,0.5-0.7,3.3,2.7c2.2,2.7,2.3,4,2.3,4s-1.3-0.4-3-0.6c-3-0.3-3.3,0.5-3.3,0.5s-2.7-1.2-5.9-1.5c-3.2-0.4-5.5,0.3-6.4,2.2
	s-1.7,5.3-1.7,5.3s-0.3,0-0.8,0.2c1.3,0.2,2.6,0.4,3,1.2c3.9,7,13.8,4.2,14.2,3.9c0.4-0.3,0.2,0.9,0.4,1c0.1,0.1,0.1-0.4,1.3,2.4
	c0.2,0.6,0,2.3-0.6,4.5c0.2-0.2,0.8-1.1,1-2.2c0.2-1.3,0.4-2.4,0.4-2.4s1.9-0.9,2.6-2.3C170.3,75.6,171.5,72.9,171.6,70.8z"/>
<g>
	<path class="st2" d="M154.1,64.9c3.2,0.4,5.9,1.5,5.9,1.5s0.3-0.8,3.3-0.5c1.7,0.2,3,0.6,3,0.6s0-0.7-0.9-2.2
		c-2.9-0.3-3.2,0.5-3.2,0.5s-2.7-1.2-5.9-1.5c-3-0.3-5.2,0.2-6.2,1.8C151.2,64.8,152.5,64.7,154.1,64.9z"/>
	<path class="st2" d="M171.6,70.8c0-2.1-0.9-4.1-0.9-4.1s-0.1-1.4-0.4-2.4c-0.3-0.8-4.3-4.6-5.8-6.1c-0.5-0.2-1-0.4-1.5-0.6l0,0.6
		c0,0,0.5-0.7,3.3,2.7c2.2,2.7,2.3,4,2.3,4s-0.6-0.2-1.5-0.4c0.6,0.6,1,1.1,1,1.3c0.4,1,0.4,2.4,0.4,2.4s0.9,2,0.9,4.1
		c0,2.1-1.2,4.8-1.9,6.2c-0.3,0.5-0.7,1-1.1,1.3c0,0.8-0.3,2.2-0.7,3.9c0.2-0.2,0.8-1.1,1-2.2c0.2-1.3,0.4-2.4,0.4-2.4
		s1.9-0.9,2.6-2.3C170.3,75.6,171.5,72.9,171.6,70.8z"/>
</g>
<path class="st2" d="M171.4,66.6c0,0-0.1-1.4-0.4-2.4c-0.3-0.8-4.3-4.6-5.8-6c-0.5-0.2-1-0.4-1.5-0.6l0,0.6c0,0,0.5-0.7,3.3,2.7
	c2.2,2.7,2.3,4,2.3,4s-1.3-0.4-3-0.6c-3-0.3-3.3,0.5-3.3,0.5s-2.7-1.2-5.9-1.5c-2.5-0.3-4.5,0.1-5.7,1.2c6.5,3.2,11.8,8.5-9.1,12.8
	c-27.5,5.7-24-12-22.2-17.6c-1.2,1-3.1,3-4.8,6.2c-3.7,6.7,3,14.5,3.2,15.1c0.2,0.6,19.1,4.6,19.3,4.2s7-2.6,8.6-2.7
	c1.6-0.1,3.5,2.2,3.7,2.6c0.1,0.5,0.9,1.9,2.1,2.1c1.3,0.3,4.1,0.8,5.4,0.7s2.5-0.4,3.2-0.3s1.7,0.1,2-0.2c0.3-0.3,2.6-3,2.8-3.4
	c0.1-0.4,0.8-0.2,0.8-0.2s0.8-0.9,1-2.2s0.4-2.4,0.4-2.4s1.9-0.9,2.6-2.3c0.7-1.4,1.9-4.1,1.9-6.2C172.3,68.5,171.4,66.6,171.4,66.6
	z"/>
<g>
	<path d="M127.7,107.3c1.4,0.2,2.8,0.3,4.1,0.4c0.4-0.9,0.9-2,1.3-3.1c0.6-1.5,0.9-3.2,1.1-4.8C132.7,102.8,130.4,105.4,127.7,107.3
		z"/>
	<path d="M171.9,66.7c0,0,0.5-1.2-0.2-2c0,0-2.3-4.4-5.9-6.6c0,0,0.8-1.8,0.3-2.5c-0.4-0.7-2.1-2.8-3-3.4c-0.9-0.6-2.7-2.9-5.1-3.9
		c-2.4-1-5.2-1.5-5.2-1.5s-3.9-2.2-7.1-3.4c-1.9-0.7-6.2-1.7-7.6-1.7c-3.3-0.2-9.3,0.6-14,3.2c0,0-2.4-1.7-8-2.6
		c-1.3-0.2-3.6-0.9-4.7-1.3c-4.6-1.6-5.1,1.8-5.4,2.8c-1.6,5.9-0.3,10,1.5,12.4c0,0-4.9,2.4-10.6,7.9c-0.1,0.3-0.1,0.7-0.2,1
		c-0.1,0.5-0.1,1-0.2,1.5c2.6-3,5.6-5.7,9-7.5c3.5,0.8,6.1,1.1,8.7-0.7c1.2-0.1,1.9-0.5,1.9-0.5c-1.2-0.3-6.9-1.1-8.1-7.3
		c-0.4-2.2-0.7-8.4,2-8.1c1.9,0.2,2.8,0.7,3.7,0.8c7.3,1.1,9.1,3,9.1,3.1c-1.2,0.9-1.8,2.6-2,3.6c1.3-1.2,3.9-3.1,7.8-4.8
		c2.7-1.2,5-1.7,9.8-1.4c6.1,0.7,11.9,3,14.7,5c0.8,0.6,4.9,3.3,4.9,3.3c-0.3-0.4-1.5-2.4-3.1-3.3c-0.4-0.2,0.7-0.1,2.2,0.5
		c2.4,0.9,3.8,2.7,4.2,3.1c0.4,0.4,1.6,1.6,2.2,2.3c0.5,0.6,0.4,0.6,0.5,0.9c-0.2,0.9-1,1.8-1.8,1.5c0.2-0.3,0.2-1.4-0.5-2.2
		c0,1.2-1.2,2.8-2.5,3c1.1,0.1,2,0.1,2.9,0.3c1.3,0.5,1.9,1.5,4.3,4.2c0,0,0.1-0.5-0.4-1.5s-1-1.7-1-1.7l0.3,0.1
		c0.6,0.5,1.3,1.2,2.1,2.1c2.3,2.6,2.4,3.3,2.4,3.3s-0.4,0.1-1.4,0c-1.3-0.2-3-1.4-4.7-1.2c-0.8,0-1.2,0.5-1.5,1.1
		c-0.6-0.7-2.1-1.5-3.5-2c-1.3-0.4-3.5-0.6-4.6-0.1c1.6,0.4,2.5,0.9,2.8,1.5c1.7-0.1,4.2,0.6,5.2,1.6c0,0,0,0,0,0c0,0,0,0,0,0
		c0,0,0,0,0,0c0,0,0,0,0,0c0.2,0,0.9,0.2,2.6,0.7c0.5,0.1,1.7,0.6,1.8,0.7c-1.1,0.1-2-0.1-2.3,0c-0.4,0,2.1,0.9,2.8,3
		c0,0,2.4-0.6,3.1-1.9c0,0,0.4,0.1,0.6,1.5c0.3,2-0.8,6.7-4.2,8.6c-0.5-0.8-0.7-1.2-0.7-1.2c0-0.2-0.1-1,0-1.1
		c0.8-1.3,1-3.3,1.1-4.3c0-0.5,0-0.7,0-0.7s-0.7,3-2.4,4.5c-0.5,0.4-2,1.1-2.4,1c-0.1,0-3,0.1-5.2-0.1c-5.5-0.4-7.9-2.6-10.1-2
		c-2.1,0.6-1.8,2.8-1.2,3c0.1,0.1,9.3-0.1,11.5,0.1c3.3,0.2,6.3,0.6,6.3,0.6c0.9,0.1,1.8,1.5,1.8,1.5c0.5,1.1,0.4,2.4-0.1,3.1
		l-1.1-1.1c0,0-0.2,2-0.6,2.7c-1.6,2.4-2.7,2.6-2.7,2.6s0.8-1.8-0.2-2.2c-0.3,0.9-1.4,1.6-2,1.8c-3.2,1.1-5.3,0.5-6.7,0
		c0,0,1.6-3.1-2.3-5c-4.6-1.9-6.6-0.7-7.1-4.2c0-0.2-0.3-0.3-0.4-0.1c-0.3,0.6-0.4,1.6-0.4,2.4c0.3,0.9,0.6,1.6,0.6,1.6
		s-2.1,0.7-4.9,1.5c-2.8,0.8-5.3,0.2-5.3,0.2l1.8,0.8c0,0-14-0.6-17.5-9.1c-2.8-6.9,0.9-12.6,2.4-14.6c-7.7,5.1-9.2,15.1-8.6,24.4
		c-0.9-2.8-1.3-6-1.1-9c-1.4,4.5-2.2,7.6-2.4,11.4s0,8.3,1.9,11.6c-1.1-0.7-2.3-3.1-2.9-4.7c0.1,0.6,0.2,1.5,0.4,2.5
		c4.7,5,10.7,8.8,17.7,10.6c1.6-6.2,5.3-14.2,13.5-19c0,0-5.3,4.1-6.2,11.5c0,0,1.7-3.6,5.3-6.2c0,0,0.8,8.7-3.3,15
		c5.9,0,11.7-1.4,16.7-3.9c-1-4.2-7.7-6.5-9-10.6c-1,1.9-0.3,6-0.2,6.7c-2.2-3.4-2-7.8-1.1-10c0.3-1.2,2.6-4.6,4.9-5
		c2.4-0.4,2.6,0.6,2.6,0.6s-0.5,1,0.2,2.7c0,0,0.7,0.2,1.8,0c0,0,1.6,0.4,0.8,1.3c0,0,2.3,1.1,4.5,0.6c2.5-0.7,4.9-1.8,4.9-1.8
		s-0.1,0.9-0.5,1.7c0,0,2.4-0.4,3.8-1.6s2-1.8,2.5-3.2c0,0,1-0.8,1.1,0c0,0,3-2.2,2-5.3c0,0,0.7-0.5,1.5-1.5
		C170.3,77.5,175.4,71.7,171.9,66.7z"/>
	<path d="M96.6,76.2c0.8,5.5,2.9,10.7,6,15.2c-1.6-4.8-2.3-10.8,0.8-15.9c0,0-1.5,0.1-2.5,0.6c0,0,3-11.1,10.9-14.1
		C105.1,63.9,100.1,69.8,96.6,76.2z"/>
</g>
<path d="M147.4,65.5c-4.7-1-9.5-1.5-14.3-1.4c-2.7,0.1-5.5,0.3-8.1,0.9c4.9-0.8,10-0.4,14.9,0.2c2.9,0.4,5.9,0.9,8.8,1.6
	c-0.2,0.4-0.4,0.8-0.5,1.2c1.1,0.1,2.1,0.4,3.2,0.3c1-0.1,2.1,0,3.1,0.2c0.6,0.1,1.2,0.2,1.8,0.4c0.6,0.2,2.5,0.8,3.1,0.8
	c0.1,0,1-0.2,0.8-0.3C156.4,67.8,151.2,66.3,147.4,65.5z"/>
<path d="M151.7,63.3c-0.8,0.4-1.5,1-2,1.7c0.5,0.1,1,0.3,1.5,0.4c0.2,0,1.2,0.3,1.3,0.3c0.5-0.2,1-0.7,4.9,0.4
	c0.6,0.2,1.3,0.2,2,0.2c-6-3.7-12.3-6.2-20.6-6.7c-1.1-0.1-2.1-0.1-3.2,0C141.1,59.9,146.6,61.2,151.7,63.3z"/>
<path d="M144.5,68c-4-0.2-8.1-0.2-12.1,0.4c5.1-0.1,10.3,0,15.3,0.8c0,0.2-0.1,0.9-0.2,1c0,0-0.2,0-0.2,0c-0.3,0.1-0.7,0.1-1.1,0.1
	c-1.2,0.3-2.2,1-2.8,2.1c-0.2,0.3-0.4,0.7-0.5,1.1c-0.1,0.3-0.1,0.5,0.2,0.3c0.3-0.2,0.5-0.5,0.8-0.7c1-0.8,2.3-1.4,3.6-1.4
	c1,0,2,0.3,2.9,0.7c0.2,0.1,2.2,1,2.3,0.8c0-0.1-1.5-1.2-1.7-1.4c-0.2-0.2-0.4-0.3-0.3-0.7c0.1-0.3,0.4-0.5,0.7-0.6
	c0.6-0.3,3.4,0.2,4,0c0.1,0,0.7-0.3,0.7-0.3C153.1,69.3,148.4,68.3,144.5,68z"/>
<path d="M150.8,56.8l-2.9-1.9c0,0-0.9-0.1-1.1,0.6C146.6,56.3,147.5,57.3,150.8,56.8z"/>
<path class="st1" d="M126.2,116c-6.1-1-11.9-3.1-17.1-6.3c-5-3.1-9.4-7.2-12.9-12s-6-10.2-7.4-15.9c-1.5-6-1.8-12.1-0.8-18.2
	s3.1-11.9,6.3-17.1c3.1-5,7.2-9.4,12-12.9c4.8-3.5,10.2-6,15.9-7.4c6-1.5,12.1-1.8,18.2-0.8c6.1,1,11.9,3.1,17.1,6.3
	c5,3.1,9.4,7.2,12.9,12s6,10.2,7.4,15.9c1.5,6,1.8,12.1,0.8,18.2s-3.1,11.9-6.3,17.1c-3.1,5-7.2,9.4-12,12.9
	c-4.8,3.5-10.2,6-15.9,7.4C138.4,116.7,132.3,116.9,126.2,116z M140.2,26.7c-5.9-0.9-11.9-0.7-17.6,0.8c-5.6,1.4-10.8,3.8-15.4,7.2
	s-8.6,7.6-11.6,12.5c-3.1,5.1-5.2,10.6-6.1,16.6s-0.7,11.9,0.8,17.6c1.4,5.6,3.8,10.8,7.2,15.4s7.6,8.6,12.5,11.6
	c5.1,3.1,10.6,5.2,16.6,6.1s11.9,0.7,17.6-0.8c5.6-1.4,10.8-3.8,15.4-7.2s8.6-7.6,11.6-12.5c3.1-5.1,5.2-10.6,6.1-16.6
	c0.9-5.9,0.7-11.9-0.8-17.6c-1.4-5.6-3.8-10.8-7.2-15.4c-3.4-4.7-7.6-8.6-12.5-11.6C151.7,29.7,146.1,27.7,140.2,26.7z"/>
<path class="st1" d="M133.3,133.9c-0.1,0-0.2,0-0.3,0c-16.9-0.1-32.7-6.7-44.6-18.7c-11.9-12-18.4-27.9-18.3-44.8
	c0.1-16.9,6.7-32.7,18.7-44.6c12-11.9,27.9-18.4,44.8-18.3c34.9,0.1,63.1,28.6,63,63.5c-0.1,16.9-6.7,32.7-18.7,44.6
	C165.9,127.4,150.1,133.9,133.3,133.9z M133.3,9.4c-16.3,0-31.6,6.3-43.2,17.8C78.5,38.7,72.1,54.1,72,70.4
	c-0.1,16.4,6.3,31.8,17.8,43.4c11.5,11.6,26.9,18.1,43.3,18.1c16.4,0.1,31.8-6.3,43.4-17.8c11.6-11.5,18.1-26.9,18.1-43.3
	c0.1-33.8-27.3-61.4-61.1-61.5C133.5,9.4,133.4,9.4,133.3,9.4z M133.3,116.8c-0.1,0-0.1,0-0.2,0l0,0c-25.4-0.1-46-20.9-45.9-46.3
	c0.1-25.4,20.8-46,46.1-46c0.1,0,0.1,0,0.2,0c25.4,0.1,46,20.9,45.9,46.3c0,12.3-4.9,23.9-13.6,32.6
	C157.1,112,145.6,116.8,133.3,116.8z M133.2,114.9c0.1,0,0.1,0,0.2,0c11.7,0,22.8-4.6,31.1-12.8c8.4-8.3,13-19.4,13.1-31.2
	c0.1-24.4-19.7-44.3-44.1-44.4c-0.1,0-0.1,0-0.2,0c-24.3,0-44.1,19.7-44.2,44.1C89,94.8,108.8,114.8,133.2,114.9L133.2,114.9z"/>
<path d="M150.6,55c0,0-4.1-0.8-5.4-0.2s-1,1.3-0.6,1.5c0.4,0.2,3.3,0.6,3.3,0.6s1.8,0.9,2.3,0.2c0.7-1.1,0.7-1.1,0.7-1.1"/>
<g>
	<ellipse transform="matrix(3.899970e-03 -1 1 3.899970e-03 62.211 203.6562)" cx="133.3" cy="70.6" rx="66.1" ry="66"/>
	<path d="M143.6,137.3c-3.4,0.5-6.9,0.8-10.5,0.8c-18-0.1-34.9-7.2-47.6-20c-12.7-12.8-19.6-29.8-19.6-47.8c0.1-18,7.2-35,19.9-47.7
		C98.6,10,115.6,3,133.6,3.1c37.2,0.1,67.3,30.6,67.2,67.8C200.7,104.5,175.8,132.4,143.6,137.3z M123.4,6.7
		c-13.4,2.1-25.8,8.3-35.6,18c-12.3,12.2-19,28.4-19.1,45.7s6.6,33.5,18.7,45.8s28.4,19.1,45.6,19.1c35.6,0.1,64.7-28.8,64.9-64.4
		c0.1-35.7-28.7-64.8-64.4-64.9C130.1,5.9,126.7,6.2,123.4,6.7z"/>
</g>
<ellipse transform="matrix(3.899970e-03 -1 1 3.899970e-03 62.2108 203.6559)" class="st3" cx="133.3" cy="70.6" rx="66.1" ry="66"/>
<ellipse transform="matrix(3.899970e-03 -1 1 3.899970e-03 62.1205 203.7142)" class="st0" cx="133.3" cy="70.7" rx="62.3" ry="62.3"/>
<path class="st1" d="M182.1,59l1.8-0.2l0.4,4l-0.8,0.1l-0.3,0.4l0.5,5.1l0.4,0.3l1.7-0.2l0.2-0.3l-0.8-7.7l1.5-1.9l3.7-0.4l2.2,1.8
	l1,9.7l-1.7,2.1l-1.8,0.2l-0.4-4l0.8-0.1l0.3-0.4l-0.5-5l-0.4-0.3l-1.6,0.2l-0.2,0.3l0.8,7.7l-1.5,1.9l-3.8,0.4l-2.2-1.8l-1-9.9
	L182.1,59z"/>
<ellipse transform="matrix(0.1552 -0.9879 0.9879 0.1552 43.3173 191.7558)" cx="133.8" cy="70.6" rx="45.2" ry="45.2"/>
<ellipse transform="matrix(0.1552 -0.9879 0.9879 0.1552 43.3173 191.7558)" class="st0" cx="133.8" cy="70.6" rx="38.1" ry="38.1"/>
<g>
	<path class="st1" d="M103.5,46.6c-0.1,0.5,2.2,8.9,2.2,8.9l-5.2,3.8c0,0-4.9,3.9-5.4,3.7c-0.5-0.3-0.2-0.6,0.4-2.2
		c0.6-1.6,1.7-3.2,1.7-3.8"/>
	<g>
		<g>
			<polyline class="st1" points="99.3,52.9 170,59 96.7,57.3 			"/>
			<polygon class="st1" points="158.6,98.7 104.1,92.8 114.6,102.7 			"/>
		</g>
		<g>
			<polyline class="st1" points="121.5,33.2 154.2,38.6 112.9,37.3 			"/>
			<polyline class="st1" points="113.2,36.6 161.5,44.3 107.4,42.2 			"/>
		</g>
		<polygon class="st1" points="163.3,94 100.2,84.4 103.7,93 		"/>
	</g>
</g>
<g>
	<path class="st1" d="M171.9,66.7c0,0,0.5-1.2-0.2-2c0,0-2.3-4.4-5.9-6.6c0,0,0.8-1.8,0.3-2.5c-0.4-0.7-2.1-2.8-3-3.4
		c-0.9-0.6-2.7-2.9-5.1-3.9c-2.4-1-5.2-1.5-5.2-1.5s-3.9-2.2-7.1-3.4c-1.9-0.7-6.2-1.7-7.6-1.7c-3.3-0.2-9.3,0.6-14,3.2
		c0,0-2.4-1.7-8-2.6c-1.3-0.2-3.6-0.9-4.7-1.3c-4.6-1.6-5.1,1.8-5.4,2.8c-1.6,5.9-0.3,10,1.5,12.4c0,0-4.9,2.4-10.6,7.9
		c0,0.1,0,0.3-0.1,0.4l0,0c0,0,0,0.1,0,0.1c0,0.2-0.1,0.4-0.1,0.5c0,0.2-0.1,0.3-0.1,0.5c0,0,0,0.1,0,0.1c0,0,0,0,0,0
		c0,0,0,0.1,0,0.1c0,0.1,0,0.1,0,0.2c0,0,0,0.1,0,0.1c0,0.1,0,0.2,0,0.3l0,0l0,0c0,0,0,0,0,0c0,0,0,0.1,0,0.1c0,0.1,0,0.3,0,0.4
		c0,0,0,0.1,0,0.1c0,0.1,0,0.3,0,0.4c0,0,0,0,0,0.1c0,0.2,0,0.3,0,0.5c0,0,0,0,0,0c0,0.2,0,0.3,0,0.5c0,0,0,0,0,0
		c-0.2,2.8,0,5.6,0.4,8.3c0,0,0,0,0,0c0,0.2,0.1,0.3,0.1,0.5c0,0,0,0,0,0c0.2,0.9,0.3,1.7,0.5,2.5c0,0,0,0,0,0
		c0,0.2,0.1,0.3,0.1,0.5c0,0,0,0,0,0c0,0.2,0.1,0.3,0.1,0.5c0,0,0,0,0,0c0.2,0.7,0.4,1.3,0.6,2c0,0,0,0,0,0c0.1,0.2,0.1,0.3,0.2,0.5
		c0,0,0,0,0,0.1c0.1,0.1,0.1,0.3,0.2,0.4c0,0,0,0,0,0.1c0.1,0.1,0.1,0.3,0.2,0.4c0,0,0,0,0,0c0.1,0.4,0.3,0.7,0.4,1.1c0,0,0,0,0,0
		c0.1,0.1,0.1,0.3,0.2,0.4c0,0,0,0,0,0c0.1,0.1,0.1,0.2,0.2,0.3c0,0,0,0,0,0.1v0c0,0,0,0,0,0c0.1,0.1,0.1,0.2,0.2,0.3
		c0,0,0,0.1,0,0.1c0.1,0.1,0.1,0.2,0.2,0.4c0,0,0,0.1,0,0.1c0.1,0.1,0.1,0.2,0.2,0.4c0,0,0,0,0,0c0,0,0,0,0,0.1
		c0.1,0.1,0.1,0.2,0.2,0.4c0,0,0,0,0,0c0.2,0.3,0.3,0.6,0.5,1c0,0,0,0,0,0.1c0.1,0.1,0.1,0.2,0.2,0.4c0,0,0,0.1,0.1,0.1
		c0.1,0.1,0.1,0.2,0.2,0.3c0,0,0,0.1,0.1,0.1c0.1,0.1,0.1,0.2,0.2,0.3c0,0,0,0.1,0.1,0.1c0.1,0.1,0.1,0.2,0.2,0.3c0,0,0,0,0,0.1
		c0.3,0.4,0.6,0.9,0.9,1.3l0,0c0.1,0.1,0.2,0.3,0.3,0.4c0,0,0,0,0,0c0.1,0.1,0.2,0.2,0.3,0.4c0,0,0,0,0,0c0.1,0.1,0.2,0.2,0.3,0.4
		c0,0,0,0,0,0c0.1,0.1,0.2,0.2,0.3,0.4c0,0,0,0,0,0c0.1,0.1,0.2,0.2,0.3,0.4c0,0,0,0,0,0c0.1,0.1,0.2,0.2,0.3,0.4l0,0
		c0.6,0.8,1.3,1.5,1.9,2.2c0,0,0,0,0.1,0.1c0.1,0.1,0.3,0.3,0.4,0.4c0,0,0,0,0,0c0.1,0.1,0.3,0.3,0.4,0.4c0,0,0,0,0,0
		c0.1,0.1,0.3,0.3,0.4,0.4c0,0,0,0,0.1,0.1c0.1,0.1,0.1,0.1,0.2,0.2l0,0c0.1,0.1,0.2,0.2,0.3,0.3c0,0,0,0,0,0
		c0.1,0.1,0.2,0.2,0.3,0.3c0,0,0,0,0.1,0.1c0.1,0.1,0.2,0.2,0.3,0.3c0,0,0,0,0,0c0.1,0.1,0.2,0.2,0.4,0.3c0,0,0,0,0,0
		c0.1,0.1,0.2,0.1,0.3,0.2c0,0,0,0,0.1,0.1c0.2,0.1,0.3,0.2,0.5,0.4c0,0,0,0,0,0c0.2,0.1,0.3,0.3,0.5,0.4c0,0,0,0,0.1,0
		c0.1,0.1,0.3,0.2,0.4,0.3c0,0,0,0,0,0c0.2,0.1,0.3,0.2,0.5,0.4c0,0,0,0,0,0c0.2,0.1,0.3,0.2,0.5,0.3c0,0,0,0,0.1,0.1
		c0.3,0.2,0.7,0.4,1,0.7c0,0,0.1,0,0.1,0.1c0.3,0.2,0.7,0.4,1,0.6c0,0,0.1,0,0.1,0c0.1,0.1,0.2,0.1,0.4,0.2c0,0,0,0,0,0
		c0,0,0.1,0.1,0.1,0.1c0,0,0,0,0,0c0.1,0,0.2,0.1,0.2,0.1c0,0,0,0,0,0c0.1,0.1,0.2,0.1,0.3,0.2c0,0,0.1,0,0.1,0c0,0,0,0,0.1,0
		c0,0,0,0,0,0c0.1,0.1,0.3,0.1,0.4,0.2l0,0l0,0c0,0,0,0,0,0c0,0,0,0,0.1,0c0.2,0.1,0.4,0.2,0.6,0.3c0,0,0,0,0.1,0
		c0.2,0.1,0.3,0.2,0.5,0.2c0,0,0.1,0,0.1,0c0.4,0.2,0.7,0.3,1.1,0.5l0,0h0c0,0,0,0,0,0c0,0,0.1,0,0.1,0c0.4,0.2,0.7,0.3,1.1,0.4
		c0,0,0,0,0,0c0,0,0.1,0,0.1,0c0.1,0,0.2,0.1,0.3,0.1c0,0,0.1,0,0.1,0c0,0,0.1,0,0.1,0c0,0,0,0,0,0c0.1,0,0.2,0.1,0.2,0.1
		c0,0,0.1,0,0.1,0c0.1,0,0.2,0.1,0.3,0.1c0,0,0.1,0,0.1,0c0,0,0,0,0,0c0,0,0.1,0,0.1,0c0.1,0,0.3,0.1,0.4,0.1c0,0,0,0,0,0
		c0,0,0,0,0.1,0c0.1,0,0.3,0.1,0.4,0.1c0,0,0,0,0,0c0,0,0.1,0,0.1,0c0,0,0,0,0.1,0c0.2,0.1,0.4,0.1,0.5,0.2c0,0,0.1,0,0.1,0
		c0.1,0,0.1,0,0.2,0c0,0,0,0,0,0c0.1,0,0.2,0.1,0.4,0.1c0,0,0,0,0,0c0,0,0,0,0.1,0l0,0l0,0c0,0,0,0,0,0c0,0,0.1,0,0.1,0
		c0.1,0,0.1,0,0.2,0.1c0,0,0,0,0,0c0,0,0.1,0,0.1,0c0.1,0,0.1,0,0.2,0c0.1,0,0.1,0,0.1,0c0,0,0,0,0,0c0,0,0.1,0,0.1,0
		c0.1,0,0.1,0,0.2,0c0,0,0.1,0,0.1,0c0,0,0,0,0.1,0c0.1,0,0.1,0,0.2,0c0.1,0,0.1,0,0.2,0c0,0,0,0,0,0c0,0,0.1,0,0.1,0
		c0.1,0,0.1,0,0.2,0s0.1,0,0.2,0c0,0,0.1,0,0.1,0c0.1,0,0.2,0,0.2,0c0.1,0,0.1,0,0.2,0c0,0,0,0,0.1,0c0.1,0,0.2,0,0.3,0.1
		c0.1,0,0.1,0,0.2,0c0,0,0,0,0,0c0.2,0,0.3,0.1,0.5,0.1c0.2,0,0.3,0.1,0.5,0.1c0.1,0,0.1,0,0.2,0c0.1,0,0.2,0,0.3,0
		c0.1,0,0.2,0,0.3,0c0.1,0,0.1,0,0.2,0c0.1,0,0.2,0,0.4,0c0,0,0,0,0,0c1.2,0.1,2.5,0.2,3.7,0.2l0,0c5.9,0,11.7-1.4,16.7-3.9
		c-0.7-3-4.4-5-6.9-7.5c-0.2-0.3-0.5-0.7-0.9-1c-0.1-0.1-0.3-0.3-0.4-0.4c-0.1-0.1-0.2-0.2-0.2-0.3c-1.9-3.2,1.8-8,2.7-9
		c4.2,5.7,14,6.8,19.5,2.2c4.1-3.4,4.8-6.5,4.7-8.4c0.3-0.2,0.6-0.6,1-1C170.3,77.5,175.4,71.7,171.9,66.7z"/>
	<path class="st1" d="M129.7,109.6l0.1-0.1c-0.2,0-0.4,0-0.6-0.1l0,0c-0.1,0-0.2,0-0.4,0c-0.1,0-0.1,0-0.2,0c-0.1,0-0.2,0-0.3,0
		c-0.1,0-0.2,0-0.3,0l-0.1,0c-0.1,0-0.1,0-0.2,0c-0.3-0.1-0.7-0.1-1-0.2l0,0c0,0-0.1,0-0.1,0l-0.1,0c-0.1,0-0.2,0-0.2,0l-0.1,0
		c0,0-0.1,0-0.2,0l-0.1,0c-0.1,0-0.1,0-0.2,0l-0.1,0c-0.1,0-0.1,0-0.2,0l-0.1,0c0,0-0.1,0-0.1,0l-0.1,0c-0.1,0-0.1,0-0.2,0l-0.1,0
		c0,0-0.1,0-0.1,0l-1-0.2c-0.1,0-0.1,0-0.2,0l-0.2-0.1l0,0l-0.1,0c-0.1,0-0.3-0.1-0.4-0.1l-0.3-0.1c-0.2-0.1-0.4-0.1-0.6-0.2
		l-0.2-0.1c-0.2,0-0.3-0.1-0.5-0.1l-0.1,0h0l0,0c-0.1,0-0.3-0.1-0.4-0.1l-0.2-0.1c-0.1,0-0.2-0.1-0.3-0.1l-0.1,0
		c-0.1,0-0.1-0.1-0.2-0.1l-0.3-0.1c-0.1,0-0.2-0.1-0.4-0.1l-0.1-0.1c-0.4-0.1-0.7-0.3-1.1-0.4l-0.1,0l-0.2-0.1
		c-0.4-0.2-0.7-0.3-1.1-0.5l-0.1,0c-0.2-0.1-0.4-0.2-0.5-0.3l-0.1,0c-0.2-0.1-0.4-0.2-0.6-0.3l0,0l-0.1-0.1l-0.1,0
		c-0.1-0.1-0.2-0.1-0.3-0.2l-0.1-0.1c-0.1-0.1-0.2-0.1-0.3-0.2l-0.1,0c-0.1,0-0.1-0.1-0.2-0.1l-0.2-0.1c-0.1-0.1-0.2-0.1-0.4-0.2
		l-0.1-0.1c-0.4-0.2-0.7-0.4-1.1-0.7l-0.1-0.1c-0.4-0.2-0.7-0.5-1.1-0.7l-0.1-0.1c-0.2-0.1-0.3-0.2-0.5-0.3l0,0
		c-0.2-0.1-0.3-0.2-0.5-0.4l-0.1,0c-0.2-0.1-0.3-0.2-0.5-0.4l-0.1,0c-0.2-0.1-0.3-0.3-0.5-0.4c0,0,0,0,0,0c-0.2-0.1-0.3-0.3-0.5-0.4
		l-0.1-0.1c-0.1-0.1-0.2-0.1-0.3-0.2l0,0c-0.1-0.1-0.2-0.2-0.4-0.3l0,0c-0.1-0.1-0.2-0.2-0.3-0.3l-0.1-0.1c-0.1-0.1-0.2-0.2-0.3-0.3
		l0,0c-0.1-0.1-0.2-0.2-0.3-0.2l0,0l-0.1-0.1c-0.1-0.1-0.1-0.1-0.2-0.2l-0.1-0.1c-0.1-0.1-0.3-0.3-0.4-0.4l0,0
		c-0.2-0.1-0.3-0.3-0.5-0.4l0,0c-0.1-0.1-0.3-0.3-0.4-0.4l-0.1-0.1c-0.7-0.7-1.4-1.5-2-2.3l0,0c-0.1-0.1-0.2-0.2-0.3-0.3l0,0
		c-0.1-0.1-0.2-0.3-0.3-0.4l0,0c-0.1-0.1-0.2-0.2-0.3-0.4l0,0c-0.1-0.1-0.2-0.2-0.3-0.4l0,0c-0.1-0.1-0.2-0.3-0.3-0.4l0,0
		c-0.1-0.1-0.1-0.1-0.2-0.2l0,0l-0.1-0.2c-0.3-0.4-0.6-0.9-0.9-1.3l0-0.1c-0.1-0.1-0.2-0.2-0.2-0.4l-0.1-0.1
		c-0.1-0.1-0.1-0.2-0.2-0.3l-0.1-0.1c-0.1-0.1-0.1-0.2-0.2-0.3l-0.1-0.1c-0.1-0.1-0.1-0.3-0.2-0.4l0-0.1c-0.2-0.3-0.4-0.7-0.5-1l0,0
		c0,0,0,0,0,0l0,0c-0.1-0.1-0.1-0.2-0.2-0.4l0-0.1c-0.1-0.1-0.1-0.3-0.2-0.4l0-0.1c-0.1-0.1-0.1-0.3-0.2-0.4l0-0.1
		c0-0.1-0.1-0.2-0.1-0.2l0,0l-0.1-0.2c-0.1-0.1-0.1-0.2-0.2-0.4l0,0c-0.1-0.1-0.1-0.3-0.2-0.4l0,0c-0.2-0.4-0.3-0.8-0.5-1.1l0,0
		c-0.1-0.2-0.1-0.3-0.2-0.4l0-0.1c-0.1-0.1-0.1-0.3-0.2-0.4l0-0.1c-0.1-0.2-0.1-0.3-0.2-0.5l0,0c-0.2-0.7-0.5-1.4-0.6-2.1l0,0l0,0
		c0-0.2-0.1-0.3-0.1-0.5l0,0c0-0.2-0.1-0.3-0.1-0.5l0,0c-0.2-0.9-0.4-1.8-0.6-2.6l0-0.1c0-0.2-0.1-0.3-0.1-0.5l0,0
		c-0.5-2.9-0.6-5.8-0.4-8.7l0,0c0-0.2,0-0.3,0-0.5l0,0c0-0.2,0-0.3,0-0.5l0-0.1c0-0.1,0-0.3,0-0.5l0-0.1c0-0.1,0-0.3,0-0.4l0-0.1
		c0-0.1,0-0.2,0-0.4l0-0.1c0-0.1,0-0.1,0-0.2l0.1-0.4c0-0.2,0.1-0.3,0.1-0.5c0-0.2,0.1-0.4,0.1-0.6l0,0c0,0,0-0.1,0-0.1l0.1-0.5l0,0
		l0.1-0.4l0.4-0.4c3.8-3.6,7.3-6,9.3-7.2c-0.6-1.2-1-2.5-1.2-3.9c-0.4-2.6-0.2-5.4,0.6-8.3c0-0.1,0-0.1,0-0.2
		c0.2-0.9,0.7-2.9,2.6-3.9c1.4-0.7,3.1-0.8,5.2,0c1.1,0.4,3.3,1,4.4,1.2c3.9,0.6,6.4,1.7,7.7,2.3c4.7-2.3,10.5-3.1,14.1-2.9
		c1.7,0.1,6.1,1.1,8.1,1.8c2.9,1.1,6.2,2.8,7.1,3.3c0.8,0.2,3.2,0.7,5.3,1.5c2,0.8,3.6,2.4,4.7,3.4c0.3,0.3,0.7,0.7,0.8,0.8
		c1.3,0.9,3.1,3.3,3.5,4c0.5,0.8,0.4,1.8,0.3,2.7c3,2.3,4.9,5.6,5.3,6.4c0.6,0.9,0.7,1.8,0.6,2.7c1.4,2.4,1.5,5.3,0.2,8.3
		c-1,2.4-2.6,4.3-3.1,4.9l-0.1,0.1c-0.2,0.2-0.4,0.4-0.6,0.6c-0.1,2.4-1.3,5.7-5.4,9.1c-3.1,2.5-7.5,3.7-11.9,3.1
		c-0.2,0-0.3,0-0.5-0.1c-3.2-0.5-6-1.8-8.1-3.8c-1.1,1.7-2,3.8-1.2,5.1c0,0.1,0.1,0.1,0.1,0.2c0.1,0.1,0.1,0.2,0.2,0.2
		c0.4,0.4,0.7,0.7,1,1.1c0.6,0.6,1.4,1.2,2.1,1.8c2.2,1.8,4.5,3.7,5.2,6.4l0.4,1.5l-1.4,0.7c-5.4,2.7-11.5,4.1-17.6,4.1L129.7,109.6
		z M127.4,105.4c0.3,0.1,0.6,0.1,1,0.1l0.2,0c0.1,0,0.2,0,0.3,0c0.1,0,0.2,0,0.3,0c0.1,0,0.1,0,0.2,0c0.1,0,0.2,0,0.3,0l0,0
		c1.2,0.1,2.4,0.2,3.5,0.2l0.4,0c4.7,0,9.5-1,13.9-2.9c-0.8-1-2-2.1-3.2-3.1c-0.8-0.7-1.7-1.4-2.4-2.1l-0.1-0.1l-0.1-0.1
		c-0.2-0.3-0.5-0.6-0.7-0.8c-0.2-0.2-0.4-0.4-0.5-0.6l0,0c-0.1-0.1-0.2-0.3-0.3-0.4l0,0c-1.4-2.4-0.7-5.2,0.2-7.1
		c1-2.2,2.5-3.8,2.7-4.2l1.6-1.8l1.4,1.9c1.6,2.2,4.5,3.8,7.7,4.2c3.4,0.4,6.8-0.4,9.1-2.3c3.5-2.8,4.1-5.3,4-6.8l0-0.9l0.7-0.6
		c0.3-0.3,0.6-0.6,0.8-0.9l0.1-0.1c0.4-0.5,1.7-2,2.5-3.9c0.9-2.1,0.8-3.9-0.3-5.4l-0.6-0.9l0.4-0.9c0-0.1,0-0.2,0-0.2l-0.1-0.1
		l-0.1-0.2c0,0-2.1-4-5.3-5.9l-1.4-0.8l0.6-1.5c0.1-0.3,0.3-0.8,0.3-1.1c-0.5-0.7-1.7-2.2-2.3-2.6c-0.4-0.3-0.8-0.7-1.3-1.2
		c-0.9-0.9-2.1-2-3.5-2.6c-2.2-0.9-4.8-1.4-4.9-1.4l-0.3-0.1l-0.3-0.2c0,0-3.8-2.1-6.9-3.2c-1.8-0.7-5.8-1.5-7-1.6
		c-2.8-0.2-8.6,0.5-13,2.9l-1.1,0.6l-0.9-0.7c-0.2-0.1-2.3-1.5-7.1-2.3c-1.4-0.2-3.9-0.9-5-1.3c-1.4-0.5-1.9-0.3-2.1-0.2
		c-0.4,0.2-0.6,1-0.7,1.4c0,0.1,0,0.2-0.1,0.3c-1.6,5.8,0.1,9.3,1.2,10.8l1.3,1.8l-2,1c0,0-4.5,2.3-9.7,7.1c0,0.1,0,0.3-0.1,0.4
		c0,0.2,0,0.3-0.1,0.5l0,0.3c0,0,0,0.1,0,0.1l0,0.1c0,0.1,0,0.2,0,0.3l0,0.1c0,0.1,0,0.3,0,0.4l0,0.1c0,0.1,0,0.3,0,0.4l0,0.1
		c0,0.1,0,0.3,0,0.4l0,0c0,0.2,0,0.3,0,0.5c0,0,0,0,0,0c-0.2,2.6,0,5.3,0.4,7.9l0,0c0,0.2,0.1,0.3,0.1,0.5l0,0
		c0.1,0.8,0.3,1.6,0.5,2.4l0,0c0,0.2,0.1,0.3,0.1,0.4l0,0c0,0.2,0.1,0.3,0.1,0.5l0,0c0.2,0.6,0.4,1.2,0.6,1.9c0,0,0,0,0,0
		c0,0.1,0.1,0.3,0.1,0.4l0,0.1c0,0.1,0.1,0.3,0.1,0.4l0,0.1c0.1,0.1,0.1,0.3,0.2,0.4l0,0c0.1,0.3,0.3,0.7,0.4,1l0,0
		c0.1,0.1,0.1,0.3,0.2,0.4l0,0c0,0.1,0.1,0.1,0.1,0.2l0,0l0.1,0.2c0,0.1,0.1,0.2,0.2,0.3l0,0.1c0.1,0.1,0.1,0.2,0.2,0.3l0,0.1
		c0.1,0.1,0.1,0.2,0.2,0.3l0,0.1c0.1,0.1,0.1,0.2,0.2,0.3l0,0.1c0.2,0.3,0.3,0.6,0.5,0.9l0,0.1c0.1,0.1,0.1,0.2,0.2,0.3l0.1,0.1
		c0.1,0.1,0.1,0.2,0.2,0.3l0.1,0.1c0.1,0.1,0.1,0.2,0.2,0.3l0.1,0.1c0.1,0.1,0.1,0.2,0.2,0.3l0,0.1c0.2,0.4,0.5,0.8,0.8,1.2l0,0.1
		c0.1,0.1,0.2,0.2,0.3,0.4l0,0c0.1,0.1,0.2,0.2,0.2,0.3l0,0c0.1,0.1,0.2,0.2,0.3,0.3l0,0c0.1,0.1,0.2,0.2,0.3,0.3l0,0
		c0.1,0.1,0.2,0.2,0.3,0.3l0,0c0.1,0.1,0.2,0.2,0.3,0.3l0,0c0.6,0.7,1.2,1.4,1.8,2l0,0.1c0.1,0.1,0.2,0.3,0.4,0.4l0,0
		c0.1,0.1,0.3,0.3,0.4,0.4l0,0c0.1,0.1,0.3,0.3,0.4,0.4l0.1,0.1c0.1,0.1,0.1,0.1,0.2,0.2l0,0c0.1,0.1,0.2,0.2,0.3,0.3l0,0
		c0.1,0.1,0.2,0.2,0.3,0.3l0.1,0.1c0.1,0.1,0.2,0.2,0.3,0.2l0,0c0.1,0.1,0.2,0.2,0.3,0.3l0,0c0.1,0.1,0.2,0.1,0.2,0.2l0.1,0.1
		c0.1,0.1,0.3,0.2,0.4,0.3l0,0c0.2,0.1,0.3,0.2,0.5,0.4l0.1,0c0.1,0.1,0.3,0.2,0.4,0.3l0,0c0.2,0.1,0.3,0.2,0.5,0.3l0,0
		c0.1,0.1,0.3,0.2,0.4,0.3l0.1,0.1c0.3,0.2,0.6,0.4,1,0.6l0.1,0c0.3,0.2,0.7,0.4,1,0.6l0.1,0c0.1,0.1,0.2,0.1,0.3,0.2l0.2,0.1
		c0.1,0,0.1,0.1,0.2,0.1l0,0c0,0,0,0,0,0c0.1,0,0.2,0.1,0.3,0.1l0.1,0.1c0.1,0.1,0.2,0.1,0.3,0.2l0.1,0.1l0.1,0
		c0.2,0.1,0.3,0.2,0.5,0.2l0,0c0.2,0.1,0.3,0.2,0.5,0.2l0.1,0c0.3,0.1,0.5,0.2,0.8,0.4l0,0l0.4,0.2c0.3,0.1,0.7,0.3,1.1,0.4l0.1,0
		c0.1,0,0.2,0.1,0.3,0.1l0.2,0.1c0.1,0,0.1,0,0.2,0.1l0.1,0c0.1,0,0.2,0.1,0.3,0.1l0.2,0.1c0.1,0,0.2,0.1,0.4,0.1l0,0l0,0l0.1,0
		c0.1,0,0.3,0.1,0.4,0.1l0.2,0.1c0.2,0.1,0.3,0.1,0.5,0.2l0.3,0.1c0.1,0,0.2,0.1,0.3,0.1l0.3,0.1c0.1,0,0.1,0,0.2,0l0.6,0.1l0.5,0.1
		c0.1,0,0.1,0,0.2,0l0.6,0.1c0,0,0.1,0,0.1,0l0.1,0c0,0,0.1,0,0.1,0l0.1,0c0.1,0,0.1,0,0.2,0L127.4,105.4L127.4,105.4z"/>
</g>
<path class="st1" d="M127.1,109.9c-5.3-0.8-10.3-2.7-14.8-5.5c-4.4-2.7-8.1-6.2-11.1-10.4c-3-4.2-5.2-8.8-6.4-13.8
	c-1.3-5.2-1.5-10.5-0.7-15.8s2.7-10.3,5.5-14.8c2.7-4.4,6.2-8.1,10.4-11.1c4.2-3,8.8-5.2,13.8-6.4c5.2-1.3,10.5-1.5,15.8-0.7
	s10.3,2.7,14.8,5.5c4.4,2.7,8.1,6.2,11.1,10.4c3,4.2,5.2,8.8,6.4,13.8c1.3,5.2,1.5,10.5,0.7,15.7s-2.7,10.3-5.5,14.8
	c-2.7,4.4-6.2,8.1-10.4,11.1c-4.2,3-8.8,5.2-13.8,6.4C137.7,110.5,132.4,110.7,127.1,109.9z M139.2,33.2c-5.1-0.8-10.1-0.6-15,0.7
	c-4.8,1.2-9.2,3.3-13.2,6.2c-4,2.9-7.3,6.5-9.9,10.6c-2.7,4.3-4.4,9.1-5.2,14.1s-0.6,10.1,0.7,15c1.2,4.8,3.3,9.2,6.2,13.2
	c2.9,4,6.5,7.3,10.6,9.9c4.3,2.7,9.1,4.4,14.1,5.2c5.1,0.8,10.1,0.6,15-0.7c4.8-1.2,9.2-3.3,13.2-6.2c4-2.9,7.3-6.5,9.9-10.6
	c2.7-4.3,4.4-9.1,5.2-14.1s0.6-10.1-0.7-15c-1.2-4.8-3.3-9.2-6.2-13.2c-2.9-4-6.5-7.3-10.6-9.9C149,35.8,144.2,34,139.2,33.2z"/>
<path class="st1" d="M171.7,66.9l-0.1-0.1l0.1-0.1c0,0,0.4-1-0.2-1.8l0,0l0,0c-1.4-2.3-4.1-5.4-6.6-7c0.1-0.6,0.3-1.9,0-2.4
	c-0.4-0.7-2.2-2.8-3.1-3.4c-0.3-0.2-0.7-0.6-1.2-1.1c-1-1-2.1-1.8-3.7-2.5c-2.4-1-4.3-1-4.4-1.1l-2.4-1.6l0,0c-0.1,0-6.1-3-9.8-3.5
	c-0.1,0-0.3,0-0.4,0c-3.1-0.3-11.2,1.5-15.8,3.5c0,0-3.4-2.1-8.4-3.2c-1.4-0.3-3.7-1.1-4.8-1.2c-2.2-0.1-1.7-0.4-2.7-0.1
	c-0.9,0.3-1.1,1.9-1.2,2.2c-1.1,3.2-0.8,5.1-0.7,6.8c0.2,1.9,0.5,3.5,1.3,4.5l1.5,1.5l-1.8,0.7c-0.1,0-3.5,1.6-10.4,7.7
	c0,0,0,0-0.1,0c0,0.1,0,0.1,0,0.2c-3.2,20.2,10.6,39.2,30.9,42.4c0.7,0.1,1.3,0.2,2,0.3c0.1-0.1,0.2-0.1,0.3-0.2
	c4.3-2.3,6.8-5.7,10.4-6c-0.3-0.3-1.5-3.7-1.8-4.2c-0.8-1.3-0.2-5.5,1.2-9c0.8-2,2.3-3.2,4.7-3.7c0.6-0.1,1.2-0.1,1.6-0.1
	c1.2,0.2,1.3,0.9,1.3,0.9l0,0.1l0,0.1c0,0-0.3,0.9,0.1,2.4c0.4-0.1,0.7,0.1,1.5-0.1l0.2,0l0.1,0.2c0,0.1,1.4,0.5,0.9,1.5
	c0.9,0.1,2.4,0.7,4,0.3c2.5-0.7,4.8-1.7,4.8-1.7l0.5-0.2l-0.1,0.5c0,0-0.1,0.6-0.3,1.3c0.8-0.2,2.2-0.6,3.2-1.5
	c1.5-1.2,2-1.7,2.4-3.1l0.1-0.3l0.3,0.2c0.1,0.1,0.7-0.6,1,0c0.7-1.1,2.3-2.7,1.6-5l-0.1-0.2l0.2-0.1c0,0,0.7-0.5,1.4-1.4
	c0,0,0.1-0.1,0.1-0.1C173,73.8,173.8,70,171.7,66.9z"/>
<path class="st2" d="M154.3,69.7c-3.3-0.9-6.7-1.3-10-1.6c-4-0.3-7.9-0.2-11.9,0.4c0,0,10.1-2.5,22.9,0.7L154.3,69.7z"/>
<path class="st2" d="M160.3,66.8c-6.9-4.2-14.9-6.7-23-7.2c-1.2-0.1-2.5-0.1-3.7,0c0,0,15.4-2.2,27.8,7.1L160.3,66.8z"/>
<path class="st2" d="M158.7,68.8c-3.6-1.5-7.5-2.5-11.3-3.3c-4.7-1-9.5-1.5-14.3-1.4c-2.7,0.1-5.5,0.3-8.1,0.9c0,0,3.1-1.1,8.1-1.5
	c7-0.5,18.3,0.8,25.9,5L158.7,68.8z"/>
<path class="st0" d="M148.7,54.5c-1.6,0-3.3,0.3-4.8,0.9c1.2,1.2,3,1.8,4.6,2.2c0.3,0.1,0.7,0.1,1-0.1c0.1-0.1,0.2-0.3,0.2-0.5
	c0.1-0.4,0.2-0.8,0.2-1.3s-0.2-1-0.6-1.1L148.7,54.5z"/>
<path class="st0" d="M154.2,62.5c0.8,0.4,1.9,1,2.6,1.4c1.5-0.1,2.6,0.2,3.4,0.5C160.2,64.4,157.6,62.5,154.2,62.5z"/>
<path class="st2" d="M162.9,52.5c0.9,1,1.7,2.2,1.6,3.5c-0.1,0.7-0.4,1.3-0.9,1.7s-1.4,0.5-1.9,0l-0.4,0c0.8-0.2,1.9-1,1.6-2.5
	c0-0.2-1.2-1.5-2.6-2.8c-0.4-0.4-0.7-0.4-1.2-0.8c-0.7-0.7-1.6-1.3-2.4-1.7c-0.8-0.4-1.3-0.5-2.1-0.9c-0.9-0.3-1.7-0.3-2-1.2
	C156.4,47.9,160.2,49.6,162.9,52.5z"/>
<path d="M144.6,52.5c0.7,0.3,1.6,0.5,2.7,1.2c-2.5-0.5-4.9,1.2-5.1,1.4c0.3,0.7,0.9,1.2,1.6,1.5c0,0-1.5,0.5-2,0.7
	c4.2,0,9.2,0.9,13.1,3.2c-0.8-1.1-1.8-1.9-3.3-2.7c1.7,0.2,6.2,1.3,10.1,5.3c0,0-2.3-3.6-5.2-5.3c0.6-0.3,1.5-1,1.4-2.4
	c0,0-0.4,0.5-1.1,0.8c-0.6,0.2-1.5,0.2-2.1-0.2c-0.4-0.2-2.1-1.3-3.4-2.2c-1.4-0.9-2.6-1.7-5.4-3c-2.7-1.2-7.3,1.6-7.3,1.6
	S142.3,51.6,144.6,52.5z M148,56.2c0.1,0.5,0.4,0.2,0.5,0.2c0.3-0.4,0.5-0.7,0.5-1.1c0.3,0.2,0.4,0.5,0.4,0.9
	c-0.1,0.4-0.2,0.6-0.4,0.6c-0.5,0.2-2.7-0.3-3.6-0.8c-0.6-0.4-0.6-0.5-0.1-0.7c0.9-0.2,1.1-0.3,1.9-0.2
	C147.5,55.1,147.8,55.6,148,56.2z"/>
<path class="st1" d="M171.6,70.8c0-2.1-0.9-4.1-0.9-4.1s-0.1-1.4-0.4-2.4c-0.3-0.8-4.3-4.6-5.8-6.1c-0.5-0.2-1-0.4-1.5-0.6l0,0.6
	c0,0,0.5-0.7,3.3,2.7c2.2,2.7,2.3,4,2.3,4s-1.3-0.4-3-0.6c-3-0.3-3.3,0.5-3.3,0.5s-2.7-1.2-5.9-1.5c-3.2-0.4-5.5,0.3-6.4,2.2
	s-1.7,5.3-1.7,5.3s-0.3,0-0.8,0.2c1.3,0.2,2.6,0.4,3,1.2c3.9,7,13.8,4.2,14.2,3.9c0.4-0.3,0.2,0.9,0.4,1c0.1,0.1,0.1-0.4,1.3,2.4
	c0.2,0.6,0,2.3-0.6,4.5c0.2-0.2,0.8-1.1,1-2.2c0.2-1.3,0.4-2.4,0.4-2.4s1.9-0.9,2.6-2.3C170.3,75.6,171.5,72.9,171.6,70.8z"/>
<g>
	<path class="st2" d="M154.1,64.9c3.2,0.4,5.9,1.5,5.9,1.5s0.3-0.8,3.3-0.5c1.7,0.2,3,0.6,3,0.6s0-0.7-0.9-2.2
		c-2.9-0.3-3.2,0.5-3.2,0.5s-2.7-1.2-5.9-1.5c-3-0.3-5.2,0.2-6.2,1.8C151.2,64.8,152.5,64.7,154.1,64.9z"/>
	<path class="st2" d="M171.6,70.8c0-2.1-0.9-4.1-0.9-4.1s-0.1-1.4-0.4-2.4c-0.3-0.8-4.3-4.6-5.8-6.1c-0.5-0.2-1-0.4-1.5-0.6l0,0.6
		c0,0,0.5-0.7,3.3,2.7c2.2,2.7,2.3,4,2.3,4s-0.6-0.2-1.5-0.4c0.6,0.6,1,1.1,1,1.3c0.4,1,0.4,2.4,0.4,2.4s0.9,2,0.9,4.1
		c0,2.1-1.2,4.8-1.9,6.2c-0.3,0.5-0.7,1-1.1,1.3c0,0.8-0.3,2.2-0.7,3.9c0.2-0.2,0.8-1.1,1-2.2c0.2-1.3,0.4-2.4,0.4-2.4
		s1.9-0.9,2.6-2.3C170.3,75.6,171.5,72.9,171.6,70.8z"/>
</g>
<path class="st2" d="M171.4,66.6c0,0-0.1-1.4-0.4-2.4c-0.3-0.8-4.3-4.6-5.8-6c-0.5-0.2-1-0.4-1.5-0.6l0,0.6c0,0,0.5-0.7,3.3,2.7
	c2.2,2.7,2.3,4,2.3,4s-1.3-0.4-3-0.6c-3-0.3-3.3,0.5-3.3,0.5s-2.7-1.2-5.9-1.5c-2.5-0.3-4.5,0.1-5.7,1.2c6.5,3.2,11.8,8.5-9.1,12.8
	c-27.5,5.7-24-12-22.2-17.6c-1.2,1-3.1,3-4.8,6.2c-3.7,6.7,3,14.5,3.2,15.1c0.2,0.6,19.1,4.6,19.3,4.2s7-2.6,8.6-2.7
	c1.6-0.1,3.5,2.2,3.7,2.6c0.1,0.5,0.9,1.9,2.1,2.1c1.3,0.3,4.1,0.8,5.4,0.7s2.5-0.4,3.2-0.3s1.7,0.1,2-0.2c0.3-0.3,2.6-3,2.8-3.4
	c0.1-0.4,0.8-0.2,0.8-0.2s0.8-0.9,1-2.2s0.4-2.4,0.4-2.4s1.9-0.9,2.6-2.3c0.7-1.4,1.9-4.1,1.9-6.2C172.3,68.5,171.4,66.6,171.4,66.6
	z"/>
<g>
	<path d="M127.7,107.3c1.4,0.2,2.8,0.3,4.1,0.4c0.4-0.9,0.9-2,1.3-3.1c0.6-1.5,0.9-3.2,1.1-4.8C132.7,102.8,130.4,105.4,127.7,107.3
		z"/>
	<path d="M171.9,66.7c0,0,0.5-1.2-0.2-2c0,0-2.3-4.4-5.9-6.6c0,0,0.8-1.8,0.3-2.5c-0.4-0.7-2.1-2.8-3-3.4c-0.9-0.6-2.7-2.9-5.1-3.9
		c-2.4-1-5.2-1.5-5.2-1.5s-3.9-2.2-7.1-3.4c-1.9-0.7-6.2-1.7-7.6-1.7c-3.3-0.2-9.3,0.6-14,3.2c0,0-2.4-1.7-8-2.6
		c-1.3-0.2-3.6-0.9-4.7-1.3c-4.6-1.6-5.1,1.8-5.4,2.8c-1.6,5.9-0.3,10,1.5,12.4c0,0-4.9,2.4-10.6,7.9c-0.1,0.3-0.1,0.7-0.2,1
		c-0.1,0.5-0.1,1-0.2,1.5c2.6-3,5.6-5.7,9-7.5c3.5,0.8,6.1,1.1,8.7-0.7c1.2-0.1,1.9-0.5,1.9-0.5c-1.2-0.3-6.9-1.1-8.1-7.3
		c-0.4-2.2-0.7-8.4,2-8.1c1.9,0.2,2.8,0.7,3.7,0.8c7.3,1.1,9.1,3,9.1,3.1c-1.2,0.9-1.8,2.6-2,3.6c1.3-1.2,3.9-3.1,7.8-4.8
		c2.7-1.2,5-1.7,9.8-1.4c6.1,0.7,11.9,3,14.7,5c0.8,0.6,4.9,3.3,4.9,3.3c-0.3-0.4-1.5-2.4-3.1-3.3c-0.4-0.2,0.7-0.1,2.2,0.5
		c2.4,0.9,3.8,2.7,4.2,3.1c0.4,0.4,1.6,1.6,2.2,2.3c0.5,0.6,0.4,0.6,0.5,0.9c-0.2,0.9-1,1.8-1.8,1.5c0.2-0.3,0.2-1.4-0.5-2.2
		c0,1.2-1.2,2.8-2.5,3c1.1,0.1,2,0.1,2.9,0.3c1.3,0.5,1.9,1.5,4.3,4.2c0,0,0.1-0.5-0.4-1.5s-1-1.7-1-1.7l0.3,0.1
		c0.6,0.5,1.3,1.2,2.1,2.1c2.3,2.6,2.4,3.3,2.4,3.3s-0.4,0.1-1.4,0c-1.3-0.2-3-1.4-4.7-1.2c-0.8,0-1.2,0.5-1.5,1.1
		c-0.6-0.7-2.1-1.5-3.5-2c-1.3-0.4-3.5-0.6-4.6-0.1c1.6,0.4,2.5,0.9,2.8,1.5c1.7-0.1,4.2,0.6,5.2,1.6c0,0,0,0,0,0c0,0,0,0,0,0
		c0,0,0,0,0,0c0,0,0,0,0,0c0.2,0,0.9,0.2,2.6,0.7c0.5,0.1,1.7,0.6,1.8,0.7c-1.1,0.1-2-0.1-2.3,0c-0.4,0,2.1,0.9,2.8,3
		c0,0,2.4-0.6,3.1-1.9c0,0,0.4,0.1,0.6,1.5c0.3,2-0.8,6.7-4.2,8.6c-0.5-0.8-0.7-1.2-0.7-1.2c0-0.2-0.1-1,0-1.1
		c0.8-1.3,1-3.3,1.1-4.3c0-0.5,0-0.7,0-0.7s-0.7,3-2.4,4.5c-0.5,0.4-2,1.1-2.4,1c-0.1,0-3,0.1-5.2-0.1c-5.5-0.4-7.9-2.6-10.1-2
		c-2.1,0.6-1.8,2.8-1.2,3c0.1,0.1,9.3-0.1,11.5,0.1c3.3,0.2,6.3,0.6,6.3,0.6c0.9,0.1,1.8,1.5,1.8,1.5c0.5,1.1,0.4,2.4-0.1,3.1
		l-1.1-1.1c0,0-0.2,2-0.6,2.7c-1.6,2.4-2.7,2.6-2.7,2.6s0.8-1.8-0.2-2.2c-0.3,0.9-1.4,1.6-2,1.8c-3.2,1.1-5.3,0.5-6.7,0
		c0,0,1.6-3.1-2.3-5c-4.6-1.9-6.6-0.7-7.1-4.2c0-0.2-0.3-0.3-0.4-0.1c-0.3,0.6-0.4,1.6-0.4,2.4c0.3,0.9,0.6,1.6,0.6,1.6
		s-2.1,0.7-4.9,1.5c-2.8,0.8-5.3,0.2-5.3,0.2l1.8,0.8c0,0-14-0.6-17.5-9.1c-2.8-6.9,0.9-12.6,2.4-14.6c-7.7,5.1-9.2,15.1-8.6,24.4
		c-0.9-2.8-1.3-6-1.1-9c-1.4,4.5-2.2,7.6-2.4,11.4s0,8.3,1.9,11.6c-1.1-0.7-2.3-3.1-2.9-4.7c0.1,0.6,0.2,1.5,0.4,2.5
		c4.7,5,10.7,8.8,17.7,10.6c1.6-6.2,5.3-14.2,13.5-19c0,0-5.3,4.1-6.2,11.5c0,0,1.7-3.6,5.3-6.2c0,0,0.8,8.7-3.3,15
		c5.9,0,11.7-1.4,16.7-3.9c-1-4.2-7.7-6.5-9-10.6c-1,1.9-0.3,6-0.2,6.7c-2.2-3.4-2-7.8-1.1-10c0.3-1.2,2.6-4.6,4.9-5
		c2.4-0.4,2.6,0.6,2.6,0.6s-0.5,1,0.2,2.7c0,0,0.7,0.2,1.8,0c0,0,1.6,0.4,0.8,1.3c0,0,2.3,1.1,4.5,0.6c2.5-0.7,4.9-1.8,4.9-1.8
		s-0.1,0.9-0.5,1.7c0,0,2.4-0.4,3.8-1.6s2-1.8,2.5-3.2c0,0,1-0.8,1.1,0c0,0,3-2.2,2-5.3c0,0,0.7-0.5,1.5-1.5
		C170.3,77.5,175.4,71.7,171.9,66.7z"/>
	<path d="M96.6,76.2c0.8,5.5,2.9,10.7,6,15.2c-1.6-4.8-2.3-10.8,0.8-15.9c0,0-1.5,0.1-2.5,0.6c0,0,3-11.1,10.9-14.1
		C105.1,63.9,100.1,69.8,96.6,76.2z"/>
</g>
<path d="M147.4,65.5c-4.7-1-9.5-1.5-14.3-1.4c-2.7,0.1-5.5,0.3-8.1,0.9c4.9-0.8,10-0.4,14.9,0.2c2.9,0.4,5.9,0.9,8.8,1.6
	c-0.2,0.4-0.4,0.8-0.5,1.2c1.1,0.1,2.1,0.4,3.2,0.3c1-0.1,2.1,0,3.1,0.2c0.6,0.1,1.2,0.2,1.8,0.4c0.6,0.2,2.5,0.8,3.1,0.8
	c0.1,0,1-0.2,0.8-0.3C156.4,67.8,151.2,66.3,147.4,65.5z"/>
<path d="M151.7,63.3c-0.8,0.4-1.5,1-2,1.7c0.5,0.1,1,0.3,1.5,0.4c0.2,0,1.2,0.3,1.3,0.3c0.5-0.2,1-0.7,4.9,0.4
	c0.6,0.2,1.3,0.2,2,0.2c-6-3.7-12.3-6.2-20.6-6.7c-1.1-0.1-2.1-0.1-3.2,0C141.1,59.9,146.6,61.2,151.7,63.3z"/>
<path d="M144.5,68c-4-0.2-8.1-0.2-12.1,0.4c5.1-0.1,10.3,0,15.3,0.8c0,0.2-0.1,0.9-0.2,1c0,0-0.2,0-0.2,0c-0.3,0.1-0.7,0.1-1.1,0.1
	c-1.2,0.3-2.2,1-2.8,2.1c-0.2,0.3-0.4,0.7-0.5,1.1c-0.1,0.3-0.1,0.5,0.2,0.3c0.3-0.2,0.5-0.5,0.8-0.7c1-0.8,2.3-1.4,3.6-1.4
	c1,0,2,0.3,2.9,0.7c0.2,0.1,2.2,1,2.3,0.8c0-0.1-1.5-1.2-1.7-1.4c-0.2-0.2-0.4-0.3-0.3-0.7c0.1-0.3,0.4-0.5,0.7-0.6
	c0.6-0.3,3.4,0.2,4,0c0.1,0,0.7-0.3,0.7-0.3C153.1,69.3,148.4,68.3,144.5,68z"/>
<path d="M150.8,56.8l-2.9-1.9c0,0-0.9-0.1-1.1,0.6C146.6,56.3,147.5,57.3,150.8,56.8z"/>
<path class="st1" d="M126.2,116c-6.1-1-11.9-3.1-17.1-6.3c-5-3.1-9.4-7.2-12.9-12s-6-10.2-7.4-15.9c-1.5-6-1.8-12.1-0.8-18.2
	s3.1-11.9,6.3-17.1c3.1-5,7.2-9.4,12-12.9c4.8-3.5,10.2-6,15.9-7.4c6-1.5,12.1-1.8,18.2-0.8c6.1,1,11.9,3.1,17.1,6.3
	c5,3.1,9.4,7.2,12.9,12s6,10.2,7.4,15.9c1.5,6,1.8,12.1,0.8,18.2s-3.1,11.9-6.3,17.1c-3.1,5-7.2,9.4-12,12.9
	c-4.8,3.5-10.2,6-15.9,7.4C138.4,116.7,132.3,116.9,126.2,116z M140.2,26.7c-5.9-0.9-11.9-0.7-17.6,0.8c-5.6,1.4-10.8,3.8-15.4,7.2
	s-8.6,7.6-11.6,12.5c-3.1,5.1-5.2,10.6-6.1,16.6s-0.7,11.9,0.8,17.6c1.4,5.6,3.8,10.8,7.2,15.4s7.6,8.6,12.5,11.6
	c5.1,3.1,10.6,5.2,16.6,6.1s11.9,0.7,17.6-0.8c5.6-1.4,10.8-3.8,15.4-7.2s8.6-7.6,11.6-12.5c3.1-5.1,5.2-10.6,6.1-16.6
	c0.9-5.9,0.7-11.9-0.8-17.6c-1.4-5.6-3.8-10.8-7.2-15.4c-3.4-4.7-7.6-8.6-12.5-11.6C151.7,29.7,146.1,27.7,140.2,26.7z"/>
<path class="st1" d="M133.3,133.9c-0.1,0-0.2,0-0.3,0c-16.9-0.1-32.7-6.7-44.6-18.7c-11.9-12-18.4-27.9-18.3-44.8
	c0.1-16.9,6.7-32.7,18.7-44.6c12-11.9,27.9-18.4,44.8-18.3c34.9,0.1,63.1,28.6,63,63.5c-0.1,16.9-6.7,32.7-18.7,44.6
	C165.9,127.4,150.1,133.9,133.3,133.9z M133.3,9.4c-16.3,0-31.6,6.3-43.2,17.8C78.5,38.7,72.1,54.1,72,70.4
	c-0.1,16.4,6.3,31.8,17.8,43.4c11.5,11.6,26.9,18.1,43.3,18.1c16.4,0.1,31.8-6.3,43.4-17.8c11.6-11.5,18.1-26.9,18.1-43.3
	c0.1-33.8-27.3-61.4-61.1-61.5C133.5,9.4,133.4,9.4,133.3,9.4z M133.3,116.8c-0.1,0-0.1,0-0.2,0l0,0c-25.4-0.1-46-20.9-45.9-46.3
	c0.1-25.4,20.8-46,46.1-46c0.1,0,0.1,0,0.2,0c25.4,0.1,46,20.9,45.9,46.3c0,12.3-4.9,23.9-13.6,32.6
	C157.1,112,145.6,116.8,133.3,116.8z M133.2,114.9c0.1,0,0.1,0,0.2,0c11.7,0,22.8-4.6,31.1-12.8c8.4-8.3,13-19.4,13.1-31.2
	c0.1-24.4-19.7-44.3-44.1-44.4c-0.1,0-0.1,0-0.2,0c-24.3,0-44.1,19.7-44.2,44.1C89,94.8,108.8,114.8,133.2,114.9L133.2,114.9z"/>
<path d="M150.6,55c0,0-4.1-0.8-5.4-0.2s-1,1.3-0.6,1.5c0.4,0.2,3.3,0.6,3.3,0.6s1.8,0.9,2.3,0.2c0.7-1.1,0.7-1.1,0.7-1.1"/>
<path class="st1" d="M83.4,72.1l0.2-1.5l-7.3-0.9l-0.2,1.5l-2.4-0.3l1.6-13l2.5-1.9l3.7,0.5l1.9,2.5l-0.9,7.6l1.6,0.2l0.3-2.1
	l2.4,0.3l-0.9,7.5L83.4,72.1z M80.7,60.9l-0.5-0.7L78.1,60l-0.7,0.5l-0.7,5.2l3.2,0.4L80.7,60.9z"/>
<path class="st1" d="M86.5,53.3l0.5-0.9L82.1,46l-0.9,1.6l-2.1-1.2l5.8-10.2l2.1,1.2l-1,1.7l8,0.9l0.5-0.9l2.1,1.2l-3.2,5.7l-2-1.2
	l0.7-1.2l-1.5-0.2l-2.7,4.7l0.9,1.1l0.8-1.3l2,1.2l-3.1,5.3L86.5,53.3z M86.4,46.3l1.8-3.1l-4.1-0.6l-0.3,0.6L86.4,46.3z"/>
<path class="st1" d="M173.2,39.6l0.7,1.3l6.4-3.7l-0.7-1.3l2.1-1.2l6.6,11.6l-0.7,2.6l-2.6,1.5l-1.9-0.5l-0.5,1.9l-1.8,1l0.5,0.9
	l-2.1,1.2l-2-3.5l0.4-1.4l2.5-1.4l0.2-0.8l-2.5-4.5l-1.8,1.1l0.9,1.6l-2.1,1.2l-3.7-6.4L173.2,39.6z M182.4,46.5l0.8,0.2l1.3-0.7
	l0.2-0.9l-2.5-4.4l-2.4,1.4L182.4,46.5z"/>
<path d="M168.1,77.5c0,0,2.4,4.8-4.3,10.3c-6.7,5.5-19.8,2.8-21.4-6.7s2.1-1.4,2.2-1.3"/>
<path class="st2" d="M121.1,46.2c-0.6,0.1-0.8,1.1-1,1.7c-1.8-0.8-2.8-1.7-3.7-2.6c-0.3,0.7,0.1,1.1,0.4,1.7
	c-2.3-1.1-4.7-2.4-5.9-3.9c1.5,0.7,1.9,0.7,3.8,1C118.2,44.8,119.7,45.5,121.1,46.2z"/>
<path class="st2" d="M122.7,50.4c0,0,4.9-6.2,14.3-6.1c6.6,0.1,13,3.6,13,3.6s-8.1-3.5-17-1.8C129.7,46.7,126.1,48,122.7,50.4z"/>
<path class="st2" d="M96.7,64.9c-0.2,1.3-0.3,2.7-0.4,4c2.9-4.3,6.4-8.1,10.5-10.1l-0.9-1c0,0-4.1,1.5-9.1,6.4
	C96.7,64.5,96.7,64.7,96.7,64.9z"/>
<path d="M110.1,46.3c-0.5,2.3-0.2,8.6,5.5,9.2c0.5,0.3,0.8,0.6,1.1,1.2c0.2-0.6,0.9-1.6,1.2-2.2c-0.4,0.3-1.1,0-1.8-0.6
	c1-0.1,1.4,0,2.3-0.5c-1.4,0-2.5-0.7-3-1.9c0.8,0.3,3.2,1,4.1,0.1c-1-0.4-1.2-1-2.2-1.5c1.9,0.2,1.1-0.2,2.4-1
	c-1.3-0.3-2.3-0.8-3.6-1.4C111.8,46.1,110.6,43.7,110.1,46.3z M115.4,55.1l-0.5-0.2C115.1,54.9,115.3,55,115.4,55.1z"/>
<path d="M127.5,107.3c3.1,0.5,6.1,0.6,9,0.3c2.2-1.4,4.3-2.6,6.3-3.5c-5.2-1.5-9.4-10.1-1.5-18.9c-4.4-0.2-18.5,7.2-21.1,20.2
	C122.6,106.3,125,106.9,127.5,107.3z"/>
<path class="st4" d="M103.4,47.9"/>
<path d="M150.4,87.7c0,0,8.7-0.2,10.4-2.5s3.6-5.2,3.7-5.4s0.7-0.8,1-0.8s0.6-0.3,0.9,0.3s0.5,1.4,0.5,1.8c0,0.4,1.5-0.2-0.3,1.6
	s-2.2,2.9-3.7,3.9s-1.4,1-1.4,1s-0.8,0.7-1.7,0.6s-3.9,0.6-3.9,0.6"/>
<path class="st2" d="M127.5,107.3c1.2,0.2,2.5,0.3,3.7,0.4c1.3-1.1,2.1-1.9,2.1-1.9c-4.6-5.6,0.7-17.9,1.4-19.5
	c0.1,0,0.1-0.1,0.2-0.1c0,0-0.1,0-0.1,0c0,0,0-0.1,0-0.1c0,0-0.1,0-0.1,0.1c-1.9,0-14.4,0.2-18-6.1c-0.3,0.2-1.2,4.8,2.8,25
	C122,106.1,124.7,106.9,127.5,107.3z"/>
<path d="M144.5,85.3c-0.1,0.1-5.9,6.5-2.3,10s1.4,5.6,1.4,5.6l-4.1,1.4c0,0-2-1.1-2.1-2.2c-0.2-1.1,0-3.7,0.1-6s1.1-5.3,1.1-5.7
	s0.8-2,0.8-2s1.3-1.6,1.8-2.3s1.2-1.4,2.1-1.3c0.9,0.1,1.1,0.2,1.4,0.3"/>
<path d="M137.7,86c0,0-5.7,1.9-8.5,1.1l1.3,1c0,0-3.5,0.1-6.3-3"/>
<path class="st2" d="M151.8,78.8c0,0-2.7,0.9-0.6,3.7c2.1,2.8-0.4,4.6-0.4,4.6c6.8,0.7,11.4,0,13.4-3.9c2-3.9-0.7-5.2-0.7-5.2
	L151.8,78.8z"/>
<path d="M161.5,77.7c0,0,3.2,0.3,3.4,2.2c0.2,2-2.4,7.7-9.5,6.9s-6.5-4.8-9.9-6.2s1.7,6.1,1.9,6.8s1.5,2,3.7,2c2.1,0.1,7.7,0,7.7,0
	s2.2-0.5,3.4-1.3c1.2-0.9,2.5-1.6,2.8-2.6c0.4-1.1,0.9-1.4,1-2.5c0.1-1.1,0.7-1.7,0.4-2.6s0-1-0.4-1.6c-0.5-0.6-0.3-0.9-1.3-1.3
	s-1.4-0.8-2-0.6"/>
<path class="st2" d="M144.4,79.9c0,0,4.1,0.9,4.6,2.1c0.5,1.2,0.6,3.9,4.7,4.7s9.2-3.3,8.9-3.8s-1.3-1.3-2.1-1.9"/>
<path class="st2" d="M116.4,103.7c-3-13.1-6.3-34.7,1.8-43.9c-0.4-0.1-8.8,1.8-8.8,1.8l-3.7,3.4c-0.3,0-4.4,4.2-8,15.9
	C100.4,90.6,107.2,99,116.4,103.7z"/>
<path d="M120.2,105.4c-0.1-7.7,1.3-17.7,8.7-20.5c0,0-7.9-2-11.6-5s-3-2.1-3.3-2c-0.2,0.1,2.6,15.7,4.6,26.8
	C119.2,105,119.7,105.2,120.2,105.4z"/>
<polygon class="st1" points="81.6,77.5 83.1,80.5 86.4,81 84,83.3 84.5,86.6 81.6,85.1 78.6,86.6 79.2,83.3 76.8,81 80.1,80.5 "/>
<polygon class="st1" points="185.8,77.5 187.3,80.5 190.6,81 188.2,83.3 188.7,86.6 185.8,85.1 182.8,86.6 183.4,83.3 181,81 
	184.3,80.5 "/>
<path class="st1" d="M119.9,59.2c-0.3,0.2-18.2,11-17.2,34.3L97,80.9c0,0,5.3-16.8,13.2-20.2"/>
<path class="st1" d="M83.4,72.1l0.2-1.5l-7.3-0.9l-0.2,1.5l-2.4-0.3l1.6-13l2.5-1.9l3.7,0.5l1.9,2.5l-0.9,7.6l1.6,0.2l0.3-2.1
	l2.4,0.3l-0.9,7.5L83.4,72.1z M80.7,60.9l-0.5-0.7L78.1,60l-0.7,0.5l-0.7,5.2l3.2,0.4L80.7,60.9z"/>
<path class="st1" d="M86.5,53.3l0.5-0.9L82.1,46l-0.9,1.6l-2.1-1.2l5.8-10.2l2.1,1.2l-1,1.7l8,0.9l0.5-0.9l2.1,1.2l-3.2,5.7l-2-1.2
	l0.7-1.2l-1.5-0.2l-2.7,4.7l0.9,1.1l0.8-1.3l2,1.2l-3.1,5.3L86.5,53.3z M86.4,46.3l1.8-3.1l-4.1-0.6l-0.3,0.6L86.4,46.3z"/>
<path class="st1" d="M98,34.7l1.2-0.9l-4.2-6l-1.2,0.9l-1.4-2l5.5-3.9l8.7,3.9l-3.3-4.7l-1.4,1l-1.4-2l5.4-3.8l1.4,2l-1.2,0.8l5.7,8
	l-4.3,3l-8.8-4l3.4,4.8l1.3-0.9l1.4,2l-5.3,3.8L98,34.7z"/>
<path class="st1" d="M119.9,22.9l2.2-0.4l-1.4-7.2l-2.1,0.4l0.5,2.3l-3,0.6l-0.9-4.7l14-2.8l0.9,4.7l-3,0.6l-0.5-2.3l-2.1,0.4
	l1.4,7.2l2.2-0.4l0.5,2.4l-8.2,1.6L119.9,22.9z"/>
<path class="st1" d="M136.5,20.2l1.5,0.3l1.6-7.2l-1.5-0.3l0.5-2.4l6.8,1.5l-0.5,2.4l-1.5-0.3l-0.5,2.2l5.5,1.2l0.5-2.2l-1.5-0.3
	l0.5-2.4l6.8,1.5l-0.5,2.4l-1.5-0.3l-1.6,7.2l1.5,0.3l-0.5,2.4l-6.8-1.5l0.5-2.4l1.5,0.3l0.5-2.1l-5.5-1.2l-0.5,2.1l1.5,0.3
	l-0.5,2.4l-6.8-1.5L136.5,20.2z"/>
<path class="st1" d="M158.1,26.7l1.2,0.9l4.4-5.9l-1.2-0.9l1.4-2l11.3,8.4l-2.2,3l-2.8-2.1l0.8-1.1l-4.1-3.1l-1.4,1.9L171,30
	l-1.5,2.1L164,28l-1.5,2l4.1,3.1l0.8-1.1l2.8,2.1l-2.3,3.1l-11.3-8.4L158.1,26.7z"/>
<path class="st1" d="M173.2,39.6l0.7,1.3l6.4-3.7l-0.7-1.3l2.1-1.2l6.6,11.6l-0.7,2.6l-2.6,1.5l-1.9-0.5l-0.5,1.9l-1.8,1l0.5,0.9
	l-2.1,1.2l-2-3.5l0.4-1.4l2.5-1.4l0.2-0.8l-2.5-4.5l-1.8,1.1l0.9,1.6l-2.1,1.2l-3.7-6.4L173.2,39.6z M182.4,46.5l0.8,0.2l1.3-0.7
	l0.2-0.9l-2.5-4.4l-2.4,1.4L182.4,46.5z"/>
<path d="M168.1,77.5c0,0,2.4,4.8-4.3,10.3c-6.7,5.5-19.8,2.8-21.4-6.7s2.1-1.4,2.2-1.3"/>
<path class="st2" d="M121.1,46.2c-0.6,0.1-0.8,1.1-1,1.7c-1.8-0.8-2.8-1.7-3.7-2.6c-0.3,0.7,0.1,1.1,0.4,1.7
	c-2.3-1.1-4.7-2.4-5.9-3.9c1.5,0.7,1.9,0.7,3.8,1C118.2,44.8,119.7,45.5,121.1,46.2z"/>
<path class="st2" d="M122.7,50.4c0,0,4.9-6.2,14.3-6.1c6.6,0.1,13,3.6,13,3.6s-8.1-3.5-17-1.8C129.7,46.7,126.1,48,122.7,50.4z"/>
<path class="st2" d="M96.7,64.9c-0.2,1.3-0.3,2.7-0.4,4c2.9-4.3,6.4-8.1,10.5-10.1l-0.9-1c0,0-4.1,1.5-9.1,6.4
	C96.7,64.5,96.7,64.7,96.7,64.9z"/>
<path d="M110.1,46.3c-0.5,2.3-0.2,8.6,5.5,9.2c0.5,0.3,0.8,0.6,1.1,1.2c0.2-0.6,0.9-1.6,1.2-2.2c-0.4,0.3-1.1,0-1.8-0.6
	c1-0.1,1.4,0,2.3-0.5c-1.4,0-2.5-0.7-3-1.9c0.8,0.3,3.2,1,4.1,0.1c-1-0.4-1.2-1-2.2-1.5c1.9,0.2,1.1-0.2,2.4-1
	c-1.3-0.3-2.3-0.8-3.6-1.4C111.8,46.1,110.6,43.7,110.1,46.3z M115.4,55.1l-0.5-0.2C115.1,54.9,115.3,55,115.4,55.1z"/>
<path d="M127.5,107.3c3.1,0.5,6.1,0.6,9,0.3c2.2-1.4,4.3-2.6,6.3-3.5c-5.2-1.5-9.4-10.1-1.5-18.9c-4.4-0.2-18.5,7.2-21.1,20.2
	C122.6,106.3,125,106.9,127.5,107.3z"/>
<path class="st4" d="M103.4,47.9"/>
<path d="M150.4,87.7c0,0,8.7-0.2,10.4-2.5s3.6-5.2,3.7-5.4s0.7-0.8,1-0.8s0.6-0.3,0.9,0.3s0.5,1.4,0.5,1.8c0,0.4,1.5-0.2-0.3,1.6
	s-2.2,2.9-3.7,3.9s-1.4,1-1.4,1s-0.8,0.7-1.7,0.6s-3.9,0.6-3.9,0.6"/>
<path class="st2" d="M127.5,107.3c1.2,0.2,2.5,0.3,3.7,0.4c1.3-1.1,2.1-1.9,2.1-1.9c-4.6-5.6,0.7-17.9,1.4-19.5
	c0.1,0,0.1-0.1,0.2-0.1c0,0-0.1,0-0.1,0c0,0,0-0.1,0-0.1c0,0-0.1,0-0.1,0.1c-1.9,0-14.4,0.2-18-6.1c-0.3,0.2-1.2,4.8,2.8,25
	C122,106.1,124.7,106.9,127.5,107.3z"/>
<path d="M144.5,85.3c-0.1,0.1-5.9,6.5-2.3,10s1.4,5.6,1.4,5.6l-4.1,1.4c0,0-2-1.1-2.1-2.2c-0.2-1.1,0-3.7,0.1-6s1.1-5.3,1.1-5.7
	s0.8-2,0.8-2s1.3-1.6,1.8-2.3s1.2-1.4,2.1-1.3c0.9,0.1,1.1,0.2,1.4,0.3"/>
<path d="M137.7,86c0,0-5.7,1.9-8.5,1.1l1.3,1c0,0-3.5,0.1-6.3-3"/>
<path class="st2" d="M151.8,78.8c0,0-2.7,0.9-0.6,3.7c2.1,2.8-0.4,4.6-0.4,4.6c6.8,0.7,11.4,0,13.4-3.9c2-3.9-0.7-5.2-0.7-5.2
	L151.8,78.8z"/>
<path d="M161.5,77.7c0,0,3.2,0.3,3.4,2.2c0.2,2-2.4,7.7-9.5,6.9s-6.5-4.8-9.9-6.2s1.7,6.1,1.9,6.8s1.5,2,3.7,2c2.1,0.1,7.7,0,7.7,0
	s2.2-0.5,3.4-1.3c1.2-0.9,2.5-1.6,2.8-2.6c0.4-1.1,0.9-1.4,1-2.5c0.1-1.1,0.7-1.7,0.4-2.6s0-1-0.4-1.6c-0.5-0.6-0.3-0.9-1.3-1.3
	s-1.4-0.8-2-0.6"/>
<path class="st2" d="M144.4,79.9c0,0,4.1,0.9,4.6,2.1c0.5,1.2,0.6,3.9,4.7,4.7s9.2-3.3,8.9-3.8s-1.3-1.3-2.1-1.9"/>
<path class="st2" d="M116.4,103.7c-3-13.1-6.3-34.7,1.8-43.9c-0.4-0.1-8.8,1.8-8.8,1.8l-3.7,3.4c-0.3,0-4.4,4.2-8,15.9
	C100.4,90.6,107.2,99,116.4,103.7z"/>
<path d="M120.2,105.4c-0.1-7.7,1.3-17.7,8.7-20.5c0,0-7.9-2-11.6-5s-3-2.1-3.3-2c-0.2,0.1,2.6,15.7,4.6,26.8
	C119.2,105,119.7,105.2,120.2,105.4z"/>
<polygon class="st1" points="81.6,77.5 83.1,80.5 86.4,81 84,83.3 84.5,86.6 81.6,85.1 78.6,86.6 79.2,83.3 76.8,81 80.1,80.5 "/>
<polygon class="st1" points="185.8,77.5 187.3,80.5 190.6,81 188.2,83.3 188.7,86.6 185.8,85.1 182.8,86.6 183.4,83.3 181,81 
	184.3,80.5 "/>
<path class="st1" d="M119.9,59.2c-0.3,0.2-18.2,11-17.2,34.3L97,80.9c0,0,5.3-16.8,13.2-20.2"/>
<g>
	<path d="M263.8,122.3v-21h-25.1v3.8l-1.9-3.8h-23.4v1.5c-3.3-1.5-6.9-1.5-9.3-1.5h-8.3c-2.4,0-7.2,0-10.9,3v-3h-24.7
		c-1.8,0-4.7,0-7.6,1.3v-1.3H79.7l-4.5,26.1H63.3v-5.1H66v-21H18.7c-2.5,0-7.8,0-11.9,4.2c-3.6,3.7-3.7,7.8-3.8,10.6l0,7.2l0,0.1
		c0,1.8,0.1,4.6,1.4,7.4H3.6v25.1h25c2.2,0,5.2,0,8.3-1.5v1.5h81.2v-0.7c2.1,0.6,4.1,0.6,5.7,0.7l10,0c2.6,0,7.4,0,11.2-3.4v3.4h25
		c2.4,0,5.6,0,8.9-1.8c1.6-0.8,2.9-1.9,3.9-3.1c0.5,0.6,1,1.1,1.6,1.6c4.1,3.4,9.4,3.4,12.3,3.4h7.7c2,0,5.5,0,8.8-1.5v1.5h25.4
		l0-3.5l1.8,3.5h23.2v-21H261v-12.6H263.8z"/>
	<path d="M265.8,157.9h-54.4v-0.7c-2.7,0.7-5.3,0.7-6.8,0.7h-7.7c-3.1,0-8.9,0-13.6-3.8c-0.1-0.1-0.2-0.2-0.3-0.3
		c-0.9,0.8-1.9,1.5-3,2.1c-3.7,2-7.4,2-9.8,2h-27v-1.7c-3.6,1.7-7.2,1.7-9.2,1.7l-10,0c-1.1,0-2.3-0.1-3.7-0.2v0.2H34.9v-0.6
		c-2.4,0.6-4.6,0.6-6.3,0.6h-27l0-29.1c-0.5-2.1-0.6-4-0.6-5.3l0-0.2l0-7.2c0.1-2.9,0.2-7.7,4.3-12c4.7-4.8,10.8-4.8,13.4-4.8H68v25
		h-2.7v1.1h8.2L78,99.3h76.5v0.5c2.3-0.5,4.3-0.5,5.6-0.5h26.7v1.5c3.5-1.5,7-1.5,8.9-1.5h8.3c1.9,0,4.5,0,7.3,0.7v-0.7h54.4v25H263
		v8.6h2.8L265.8,157.9L265.8,157.9z M241.7,153.9h20v-17H259v-16.6h2.8v-17h-21.1v10.1l-5.2-10.1h-20.1v2.5l-2.8-1.2
		c-2.9-1.3-6.2-1.3-8.4-1.3h-8.3c-2.3,0-6.5,0-9.7,2.5l-3.2,2.6v-5.1h-22.7c-1.7,0-4.3,0-6.9,1.1l-2.8,1.2v-2.3H81.4l-4.5,26.1H61.3
		v-9.1H64v-17H18.7c-2.4,0-7,0-10.5,3.6c-3,3.1-3.1,6.7-3.2,9.3l0,7.2c0,1.7,0.1,4.1,1.2,6.5l1.4,2.9h-2v21.1h23
		c2.1,0,4.8,0,7.4-1.3l2.9-1.4v2.7h77.2v-1.3l2.5,0.7c1.9,0.5,3.6,0.6,5.2,0.6l10,0c2.3,0,6.7,0,9.9-2.9l3.3-3v5.9h23
		c2.3,0,5.1,0,8-1.5c1.3-0.7,2.5-1.6,3.3-2.7l1.5-1.8l1.5,1.8c0.4,0.5,0.9,0.9,1.4,1.3c3.5,2.9,8.4,2.9,11,2.9h7.7
		c1.9,0,5.1,0,8-1.3l2.8-1.3v2.6h21.3l-0.1-9.8L241.7,153.9z"/>
</g>
<g>
	<path class="st1" d="M261.9,120.4v-17.2h-21.3v9.8l-5-9.8h-6.1h-3.9h-10.3v3c-3.4-3-8.1-3-11.2-3h-8.3c-3.2,0-9.9,0-12.8,6.6v-6.6
		h-22.8c-2.2,0-6.2,0-9.5,2.7v-2.7h-42.9v5.4l-1-5.4H96.6h-5.1H81.3l-4.5,26.1H61.4v-8.9h2.7v-17.2H41.5h-2.7H18.7
		c-2.5,0-7,0-10.6,3.6c-3.1,3.1-3.1,6.7-3.2,9.3l0,7.1l0,0.1c0.1,2.4,0.2,6.1,3.1,9.3H5.5V154h23.1c2.3,0,5.1,0,8-1.6
		c0.8-0.4,1.6-1,2.2-1.5v3.1h32.9h5.7h15.2l1.4-10.1l1.5,10.1h20.8v-1.6c2.7,1.5,5.4,1.5,7.6,1.6l10,0c2.9,0,8.4,0,11.7-5
		c0.6-0.9,1.1-1.9,1.4-2.9v7.9h23.1c2.3,0,5.1,0,8-1.6c2.5-1.3,3.9-3.1,4.8-4.9c0.6,1.3,1.5,2.5,2.8,3.6c3.6,2.9,8.3,2.9,11.1,2.9
		h7.7c2.5,0,7.3,0,10.7-3v3h21.5l-0.1-9.5l5,9.5h6.1h3.6h10.4v-17.2h-2.8v-16.4L261.9,120.4L261.9,120.4z"/>
	<g>
		<path class="st1" d="M261.9,120.4v-17.2h-21.3v9.8l-5-9.8h-6.1h-3.9h-10.3v3c-3.4-3-8.1-3-11.2-3h-8.3c-3.2,0-9.9,0-12.8,6.6v-6.6
			h-22.8c-2.2,0-6.2,0-9.5,2.7v-2.7h-42.9v5.4l-1-5.4H96.6h-5.1H81.3l-4.5,26.1H61.4v-8.9h2.7v-17.2H41.5h-2.7H18.7
			c-2.5,0-7,0-10.6,3.6c-3.1,3.1-3.1,6.7-3.2,9.3l0,7.1l0,0.1c0.1,2.4,0.2,6.1,3.1,9.3H5.5V154h23.1c2.3,0,5.1,0,8-1.6
			c0.8-0.4,1.6-1,2.2-1.5v3.1h32.9h5.7h15.2l1.4-10.1l1.5,10.1h20.8v-1.6c2.7,1.5,5.4,1.5,7.6,1.6l10,0c2.9,0,8.4,0,11.7-5
			c0.6-0.9,1.1-1.9,1.4-2.9v7.9h23.1c2.3,0,5.1,0,8-1.6c2.5-1.3,3.9-3.1,4.8-4.9c0.6,1.3,1.5,2.5,2.8,3.6c3.6,2.9,8.3,2.9,11.1,2.9
			h7.7c2.5,0,7.3,0,10.7-3v3h21.5l-0.1-9.5l5,9.5h6.1h3.6h10.4v-17.2h-2.8v-16.4L261.9,120.4L261.9,120.4z"/>
		<path d="M263.8,155.9h-23.2l-1.8-3.5l0,3.5h-25.4v-1.5c-3.3,1.5-6.9,1.5-8.8,1.5h-7.7c-2.9,0-8.2,0-12.3-3.4
			c-0.6-0.5-1.1-1-1.6-1.6c-1.1,1.3-2.4,2.3-3.9,3.1c-3.3,1.8-6.5,1.8-8.9,1.8h-25v-3.4c-3.8,3.4-8.7,3.4-11.2,3.4l-10,0
			c-1.6,0-3.6-0.1-5.7-0.7v0.7H36.9v-1.5c-3.1,1.5-6.1,1.5-8.3,1.5h-25v-25.1h0.8C3.1,128,3,125.2,3,123.4l0-0.1l0-7.2
			c0.1-2.8,0.2-6.9,3.8-10.6c4.1-4.2,9.4-4.2,11.9-4.2H66v21h-2.7v5.1h11.9l4.5-26.1h72.8v1.3c3-1.3,5.9-1.3,7.6-1.3h24.7v3
			c3.8-3,8.5-3,10.9-3h8.3c2.4,0,5.9,0,9.3,1.5v-1.5h23.4l1.9,3.8v-3.8h25.1v21H261v12.6h2.8L263.8,155.9L263.8,155.9z M242.8,152.1
			H260v-13.4h-2.8v-20.2h2.8v-13.4h-17.5V121l-8.1-15.8h-17.2v5.3l-3.1-2.7c-2.9-2.5-7.1-2.5-9.9-2.5h-8.3c-3,0-8.6,0-11.1,5.5
			l-3.6,8.1v-13.5h-20.9c-2.1,0-5.5,0-8.3,2.3l-3.1,2.5v-4.8h-39.1v3.5l-3.8,0.3l-0.7-3.8H82.9l-4.5,26.1H59.5v-12.7h2.7v-13.4H18.7
			c-2.3,0-6.2,0-9.2,3c-2.5,2.6-2.6,5.6-2.7,8l0,7.2c0.1,2.2,0.1,5.4,2.6,8l2.9,3.2H7.4v17.5h21.2c2.2,0,4.7,0,7.1-1.3
			c0.7-0.4,1.3-0.8,1.8-1.3l3.1-2.7v5.3h50.2l3-21.6l3.1,21.6h17.3v-2.9l2.8,1.5c2.3,1.2,4.7,1.3,6.7,1.4l10,0c2.7,0,7.4,0,10.1-4.1
			c0.5-0.7,0.9-1.5,1.2-2.4l3.7-11.1v17.6h21.2c2.2,0,4.7,0,7.1-1.3c1.9-1,3.1-2.3,4-4.1l1.7-3.6l1.7,3.6c0.6,1.1,1.3,2.1,2.3,3
			c3,2.5,7.2,2.5,9.9,2.5h7.7c2.3,0,6.6,0,9.5-2.6l3.2-2.8v5.3h17.7l-0.2-15.5L242.8,152.1z"/>
	</g>
	<g>
		<path class="st0" d="M37.4,107.4v12.5H27.1v-3.7h-6.5v7.7h7.8c2.3,0.1,5,0.1,7.2,1.5c3.1,2,3.1,5.2,3.1,7.7v6.8
			c-0.1,2.9-0.1,6.7-3.9,8.8c-2,1.1-4,1.1-6.1,1.1h-19v-13h10.9v4.1h6.5v-8.5h-8.5c-2.5-0.1-5.1-0.1-7.3-2.3
			c-2.1-2.1-2.2-4.5-2.3-6.9v-7c0.1-2.3,0.1-4.5,2-6.5c2.2-2.3,5.2-2.3,7.6-2.3L37.4,107.4L37.4,107.4z"/>
		<path class="st0" d="M43,107.4h16.9v8.8h-2.7V141h5.2v-7.5h10.8v16.3H43V141h2.7v-24.8H43V107.4z"/>
		<path class="st0" d="M84.8,107.4h18.4l5.9,33.6h2.9v8.8h-13l-1.5-10.3h-7.1L89,149.8H75.9V141H79L84.8,107.4z M94,114.4l-2.7,17.8
			h5.3L94,114.4z"/>
		<path class="st0" d="M111.9,107.4h14.4V141h5.9v-33.6h14.3v8.8h-2.8v22.1c0,2.6,0.1,5.9-1.6,8.3c-2.1,3.1-5.6,3.2-8.3,3.2h-9.9
			c-2.3-0.1-4.8-0.1-6.9-1.9c-2.3-2-2.4-4.6-2.4-8.3v-23.4h-2.8L111.9,107.4L111.9,107.4z"/>
		<path class="st0" d="M178.8,107.4v12.5h-10.3v-3.7h-6.5v7.7h7.8c2.3,0.1,5,0.1,7.2,1.5c3.1,2,3.1,5.2,3.1,7.7v6.8
			c-0.1,2.9-0.1,6.7-3.9,8.8c-2,1.1-4,1.1-6.1,1.1h-19v-13h10.9v4.1h6.5v-8.5h-8.5c-2.5-0.1-5.1-0.1-7.3-2.3
			c-2.1-2.1-2.2-4.5-2.3-6.9v-7c0.1-2.3,0.1-4.5,2-6.5c2.2-2.3,5.2-2.3,7.6-2.3L178.8,107.4L178.8,107.4z"/>
		<path class="st0" d="M204.1,107.4c4,0,7.8,0.2,9.8,3.7c1.3,2.2,1.3,5,1.3,8.5v17.5c0,2.4,0,5-0.5,7c-1.5,5.6-6.4,5.6-10.1,5.6
			h-7.7c-2.6,0-6.1-0.1-8.5-2c-2.6-2.2-2.6-5.5-2.6-8.2v-20.7c0-2.5,0-4.9,0.9-7c1.8-4.4,6-4.4,9.2-4.4L204.1,107.4L204.1,107.4z
			 M203.7,116.2h-6.3V141h6.3V116.2z"/>
		<path class="st0" d="M257.7,107.4v8.8H255V141h2.8v8.8h-13.5l-8.6-16.5c-2.2-4.4-2.5-5.3-3.4-8.1c0.2,1.7,0.2,2.3,0.2,4l0.2,20.7
			h-13.2V141h2.8v-24.8h-2.8v-8.8H233l9.5,18.6c1.5,2.9,1.7,3.6,2.6,6.2c-0.4-3.6-0.4-4.5-0.4-7.8v-17
			C244.7,107.4,257.7,107.4,257.7,107.4z"/>
	</g>
	<g>
		<polygon class="st5" points="98.4,135.1 98.1,133.6 89.8,133.6 89.6,135.1 		"/>
		<path class="st5" d="M12.2,112.2c1.7-1.8,4-1.9,6.5-1.9h17.2v-1.5H18.7c-2.6,0-4.8,0.1-6.5,1.9c-1.5,1.6-1.6,3.3-1.6,5.5v1.5
			C10.6,115.5,10.6,113.8,12.2,112.2z"/>
		<rect x="19.1" y="142.4" class="st5" width="9.4" height="1.5"/>
		<path class="st5" d="M34.8,126.7c-1.7-1.2-4-1.2-6.1-1.3l-0.3,0h-9.2v1.5h9.2l0.3,0c2.2,0.1,4.4,0.1,6.1,1.3
			c2.4,1.5,2.4,4.2,2.4,6.5v-1.5C37.1,130.9,37.1,128.3,34.8,126.7z"/>
		<rect x="44.5" y="108.9" class="st5" width="14" height="1.5"/>
		<rect x="55.8" y="142.4" class="st5" width="8.1" height="1.5"/>
		<rect x="63.9" y="134.9" class="st5" width="7.9" height="1.5"/>
		<rect x="44.5" y="142.4" class="st5" width="2.7" height="1.5"/>
		<rect x="124.7" y="142.4" class="st5" width="8.9" height="1.5"/>
		<rect x="133.6" y="108.9" class="st5" width="11.3" height="1.5"/>
		<rect x="113.3" y="108.9" class="st5" width="11.4" height="1.5"/>
		<rect x="160.6" y="142.4" class="st5" width="9.4" height="1.5"/>
		<path class="st5" d="M153.6,112.2c1.7-1.8,4-1.9,6.5-1.9h17.2v-1.5h-17.2c-2.6,0-4.8,0.1-6.5,1.9c-1.5,1.6-1.6,3.3-1.6,5.5v1.5
			C152.1,115.5,152.1,113.8,153.6,112.2z"/>
		<rect x="152.6" y="138.3" class="st5" width="8" height="1.5"/>
		<path class="st5" d="M176.2,126.7c-1.7-1.2-4-1.2-6.1-1.3l-0.3,0h-9.2v1.5h9.2l0.3,0c2.2,0.1,4.4,0.1,6.1,1.3
			c2.4,1.5,2.4,4.2,2.4,6.5v-1.5C178.6,130.9,178.6,128.3,176.2,126.7z"/>
		<rect x="195.9" y="142.4" class="st5" width="9.3" height="1.5"/>
		<path class="st5" d="M212.6,111.8c-1.5-2.7-4.5-2.9-8.5-2.9h-8.3c-3.7,0-6.5,0.3-7.8,3.5c-0.8,1.9-0.8,4.1-0.8,6.5v1.5
			c0-2.4,0-4.6,0.8-6.5c1.3-3.3,4.1-3.5,7.8-3.5h8.3c4,0,7,0.2,8.5,2.9c1.1,1.9,1.1,4.5,1.1,7.8v-1.5
			C213.7,116.3,213.7,113.7,212.6,111.8z"/>
		<rect x="220.9" y="142.4" class="st5" width="2.8" height="1.5"/>
		<polygon class="st5" points="241.2,128.2 246.4,139.6 246.3,138.1 241.2,126.7 232.1,108.9 220.9,108.9 220.9,110.3 232.1,110.3 
					"/>
		<rect x="253.5" y="142.4" class="st5" width="2.8" height="1.5"/>
		<rect x="246.2" y="108.9" class="st5" width="10" height="1.5"/>
		<polygon class="st5" points="102.3,110.3 102,108.9 94.7,108.9 93.4,108.9 86.1,108.9 85.8,110.3 		"/>
		<polygon class="st5" points="80.2,142.4 77.3,142.4 77.3,143.9 80.2,143.9 80.5,142.4 		"/>
		<polygon class="st5" points="107.7,142.4 108,143.9 110.6,143.9 110.6,142.4 108,142.4 		"/>
	</g>
</g>
<g>
	<path class="st1" d="M261.9,120.4v-17.2h-21.3v9.8l-5-9.8h-6.1h-3.9h-10.3v3c-3.4-3-8.1-3-11.2-3h-8.3c-3.2,0-9.9,0-12.8,6.6v-6.6
		h-22.8c-2.2,0-6.2,0-9.5,2.7v-2.7h-42.9v5.4l-1-5.4H96.6h-5.1H81.3l-4.5,26.1H61.4v-8.9h2.7v-17.2H41.5h-2.7H18.7
		c-2.5,0-7,0-10.6,3.6c-3.1,3.1-3.1,6.7-3.2,9.3l0,7.1l0,0.1c0.1,2.4,0.2,6.1,3.1,9.3H5.5V154h23.1c2.3,0,5.1,0,8-1.6
		c0.8-0.4,1.6-1,2.2-1.5v3.1h32.9h5.7h15.2l1.4-10.1l1.5,10.1h20.8v-1.6c2.7,1.5,5.4,1.5,7.6,1.6l10,0c2.9,0,8.4,0,11.7-5
		c0.6-0.9,1.1-1.9,1.4-2.9v7.9h23.1c2.3,0,5.1,0,8-1.6c2.5-1.3,3.9-3.1,4.8-4.9c0.6,1.3,1.5,2.5,2.8,3.6c3.6,2.9,8.3,2.9,11.1,2.9
		h7.7c2.5,0,7.3,0,10.7-3v3h21.5l-0.1-9.5l5,9.5h6.1h3.6h10.4v-17.2h-2.8v-16.4L261.9,120.4L261.9,120.4z"/>
	<g>
		<path class="st1" d="M261.9,120.4v-17.2h-21.3v9.8l-5-9.8h-6.1h-3.9h-10.3v3c-3.4-3-8.1-3-11.2-3h-8.3c-3.2,0-9.9,0-12.8,6.6v-6.6
			h-22.8c-2.2,0-6.2,0-9.5,2.7v-2.7h-42.9v5.4l-1-5.4H96.6h-5.1H81.3l-4.5,26.1H61.4v-8.9h2.7v-17.2H41.5h-2.7H18.7
			c-2.5,0-7,0-10.6,3.6c-3.1,3.1-3.1,6.7-3.2,9.3l0,7.1l0,0.1c0.1,2.4,0.2,6.1,3.1,9.3H5.5V154h23.1c2.3,0,5.1,0,8-1.6
			c0.8-0.4,1.6-1,2.2-1.5v3.1h32.9h5.7h15.2l1.4-10.1l1.5,10.1h20.8v-1.6c2.7,1.5,5.4,1.5,7.6,1.6l10,0c2.9,0,8.4,0,11.7-5
			c0.6-0.9,1.1-1.9,1.4-2.9v7.9h23.1c2.3,0,5.1,0,8-1.6c2.5-1.3,3.9-3.1,4.8-4.9c0.6,1.3,1.5,2.5,2.8,3.6c3.6,2.9,8.3,2.9,11.1,2.9
			h7.7c2.5,0,7.3,0,10.7-3v3h21.5l-0.1-9.5l5,9.5h6.1h3.6h10.4v-17.2h-2.8v-16.4L261.9,120.4L261.9,120.4z"/>
		<path d="M263.8,155.9h-23.2l-1.8-3.5l0,3.5h-25.4v-1.5c-3.3,1.5-6.9,1.5-8.8,1.5h-7.7c-2.9,0-8.2,0-12.3-3.4
			c-0.6-0.5-1.1-1-1.6-1.6c-1.1,1.3-2.4,2.3-3.9,3.1c-3.3,1.8-6.5,1.8-8.9,1.8h-25v-3.4c-3.8,3.4-8.7,3.4-11.2,3.4l-10,0
			c-1.6,0-3.6-0.1-5.7-0.7v0.7H36.9v-1.5c-3.1,1.5-6.1,1.5-8.3,1.5h-25v-25.1h0.8C3.1,128,3,125.2,3,123.4l0-0.1l0-7.2
			c0.1-2.8,0.2-6.9,3.8-10.6c4.1-4.2,9.4-4.2,11.9-4.2H66v21h-2.7v5.1h11.9l4.5-26.1h72.8v1.3c3-1.3,5.9-1.3,7.6-1.3h24.7v3
			c3.8-3,8.5-3,10.9-3h8.3c2.4,0,5.9,0,9.3,1.5v-1.5h23.4l1.9,3.8v-3.8h25.1v21H261v12.6h2.8L263.8,155.9L263.8,155.9z M242.8,152.1
			H260v-13.4h-2.8v-20.2h2.8v-13.4h-17.5V121l-8.1-15.8h-17.2v5.3l-3.1-2.7c-2.9-2.5-7.1-2.5-9.9-2.5h-8.3c-3,0-8.6,0-11.1,5.5
			l-3.6,8.1v-13.5h-20.9c-2.1,0-5.5,0-8.3,2.3l-3.1,2.5v-4.8h-39.1v3.5l-3.8,0.3l-0.7-3.8H82.9l-4.5,26.1H59.5v-12.7h2.7v-13.4H18.7
			c-2.3,0-6.2,0-9.2,3c-2.5,2.6-2.6,5.6-2.7,8l0,7.2c0.1,2.2,0.1,5.4,2.6,8l2.9,3.2H7.4v17.5h21.2c2.2,0,4.7,0,7.1-1.3
			c0.7-0.4,1.3-0.8,1.8-1.3l3.1-2.7v5.3h50.2l3-21.6l3.1,21.6h17.3v-2.9l2.8,1.5c2.3,1.2,4.7,1.3,6.7,1.4l10,0c2.7,0,7.4,0,10.1-4.1
			c0.5-0.7,0.9-1.5,1.2-2.4l3.7-11.1v17.6h21.2c2.2,0,4.7,0,7.1-1.3c1.9-1,3.1-2.3,4-4.1l1.7-3.6l1.7,3.6c0.6,1.1,1.3,2.1,2.3,3
			c3,2.5,7.2,2.5,9.9,2.5h7.7c2.3,0,6.6,0,9.5-2.6l3.2-2.8v5.3h17.7l-0.2-15.5L242.8,152.1z"/>
	</g>
	<g>
		<path class="st0" d="M37.4,107.4v12.5H27.1v-3.7h-6.5v7.7h7.8c2.3,0.1,5,0.1,7.2,1.5c3.1,2,3.1,5.2,3.1,7.7v6.8
			c-0.1,2.9-0.1,6.7-3.9,8.8c-2,1.1-4,1.1-6.1,1.1h-19v-13h10.9v4.1h6.5v-8.5h-8.5c-2.5-0.1-5.1-0.1-7.3-2.3
			c-2.1-2.1-2.2-4.5-2.3-6.9v-7c0.1-2.3,0.1-4.5,2-6.5c2.2-2.3,5.2-2.3,7.6-2.3L37.4,107.4L37.4,107.4z"/>
		<path class="st0" d="M43,107.4h16.9v8.8h-2.7V141h5.2v-7.5h10.8v16.3H43V141h2.7v-24.8H43V107.4z"/>
		<path class="st0" d="M84.8,107.4h18.4l5.9,33.6h2.9v8.8h-13l-1.5-10.3h-7.1L89,149.8H75.9V141H79L84.8,107.4z M94,114.4l-2.7,17.8
			h5.3L94,114.4z"/>
		<path class="st0" d="M111.9,107.4h14.4V141h5.9v-33.6h14.3v8.8h-2.8v22.1c0,2.6,0.1,5.9-1.6,8.3c-2.1,3.1-5.6,3.2-8.3,3.2h-9.9
			c-2.3-0.1-4.8-0.1-6.9-1.9c-2.3-2-2.4-4.6-2.4-8.3v-23.4h-2.8L111.9,107.4L111.9,107.4z"/>
		<path class="st0" d="M178.8,107.4v12.5h-10.3v-3.7h-6.5v7.7h7.8c2.3,0.1,5,0.1,7.2,1.5c3.1,2,3.1,5.2,3.1,7.7v6.8
			c-0.1,2.9-0.1,6.7-3.9,8.8c-2,1.1-4,1.1-6.1,1.1h-19v-13h10.9v4.1h6.5v-8.5h-8.5c-2.5-0.1-5.1-0.1-7.3-2.3
			c-2.1-2.1-2.2-4.5-2.3-6.9v-7c0.1-2.3,0.1-4.5,2-6.5c2.2-2.3,5.2-2.3,7.6-2.3L178.8,107.4L178.8,107.4z"/>
		<path class="st0" d="M204.1,107.4c4,0,7.8,0.2,9.8,3.7c1.3,2.2,1.3,5,1.3,8.5v17.5c0,2.4,0,5-0.5,7c-1.5,5.6-6.4,5.6-10.1,5.6
			h-7.7c-2.6,0-6.1-0.1-8.5-2c-2.6-2.2-2.6-5.5-2.6-8.2v-20.7c0-2.5,0-4.9,0.9-7c1.8-4.4,6-4.4,9.2-4.4L204.1,107.4L204.1,107.4z
			 M203.7,116.2h-6.3V141h6.3V116.2z"/>
		<path class="st0" d="M257.7,107.4v8.8H255V141h2.8v8.8h-13.5l-8.6-16.5c-2.2-4.4-2.5-5.3-3.4-8.1c0.2,1.7,0.2,2.3,0.2,4l0.2,20.7
			h-13.2V141h2.8v-24.8h-2.8v-8.8H233l9.5,18.6c1.5,2.9,1.7,3.6,2.6,6.2c-0.4-3.6-0.4-4.5-0.4-7.8v-17
			C244.7,107.4,257.7,107.4,257.7,107.4z"/>
	</g>
	<g>
		<polygon class="st5" points="98.4,135.1 98.1,133.6 89.8,133.6 89.6,135.1 		"/>
		<path class="st5" d="M12.2,112.2c1.7-1.8,4-1.9,6.5-1.9h17.2v-1.5H18.7c-2.6,0-4.8,0.1-6.5,1.9c-1.5,1.6-1.6,3.3-1.6,5.5v1.5
			C10.6,115.5,10.6,113.8,12.2,112.2z"/>
		<rect x="19.1" y="142.4" class="st5" width="9.4" height="1.5"/>
		<path class="st5" d="M34.8,126.7c-1.7-1.2-4-1.2-6.1-1.3l-0.3,0h-9.2v1.5h9.2l0.3,0c2.2,0.1,4.4,0.1,6.1,1.3
			c2.4,1.5,2.4,4.2,2.4,6.5v-1.5C37.1,130.9,37.1,128.3,34.8,126.7z"/>
		<rect x="44.5" y="108.9" class="st5" width="14" height="1.5"/>
		<rect x="55.8" y="142.4" class="st5" width="8.1" height="1.5"/>
		<rect x="63.9" y="134.9" class="st5" width="7.9" height="1.5"/>
		<rect x="44.5" y="142.4" class="st5" width="2.7" height="1.5"/>
		<rect x="124.7" y="142.4" class="st5" width="8.9" height="1.5"/>
		<rect x="133.6" y="108.9" class="st5" width="11.3" height="1.5"/>
		<rect x="113.3" y="108.9" class="st5" width="11.4" height="1.5"/>
		<rect x="160.6" y="142.4" class="st5" width="9.4" height="1.5"/>
		<path class="st5" d="M153.6,112.2c1.7-1.8,4-1.9,6.5-1.9h17.2v-1.5h-17.2c-2.6,0-4.8,0.1-6.5,1.9c-1.5,1.6-1.6,3.3-1.6,5.5v1.5
			C152.1,115.5,152.1,113.8,153.6,112.2z"/>
		<rect x="152.6" y="138.3" class="st5" width="8" height="1.5"/>
		<path class="st5" d="M176.2,126.7c-1.7-1.2-4-1.2-6.1-1.3l-0.3,0h-9.2v1.5h9.2l0.3,0c2.2,0.1,4.4,0.1,6.1,1.3
			c2.4,1.5,2.4,4.2,2.4,6.5v-1.5C178.6,130.9,178.6,128.3,176.2,126.7z"/>
		<rect x="195.9" y="142.4" class="st5" width="9.3" height="1.5"/>
		<path class="st5" d="M212.6,111.8c-1.5-2.7-4.5-2.9-8.5-2.9h-8.3c-3.7,0-6.5,0.3-7.8,3.5c-0.8,1.9-0.8,4.1-0.8,6.5v1.5
			c0-2.4,0-4.6,0.8-6.5c1.3-3.3,4.1-3.5,7.8-3.5h8.3c4,0,7,0.2,8.5,2.9c1.1,1.9,1.1,4.5,1.1,7.8v-1.5
			C213.7,116.3,213.7,113.7,212.6,111.8z"/>
		<rect x="220.9" y="142.4" class="st5" width="2.8" height="1.5"/>
		<polygon class="st5" points="241.2,128.2 246.4,139.6 246.3,138.1 241.2,126.7 232.1,108.9 220.9,108.9 220.9,110.3 232.1,110.3 
					"/>
		<rect x="253.5" y="142.4" class="st5" width="2.8" height="1.5"/>
		<rect x="246.2" y="108.9" class="st5" width="10" height="1.5"/>
		<polygon class="st5" points="102.3,110.3 102,108.9 94.7,108.9 93.4,108.9 86.1,108.9 85.8,110.3 		"/>
		<polygon class="st5" points="80.2,142.4 77.3,142.4 77.3,143.9 80.2,143.9 80.5,142.4 		"/>
		<polygon class="st5" points="107.7,142.4 108,143.9 110.6,143.9 110.6,142.4 108,142.4 		"/>
	</g>
</g>
<g>
	<path d="M72.8,166.8h0.9v-4.7h-0.9v-1.5h4.8l1.8,5.3l1.9-5.3h4.7v1.5h-1v4.7h1v1.5h-4.2v-1.5h0.9v-4.7l-2.1,5.6h-2.8l-2-5.6v4.7h1
		v1.5h-4V166.8z"/>
	<path d="M88.2,166.8h1.1v-4.7h-1.1v-1.5h4.6v1.5h-1.1v4.7h1.1v1.5h-4.6V166.8z"/>
	<path d="M94.9,166.8h0.9v-4.7h-0.9v-1.5h8.2l1.4,1.4v4.9l-1.4,1.4h-8.2V166.8z M101.6,166.8l0.5-0.5v-3.5l-0.5-0.5h-3.1v4.5H101.6z
		"/>
	<path d="M106.8,166.8h0.9v-4.7h-0.9v-1.5h8.2l1.4,1.4v4.9l-1.4,1.4h-8.2V166.8z M113.4,166.8l0.5-0.5v-3.5l-0.5-0.5h-3.1v4.5H113.4
		z"/>
	<path d="M118.7,166.8h0.9v-4.7h-0.9v-1.5h4.7v1.5h-1.2v4.7h2.3v-1.9h2.2v3.5h-7.9C118.7,168.4,118.7,166.8,118.7,166.8z"/>
	<path d="M128.8,166.8h0.9v-4.7h-0.9v-1.5h8.9v2.4h-2.2v-0.8h-3.2v1.5h4.3v1.6h-4.3v1.6h3.2v-0.9h2.2v2.4h-8.9L128.8,166.8
		L128.8,166.8z"/>
	<path d="M145.1,167.2V166h2.5v0.5l0.2,0.2h3.2l0.2-0.2v-1.1l-0.1-0.1h-4.9l-1.1-1.1v-2.4l1.3-1.3h6.2l1.2,1.2v1.2h-2.5v-0.5
		l-0.2-0.2h-3.2l-0.2,0.2v1l0.1,0.1h4.9l1.1,1.1v2.4l-1.3,1.3h-6.3L145.1,167.2z"/>
	<path d="M156.3,167V162l1.4-1.4h6.1l1.4,1.4v1.5h-2.5v-0.8l-0.4-0.4h-2.9l-0.5,0.5v3.4l0.5,0.5h2.9l0.4-0.4v-0.9h2.5v1.6l-1.4,1.4
		h-6.1L156.3,167z"/>
	<path d="M167.3,166.8h0.9v-4.7h-0.9v-1.5h4.4v1.5h-1v1.4h3.6v-1.4h-1v-1.5h4.4v1.5h-0.9v4.7h0.9v1.5h-4.4v-1.5h1v-1.3h-3.6v1.3h1
		v1.5h-4.4V166.8z"/>
	<path d="M180,166.9V162l1.4-1.4h6.2l1.4,1.4v4.9l-1.4,1.4h-6.2L180,166.9z M186,166.7l0.5-0.5v-3.4l-0.5-0.5h-2.9l-0.5,0.5v3.4
		l0.5,0.5H186z"/>
	<path d="M191.5,166.9V162l1.4-1.4h6.2l1.4,1.4v4.9l-1.4,1.4h-6.2L191.5,166.9z M197.5,166.7l0.5-0.5v-3.4l-0.5-0.5h-2.9l-0.5,0.5
		v3.4l0.5,0.5H197.5z"/>
	<path d="M202.8,166.8h0.9v-4.7h-0.9v-1.5h4.7v1.5h-1.2v4.7h2.3v-1.9h2.2v3.5h-7.9V166.8z"/>
</g>
<path class="st6" d="M265.8,124.3v-25h-54.4v0.7c-2.7-0.7-5.4-0.7-7.3-0.7h-7.4c4-8.8,6.1-18.5,6.2-28.5C203,32.5,171.9,1.1,133.6,1
	C115,0.9,97.5,8.1,84.3,21.2C71.2,34.3,63.9,51.7,63.8,70.3c-0.1,14.5,4.3,28.2,12.4,39.9l-2.6,15.2h-8.2v-1.1H68v-25H18.7
	c-2.6,0-8.7,0-13.4,4.8c-4.1,4.2-4.2,9.1-4.3,12l0,7.2l0,0.2c0,1.3,0.1,3.2,0.6,5.3l0,29.1h27c1.7,0,3.9,0,6.3-0.6v0.6h85.2v-0.2
	c1.3,0.2,2.6,0.2,3.7,0.2l10,0c2,0,5.7,0,9.2-1.7v1.7h27c2.4,0,6.1,0,9.8-2c1.1-0.6,2.1-1.3,3-2.1c0.1,0.1,0.2,0.2,0.3,0.3
	c4.6,3.8,10.5,3.8,13.6,3.8h7.7c1.5,0,4.1,0,6.8-0.7v0.7h54.4v-25H263v-8.6H265.8z"/>
<path class="st7" d="M265.8,124.3v-25h-54.4v0.7c-2.7-0.7-5.4-0.7-7.3-0.7h-8.3c-1.9,0-5.5,0-8.9,1.5v-1.5h-26.7
	c-1.4,0-3.4,0-5.6,0.5v-0.5H78l-4.5,26.1h-8.2v-1.1H68v-25H18.7c-2.6,0-8.7,0-13.4,4.8c-4.1,4.2-4.2,9.1-4.3,12l0,7.2l0,0.2
	c0,1.3,0.1,3.2,0.6,5.3l0,29.1h27c1.7,0,3.9,0,6.3-0.6v0.6h85.2v-0.2c1.3,0.2,2.6,0.2,3.7,0.2l10,0c2,0,5.7,0,9.2-1.7v1.7h27
	c2.4,0,6.1,0,9.8-2c1.1-0.6,2.1-1.3,3-2.1c0.1,0.1,0.2,0.2,0.3,0.3c4.6,3.8,10.5,3.8,13.6,3.8h7.7c1.5,0,4.1,0,6.8-0.7v0.7h54.4v-25
	H263v-8.6H265.8z"/>
</svg>
